<svg width="56" height="56" viewBox="0 0 56 56" fill="none" xmlns="http://www.w3.org/2000/svg">
<path d="M28 56C22.4621 56 17.0486 54.3578 12.444 51.2811C7.83947 48.2045 4.25064 43.8315 2.13139 38.7151C0.0121319 33.5988 -0.542361 27.9689 0.538025 22.5375C1.61841 17.106 4.28515 12.1169 8.20102 8.20102C12.1169 4.28515 17.106 1.61841 22.5375 0.538025C27.9689 -0.542361 33.5988 0.0121319 38.7151 2.13139C43.8315 4.25064 48.2045 7.83947 51.2811 12.444C54.3578 17.0486 56 22.4621 56 28C56 35.4261 53.05 42.548 47.799 47.799C42.548 53.05 35.4261 56 28 56ZM32.7376 14C32.3509 14 31.9684 14.0802 31.6142 14.2353C31.26 14.3905 30.9418 14.6174 30.6796 14.9016L20.342 26.1016C19.8515 26.6327 19.5855 27.333 19.5996 28.0558C19.6137 28.7786 19.9068 29.468 20.4176 29.9796L31.6176 41.1796C31.873 41.4441 32.1781 41.6557 32.5153 41.8023C32.8525 41.9489 33.2153 42.0276 33.5829 42.034C33.9506 42.0404 34.3159 41.9743 34.658 41.8396C35.0001 41.7048 35.3123 41.5039 35.5768 41.2485C35.8413 40.993 36.0529 40.688 36.1995 40.3508C36.3461 40.0136 36.4248 39.6508 36.4312 39.2832C36.4376 38.9155 36.3715 38.5502 36.2368 38.2081C36.102 37.866 35.9011 37.5538 35.6457 37.2893L35.5768 37.2204L26.2808 27.9244L34.7928 18.7012C35.1625 18.3015 35.4076 17.8027 35.4982 17.2658C35.5888 16.7289 35.5209 16.1773 35.3028 15.6784C35.0847 15.1796 34.7259 14.7551 34.2703 14.457C33.8147 14.1589 33.2821 14.0001 32.7376 14Z" fill="#FFFDFD"/>
</svg>
