<svg width="56" height="56" viewBox="0 0 56 56" fill="none" xmlns="http://www.w3.org/2000/svg">
<path d="M28 56C22.4621 56 17.0486 54.3578 12.444 51.2811C7.83947 48.2045 4.25064 43.8315 2.13139 38.7151C0.0121319 33.5988 -0.542361 27.9689 0.538025 22.5375C1.61841 17.106 4.28515 12.1169 8.20102 8.20102C12.1169 4.28515 17.106 1.61841 22.5375 0.538025C27.9689 -0.542361 33.5988 0.0121319 38.7151 2.13139C43.8315 4.25064 48.2045 7.83947 51.2811 12.444C54.3578 17.0486 56 22.4621 56 28C56 35.4261 53.05 42.548 47.799 47.799C42.548 53.05 35.4261 56 28 56ZM22.4 14C21.8457 13.9996 21.3038 14.1637 20.8428 14.4715C20.3819 14.7793 20.0227 15.217 19.8107 15.7291C19.5987 16.2412 19.5435 16.8048 19.652 17.3483C19.7606 17.8919 20.028 18.391 20.4204 18.7824L29.7192 28.0784L21.2072 37.3016C20.9576 37.5714 20.7636 37.8878 20.6362 38.2327C20.5089 38.5775 20.4508 38.9441 20.4653 39.3114C20.4797 39.6787 20.5664 40.0396 20.7203 40.3734C20.8743 40.7072 21.0925 41.0074 21.3625 41.2568C21.6326 41.5062 21.9491 41.7 22.294 41.827C22.639 41.9541 23.0056 42.0119 23.3729 41.9972C23.7402 41.9825 24.101 41.8955 24.4347 41.7413C24.7684 41.5871 25.0684 41.3686 25.3176 41.0984L35.658 29.8984C36.1481 29.3669 36.4137 28.6665 36.3991 27.9436C36.3844 27.2208 36.0908 26.5316 35.5796 26.0204L24.3796 14.8204C24.1202 14.5596 23.8117 14.3529 23.4719 14.2121C23.1321 14.0712 22.7678 13.9992 22.4 14Z" fill="#FFFDFD"/>
</svg>
