<svg width="32" height="32" viewBox="0 0 32 32" fill="none" xmlns="http://www.w3.org/2000/svg">
<rect width="32" height="32" rx="16" fill="#1DA1F2"/>
<path fill-rule="evenodd" clip-rule="evenodd" d="M25.3 10.1115C24.754 10.8935 24.124 11.5886 23.368 12.1534C23.368 12.2837 23.368 12.4575 23.368 12.6747C23.368 13.7607 23.242 14.8468 22.906 15.8894C22.612 16.9755 22.15 18.0181 21.52 18.9738C20.932 19.973 20.176 20.8419 19.336 21.6238C18.454 22.3624 17.446 22.9706 16.228 23.405C15.01 23.8829 13.708 24.1001 12.364 24.1001C10.18 24.1001 8.20602 23.4919 6.40002 22.2755C6.69402 22.3189 6.98802 22.3624 7.32402 22.3624C9.13002 22.3624 10.726 21.7542 12.154 20.6247C11.314 20.6247 10.558 20.364 9.88602 19.8427C9.21402 19.3214 8.75202 18.6697 8.50002 17.8443C8.79402 17.8878 9.04602 17.9312 9.25602 17.9312C9.59202 17.9312 9.92802 17.8878 10.264 17.7575C9.38202 17.5837 8.62602 17.1058 8.03802 16.4107C7.45002 15.6722 7.15602 14.8034 7.15602 13.8476V13.8042C7.70202 14.1083 8.29002 14.282 8.92002 14.282C8.37402 13.9345 7.95402 13.4566 7.66002 12.8919C7.32402 12.2837 7.19802 11.632 7.19802 10.9804C7.19802 10.2419 7.36602 9.54679 7.70202 8.9386C8.66802 10.155 9.84402 11.1542 11.23 11.8927C12.616 12.6312 14.128 13.0656 15.724 13.1525C15.64 12.805 15.598 12.5009 15.598 12.1968C15.598 11.1107 15.976 10.155 16.732 9.37302C17.488 8.59106 18.412 8.20007 19.504 8.20007C20.596 8.20007 21.562 8.6345 22.318 9.45991C23.2 9.28614 23.998 8.98204 24.796 8.50417C24.502 9.45991 23.914 10.1984 23.074 10.7197C23.83 10.6329 24.544 10.4156 25.3 10.1115Z" fill="white"/>
</svg>
