<svg width="32" height="32" viewBox="0 0 32 32" fill="none" xmlns="http://www.w3.org/2000/svg">
<rect width="32" height="32" rx="16" fill="#FF0000"/>
<path fill-rule="evenodd" clip-rule="evenodd" d="M20.3395 16C20.3395 15.736 20.2252 15.5475 19.9967 15.4344L14.4362 11.9655C14.2076 11.8147 13.9791 11.8147 13.7125 11.9655C13.484 12.0787 13.3698 12.2672 13.3698 12.5688V19.4311C13.3698 19.7328 13.484 19.9213 13.7125 20.0344C13.8268 20.1098 13.941 20.1475 14.0553 20.1475C14.2076 20.1475 14.3219 20.1098 14.4362 20.0344L19.9967 16.5655C20.2252 16.4524 20.3395 16.2639 20.3395 16ZM25.9 16C25.9 16.6787 25.9 17.2442 25.9 17.6213C25.9 17.9983 25.8619 18.4885 25.7858 19.0918C25.7477 19.6951 25.6715 20.2229 25.5573 20.6754C25.443 21.2033 25.1764 21.6557 24.7955 21.9951C24.4147 22.3721 23.9576 22.5606 23.4625 22.636C21.8248 22.7869 19.4254 22.9 16.15 22.9C12.8746 22.9 10.4752 22.7869 8.83752 22.636C8.34241 22.5606 7.88538 22.3721 7.50452 21.9951C7.12366 21.6557 6.85706 21.2033 6.7428 20.6754C6.62854 20.2229 6.55237 19.6951 6.51428 19.0918C6.43811 18.4885 6.40002 17.9983 6.40002 17.6213C6.40002 17.2442 6.40002 16.6787 6.40002 16C6.40002 15.3213 6.40002 14.7557 6.40002 14.3787C6.40002 14.0016 6.43811 13.5115 6.51428 12.9082C6.55237 12.3049 6.62854 11.777 6.7428 11.3246C6.85706 10.7967 7.12366 10.3442 7.50452 10.0049C7.88538 9.62784 8.34241 9.43932 8.83752 9.36391C10.4752 9.21309 12.8746 9.09998 16.15 9.09998C19.4254 9.09998 21.8248 9.21309 23.4625 9.36391C23.9576 9.43932 24.4147 9.62784 24.7955 10.0049C25.1764 10.3442 25.443 10.7967 25.5573 11.3246C25.6715 11.777 25.7477 12.3049 25.7858 12.9082C25.8619 13.5115 25.9 14.0016 25.9 14.3787C25.9 14.7557 25.9 15.3213 25.9 16Z" fill="white"/>
</svg>
