<svg width="16" height="17" viewBox="0 0 16 17" fill="none" xmlns="http://www.w3.org/2000/svg">
<path d="M10.0492 3.97103C8.89446 3.31264 7.99753 2.80122 7.26908 2.46945C6.53791 2.13644 5.90322 1.94838 5.28608 2.01244C4.3066 2.1141 3.41492 2.62161 2.83384 3.41147C2.4668 3.91038 2.31398 4.55072 2.24034 5.34348C2.16699 6.13306 2.16699 7.15643 2.16699 8.47256V8.52741C2.16699 9.84353 2.16699 10.8669 2.24034 11.6565C2.31398 12.4493 2.4668 13.0896 2.83384 13.5885C3.41492 14.3784 4.3066 14.8859 5.28608 14.9875C5.90322 15.0516 6.53791 14.8635 7.26908 14.5305C7.99752 14.1988 8.89445 13.6873 10.0491 13.029L10.096 13.0022C11.2506 12.3439 12.1476 11.8325 12.8028 11.3753C13.46 10.9168 13.9443 10.4668 14.1983 9.90348C14.601 9.01023 14.601 7.98974 14.1983 7.09649C13.9443 6.53313 13.46 6.08318 12.8028 5.62469C12.1476 5.16751 11.2506 4.65608 10.096 3.99774L10.0492 3.97103Z" fill="white"/>
</svg>
