<svg width="30" height="30" viewBox="0 0 30 30" fill="none" xmlns="http://www.w3.org/2000/svg">
<rect width="30" height="30" rx="15" fill="#6B7280"/>
<path d="M11.3043 13.3597L9.76081 14.9032C9.12783 15.5362 8.77222 16.3948 8.77222 17.2899C8.77222 18.1851 9.12783 19.0436 9.76081 19.6766C10.3938 20.3096 11.2523 20.6652 12.1475 20.6652C13.0427 20.6652 13.9012 20.3096 14.5342 19.6766L16.5907 17.619C16.9724 17.2372 17.257 16.7695 17.4205 16.255C17.584 15.7405 17.6217 15.1943 17.5305 14.6622C17.4392 14.1301 17.2217 13.6277 16.896 13.1971C16.5704 12.7665 16.1463 12.4203 15.6592 12.1875L14.9999 12.8467C14.933 12.9138 14.8748 12.989 14.8267 13.0706C15.203 13.1788 15.5446 13.3834 15.8177 13.664C16.0908 13.9447 16.2859 14.2917 16.3837 14.6709C16.4815 15.0501 16.4787 15.4482 16.3755 15.826C16.2723 16.2037 16.0723 16.548 15.7953 16.8247L13.7399 18.8812C13.3177 19.3034 12.7451 19.5406 12.1481 19.5406C11.551 19.5406 10.9784 19.3034 10.5562 18.8812C10.134 18.4591 9.89681 17.8864 9.89681 17.2894C9.89681 16.6923 10.134 16.1197 10.5562 15.6975L11.4483 14.8065C11.3224 14.3348 11.2738 13.8459 11.3043 13.3586V13.3597Z" fill="white"/>
<path d="M13.4092 11.256C13.0275 11.6378 12.743 12.1056 12.5795 12.62C12.4159 13.1345 12.3782 13.6807 12.4695 14.2128C12.5607 14.7449 12.7783 15.2474 13.1039 15.678C13.4295 16.1086 13.8536 16.4548 14.3407 16.6875L15.2126 15.8145C14.8312 15.7122 14.4834 15.5113 14.2042 15.232C13.925 14.9527 13.7243 14.6048 13.6221 14.2234C13.52 13.8419 13.52 13.4402 13.6223 13.0588C13.7245 12.6773 13.9254 12.3295 14.2046 12.0503L16.26 9.99379C16.6822 9.57159 17.2548 9.33441 17.8519 9.33441C18.4489 9.33441 19.0216 9.57159 19.4437 9.99379C19.8659 10.416 20.1031 10.9886 20.1031 11.5857C20.1031 12.1827 19.8659 12.7553 19.4437 13.1775L18.5516 14.0685C18.6776 14.541 18.726 15.0304 18.6956 15.5164L20.2391 13.9729C20.8721 13.3399 21.2277 12.4814 21.2277 11.5862C21.2277 10.691 20.8721 9.83252 20.2391 9.19954C19.6061 8.56655 18.7476 8.21094 17.8524 8.21094C16.9572 8.21094 16.0987 8.56655 15.4657 9.19954L13.4092 11.256Z" fill="white"/>
</svg>
