<svg width="32" height="32" viewBox="0 0 32 32" fill="none" xmlns="http://www.w3.org/2000/svg">
<rect width="32" height="32" rx="16" fill="#1DA1F2"/>
<path fill-rule="evenodd" clip-rule="evenodd" d="M25.3 10.1114C24.754 10.8934 24.124 11.5885 23.368 12.1532C23.368 12.2836 23.368 12.4573 23.368 12.6745C23.368 13.7606 23.242 14.8467 22.906 15.8893C22.612 16.9754 22.15 18.018 21.52 18.9737C20.932 19.9729 20.176 20.8418 19.336 21.6237C18.454 22.3622 17.446 22.9704 16.228 23.4049C15.01 23.8827 13.708 24.1 12.364 24.1C10.18 24.1 8.206 23.4918 6.4 22.2754C6.694 22.3188 6.988 22.3622 7.324 22.3622C9.13 22.3622 10.726 21.7541 12.154 20.6245C11.314 20.6245 10.558 20.3639 9.886 19.8426C9.214 19.3213 8.752 18.6696 8.5 17.8442C8.794 17.8877 9.046 17.9311 9.256 17.9311C9.592 17.9311 9.928 17.8877 10.264 17.7573C9.382 17.5836 8.626 17.1057 8.038 16.4106C7.45 15.6721 7.156 14.8032 7.156 13.8475V13.804C7.702 14.1081 8.29 14.2819 8.92 14.2819C8.374 13.9344 7.954 13.4565 7.66 12.8918C7.324 12.2836 7.198 11.6319 7.198 10.9803C7.198 10.2418 7.366 9.54667 7.702 8.93848C8.668 10.1549 9.844 11.154 11.23 11.8926C12.616 12.6311 14.128 13.0655 15.724 13.1524C15.64 12.8049 15.598 12.5008 15.598 12.1967C15.598 11.1106 15.976 10.1549 16.732 9.3729C17.488 8.59093 18.412 8.19995 19.504 8.19995C20.596 8.19995 21.562 8.63438 22.318 9.45979C23.2 9.28602 23.998 8.98192 24.796 8.50405C24.502 9.45979 23.914 10.1983 23.074 10.7196C23.83 10.6327 24.544 10.4155 25.3 10.1114Z" fill="white"/>
</svg>
