<svg width="222" height="41" viewBox="0 0 222 41" fill="none" xmlns="http://www.w3.org/2000/svg">
<path d="M9.33594 0.863281C10.3971 0.863281 11.4811 1.00977 12.5879 1.30273C13.6816 1.58268 14.5996 1.96029 15.3418 2.43555L12.5781 7.69922C12.1875 7.5625 11.7611 7.45833 11.2988 7.38672C10.8431 7.3151 10.3809 7.2793 9.91211 7.2793C9.20247 7.2793 8.67188 7.37695 8.32031 7.57227C7.97526 7.76758 7.80273 8.05078 7.80273 8.42188C7.80273 8.79297 7.99479 9.07943 8.37891 9.28125C8.76953 9.48307 9.32943 9.58398 10.0586 9.58398C10.5273 9.58398 10.9766 9.53841 11.4062 9.44727C11.8359 9.35612 12.2266 9.22591 12.5781 9.05664L15.3418 14.7012C14.5736 15.1634 13.6296 15.5378 12.5098 15.8242C11.416 16.1042 10.3548 16.2441 9.32617 16.2441C7.67904 16.2441 6.22721 15.9186 4.9707 15.2676C3.71419 14.6165 2.74414 13.6986 2.06055 12.5137C1.37695 11.3353 1.03516 10.0495 1.03516 8.65625C1.03516 7.14583 1.40299 5.78841 2.13867 4.58398C2.87435 3.37956 3.8737 2.45833 5.13672 1.82031C6.41276 1.18229 7.8125 0.863281 9.33594 0.863281ZM23.6621 1.09766V12.2598H29.4434V16H17.0605V1.09766H23.6621ZM44.1895 1.09766L49.3652 16H42.7734L41.9141 13.4805H37.0703L36.2109 16H29.6094L34.7852 1.09766H44.1895ZM38.2715 9.96484H40.7129L39.5117 6.32227H39.4727L38.2715 9.96484ZM57.3828 0.863281C57.8906 0.863281 58.4049 0.889323 58.9258 0.941406C59.4466 0.986979 59.9837 1.05534 60.5371 1.14648C61.0905 1.23763 61.6016 1.3418 62.0703 1.45898C62.5391 1.57617 62.9688 1.70964 63.3594 1.85938L61.7188 6.55664C61.2044 5.86654 60.6315 5.33268 60 4.95508C59.3685 4.57096 58.7077 4.37891 58.0176 4.37891C57.6074 4.37891 57.3112 4.46354 57.1289 4.63281C56.9466 4.79557 56.8555 5.00065 56.8555 5.24805C56.8555 5.48242 57.0312 5.70703 57.3828 5.92188C57.7409 6.13672 58.291 6.38411 59.0332 6.66406C60.9668 7.3737 62.2168 8.08008 62.7832 8.7832C63.3366 9.47331 63.6133 10.3262 63.6133 11.3418C63.6133 12.9238 63.0111 14.138 61.8066 14.9844C60.6087 15.8242 58.8216 16.2441 56.4453 16.2441C55.2083 16.2441 54.0332 16.1595 52.9199 15.9902C51.8066 15.821 50.7129 15.5312 49.6387 15.1211L51.25 10.1406C51.7057 10.8568 52.2819 11.4329 52.9785 11.8691C53.6686 12.3053 54.3359 12.5234 54.9805 12.5234C55.2995 12.5234 55.5632 12.4453 55.7715 12.2891C55.9863 12.1263 56.0938 11.9245 56.0938 11.6836C56.0938 11.3971 55.944 11.1497 55.6445 10.9414C55.3516 10.7266 54.8926 10.4987 54.2676 10.2578C52.7311 9.67839 51.6764 9.05013 51.1035 8.37305C50.5371 7.68945 50.2539 6.85286 50.2539 5.86328C50.2539 4.20312 50.8529 2.95638 52.0508 2.12305C53.2487 1.2832 55.026 0.863281 57.3828 0.863281ZM71.9727 0.863281C72.4805 0.863281 72.9948 0.889323 73.5156 0.941406C74.0365 0.986979 74.5736 1.05534 75.127 1.14648C75.6803 1.23763 76.1914 1.3418 76.6602 1.45898C77.1289 1.57617 77.5586 1.70964 77.9492 1.85938L76.3086 6.55664C75.7943 5.86654 75.2214 5.33268 74.5898 4.95508C73.9583 4.57096 73.2975 4.37891 72.6074 4.37891C72.1973 4.37891 71.901 4.46354 71.7188 4.63281C71.5365 4.79557 71.4453 5.00065 71.4453 5.24805C71.4453 5.48242 71.6211 5.70703 71.9727 5.92188C72.3307 6.13672 72.8809 6.38411 73.623 6.66406C75.5566 7.3737 76.8066 8.08008 77.373 8.7832C77.9264 9.47331 78.2031 10.3262 78.2031 11.3418C78.2031 12.9238 77.6009 14.138 76.3965 14.9844C75.1986 15.8242 73.4115 16.2441 71.0352 16.2441C69.7982 16.2441 68.623 16.1595 67.5098 15.9902C66.3965 15.821 65.3027 15.5312 64.2285 15.1211L65.8398 10.1406C66.2956 10.8568 66.8717 11.4329 67.5684 11.8691C68.2585 12.3053 68.9258 12.5234 69.5703 12.5234C69.8893 12.5234 70.153 12.4453 70.3613 12.2891C70.5762 12.1263 70.6836 11.9245 70.6836 11.6836C70.6836 11.3971 70.5339 11.1497 70.2344 10.9414C69.9414 10.7266 69.4824 10.4987 68.8574 10.2578C67.321 9.67839 66.2663 9.05013 65.6934 8.37305C65.127 7.68945 64.8438 6.85286 64.8438 5.86328C64.8438 4.20312 65.4427 2.95638 66.6406 2.12305C67.8385 1.2832 69.6159 0.863281 71.9727 0.863281ZM85.332 1.09766L87.6367 4.47656L89.9316 1.09766H96.6113L90.9375 9.49609V16H84.3359V9.49609L78.6523 1.09766H85.332ZM110.117 1.09766L112.422 4.47656L114.717 1.09766H121.396L115.723 9.49609V16H109.121V9.49609L103.438 1.09766H110.117ZM136.084 1.09766L141.26 16H134.668L133.809 13.4805H128.965L128.105 16H121.504L126.68 1.09766H136.084ZM130.166 9.96484H132.607L131.406 6.32227H131.367L130.166 9.96484ZM149.111 1.09766L151.807 4.20312L154.512 1.09766H160.908V16H154.307V8.53906L151.807 11.4199L149.307 8.53906V16H142.705V1.09766H149.111ZM176.924 1.09766L182.1 16H175.508L174.648 13.4805H169.805L168.945 16H162.344L167.52 1.09766H176.924ZM171.006 9.96484H173.447L172.246 6.32227H172.207L171.006 9.96484ZM190.127 1.09766V6.55664H193.486V1.09766H200.088V16H193.486V10.4629H190.127V16H183.525V1.09766H190.127ZM216.123 1.09766L221.299 16H214.707L213.848 13.4805H209.004L208.145 16H201.543L206.719 1.09766H216.123ZM210.205 9.96484H212.646L211.445 6.32227H211.406L210.205 9.96484ZM6.75781 25.0977L9.0625 28.4766L11.3574 25.0977H18.0371L12.3633 33.4961V40H5.76172V33.4961L0.078125 25.0977H6.75781ZM25.1855 32.1387C25.1855 32.6074 25.3255 32.985 25.6055 33.2715C25.8919 33.5579 26.2435 33.7012 26.6602 33.7012C27.0768 33.7012 27.4284 33.5579 27.7148 33.2715C28.0013 32.972 28.1445 32.5944 28.1445 32.1387C28.1445 31.9108 28.1055 31.7025 28.0273 31.5137C27.9557 31.3184 27.8548 31.1523 27.7246 31.0156C27.5944 30.8789 27.4349 30.7715 27.2461 30.6934C27.0638 30.6152 26.8652 30.5762 26.6504 30.5762C26.2337 30.5762 25.8854 30.7227 25.6055 31.0156C25.3255 31.3021 25.1855 31.6764 25.1855 32.1387ZM26.6602 24.8633C28.0664 24.8633 29.3587 25.2083 30.5371 25.8984C31.7155 26.5885 32.6367 27.5195 33.3008 28.6914C33.9714 29.8568 34.3066 31.1393 34.3066 32.5391C34.3066 33.9323 33.9714 35.2214 33.3008 36.4062C32.6367 37.5911 31.7155 38.5286 30.5371 39.2188C29.3522 39.9023 28.0599 40.2441 26.6602 40.2441C25.2604 40.2441 23.9714 39.9023 22.793 39.2188C21.6276 38.5417 20.7064 37.6074 20.0293 36.416C19.3587 35.2311 19.0234 33.9388 19.0234 32.5391C19.0234 31.1719 19.3522 29.8958 20.0098 28.7109C20.6673 27.5391 21.5885 26.6048 22.7734 25.9082C23.9583 25.2116 25.2539 24.8633 26.6602 24.8633ZM51.2793 25.0977V31.9922C51.2793 32.8711 51.2077 33.6751 51.0645 34.4043C50.9212 35.1335 50.7031 35.7943 50.4102 36.3867C50.1237 36.9727 49.7591 37.5 49.3164 37.9688C48.8802 38.431 48.3626 38.8379 47.7637 39.1895C46.5723 39.8926 45.2702 40.2441 43.8574 40.2441C42.5358 40.2441 41.276 39.9186 40.0781 39.2676C38.8867 38.6165 37.9818 37.7181 37.3633 36.5723C36.7578 35.4329 36.4551 33.8151 36.4551 31.7188V25.0977H43.0566V32.1191C43.0566 32.7181 43.112 33.1348 43.2227 33.3691C43.3398 33.5905 43.5449 33.7012 43.8379 33.7012C44.0137 33.7012 44.1536 33.6621 44.2578 33.584C44.3685 33.5059 44.4531 33.3822 44.5117 33.2129C44.5768 33.0436 44.6191 32.8255 44.6387 32.5586C44.6647 32.2917 44.6777 31.9694 44.6777 31.5918V25.0977H51.2793ZM66.123 25.0977V31.6992H62.8027V40H56.2012V31.6992H52.8809V25.0977H66.123ZM74.4824 25.0977V30.5566H77.8418V25.0977H84.4434V40H77.8418V34.4629H74.4824V40H67.8809V25.0977H74.4824ZM106.26 25.0977V28.8379H100.596V31.543H104.795V35.2832H100.596V40H94.0039V25.0977H106.26ZM120.146 25.0977V28.8379H114.365V30.6836H118.389V34.4238H114.365V36.2598H120.146V40H107.773V25.0977H120.146ZM128.691 24.8633C129.199 24.8633 129.714 24.8893 130.234 24.9414C130.755 24.987 131.292 25.0553 131.846 25.1465C132.399 25.2376 132.91 25.3418 133.379 25.459C133.848 25.5762 134.277 25.7096 134.668 25.8594L133.027 30.5566C132.513 29.8665 131.94 29.3327 131.309 28.9551C130.677 28.571 130.016 28.3789 129.326 28.3789C128.916 28.3789 128.62 28.4635 128.438 28.6328C128.255 28.7956 128.164 29.0007 128.164 29.248C128.164 29.4824 128.34 29.707 128.691 29.9219C129.049 30.1367 129.6 30.3841 130.342 30.6641C132.275 31.3737 133.525 32.0801 134.092 32.7832C134.645 33.4733 134.922 34.3262 134.922 35.3418C134.922 36.9238 134.32 38.138 133.115 38.9844C131.917 39.8242 130.13 40.2441 127.754 40.2441C126.517 40.2441 125.342 40.1595 124.229 39.9902C123.115 39.821 122.021 39.5312 120.947 39.1211L122.559 34.1406C123.014 34.8568 123.59 35.4329 124.287 35.8691C124.977 36.3053 125.645 36.5234 126.289 36.5234C126.608 36.5234 126.872 36.4453 127.08 36.2891C127.295 36.1263 127.402 35.9245 127.402 35.6836C127.402 35.3971 127.253 35.1497 126.953 34.9414C126.66 34.7266 126.201 34.4987 125.576 34.2578C124.04 33.6784 122.985 33.0501 122.412 32.373C121.846 31.6895 121.562 30.8529 121.562 29.8633C121.562 28.2031 122.161 26.9564 123.359 26.123C124.557 25.2832 126.335 24.8633 128.691 24.8633ZM148.896 25.0977V31.6992H145.576V40H138.975V31.6992H135.654V25.0977H148.896ZM157.354 25.0977V40H150.762V25.0977H157.354ZM165.605 25.0977L167.266 30.0391H167.305L168.965 25.0977H175.547L170.488 40H164.092L159.023 25.0977H165.605ZM190.342 25.0977L195.518 40H188.926L188.066 37.4805H183.223L182.363 40H175.762L180.938 25.0977H190.342ZM184.424 33.9648H186.865L185.664 30.3223H185.625L184.424 33.9648ZM203.584 25.0977V36.2598H209.365V40H196.982V25.0977H203.584Z" fill="#C0E7F5"/>
</svg>
