<svg width="32" height="32" viewBox="0 0 32 32" fill="none" xmlns="http://www.w3.org/2000/svg">
<rect width="32" height="32" rx="16" fill="#FF0000"/>
<path fill-rule="evenodd" clip-rule="evenodd" d="M20.3395 15.9999C20.3395 15.7359 20.2252 15.5474 19.9967 15.4343L14.4361 11.9654C14.2076 11.8146 13.9791 11.8146 13.7125 11.9654C13.484 12.0785 13.3697 12.2671 13.3697 12.5687V19.431C13.3697 19.7326 13.484 19.9212 13.7125 20.0343C13.8268 20.1097 13.941 20.1474 14.0553 20.1474C14.2076 20.1474 14.3219 20.1097 14.4361 20.0343L19.9967 16.5654C20.2252 16.4523 20.3395 16.2638 20.3395 15.9999ZM25.9 15.9999C25.9 16.6785 25.9 17.2441 25.9 17.6212C25.9 17.9982 25.8619 18.4884 25.7857 19.0917C25.7477 19.6949 25.6715 20.2228 25.5572 20.6753C25.443 21.2031 25.1764 21.6556 24.7955 21.9949C24.4146 22.372 23.9576 22.5605 23.4625 22.6359C21.8248 22.7867 19.4254 22.8999 16.15 22.8999C12.8746 22.8999 10.4752 22.7867 8.8375 22.6359C8.34238 22.5605 7.88535 22.372 7.50449 21.9949C7.12363 21.6556 6.85703 21.2031 6.74277 20.6753C6.62852 20.2228 6.55235 19.6949 6.51426 19.0917C6.43809 18.4884 6.4 17.9982 6.4 17.6212C6.4 17.2441 6.4 16.6785 6.4 15.9999C6.4 15.3212 6.4 14.7556 6.4 14.3785C6.4 14.0015 6.43809 13.5113 6.51426 12.9081C6.55235 12.3048 6.62852 11.7769 6.74277 11.3244C6.85703 10.7966 7.12363 10.3441 7.50449 10.0048C7.88535 9.62772 8.34238 9.4392 8.8375 9.36379C10.4752 9.21297 12.8746 9.09985 16.15 9.09985C19.4254 9.09985 21.8248 9.21297 23.4625 9.36379C23.9576 9.4392 24.4146 9.62772 24.7955 10.0048C25.1764 10.3441 25.443 10.7966 25.5572 11.3244C25.6715 11.7769 25.7477 12.3048 25.7857 12.9081C25.8619 13.5113 25.9 14.0015 25.9 14.3785C25.9 14.7556 25.9 15.3212 25.9 15.9999Z" fill="white"/>
</svg>
