<?xml version="1.0" standalone="no"?>
<!DOCTYPE svg PUBLIC "-//W3C//DTD SVG 20010904//EN"
 "http://www.w3.org/TR/2001/REC-SVG-20010904/DTD/svg10.dtd">
<svg version="1.0" xmlns="http://www.w3.org/2000/svg"
 width="580.000000pt" height="580.000000pt" viewBox="0 0 580.000000 580.000000"
 preserveAspectRatio="xMidYMid meet">
<metadata>
Created by potrace 1.14, written by Peter Selinger 2001-2017
</metadata>
<g transform="translate(0.000000,580.000000) scale(0.100000,-0.100000)"
fill="#000000" stroke="none">
<path d="M2698 5795 c-2 -2 -52 -6 -112 -9 -60 -4 -123 -8 -140 -11 -17 -2
-53 -7 -81 -10 -348 -41 -618 -114 -828 -223 -108 -56 -158 -130 -151 -224 4
-45 7 -62 14 -68 15 -14 141 -371 134 -381 -4 -7 -3 -9 3 -6 9 6 23 -12 23
-27 0 -2 -30 -22 -66 -46 -162 -104 -354 -270 -505 -437 -124 -135 -276 -359
-364 -532 l-46 -92 -67 36 c-36 19 -68 33 -70 30 -3 -3 -6 -107 -7 -232 -1
-174 -5 -242 -17 -288 -9 -33 -19 -73 -22 -90 -3 -16 -7 -39 -9 -50 -3 -11 -8
-40 -12 -65 -4 -25 -9 -53 -11 -64 -15 -81 -19 -163 -18 -376 2 -227 7 -327
19 -338 3 -3 -1 -12 -8 -20 -7 -10 -8 -13 -1 -9 10 6 20 -34 30 -123 1 -8 3
-17 4 -20 17 -47 22 -220 6 -239 -7 -10 -7 -13 0 -8 7 4 11 -18 11 -68 0 -47
-4 -75 -11 -75 -8 0 -8 -2 0 -8 6 -4 11 -38 11 -77 1 -164 -1 -154 35 -151 19
2 41 -4 53 -13 15 -13 17 -13 8 -1 -10 13 -4 15 48 15 55 0 60 -1 73 -29 8
-17 12 -34 9 -40 -3 -5 -1 -6 5 -2 7 4 12 2 12 -4 0 -7 9 -25 21 -41 11 -16
17 -34 13 -40 -4 -8 -3 -9 5 -5 12 8 32 -33 23 -49 -3 -5 -2 -7 3 -3 11 11 38
-29 29 -44 -4 -6 -3 -8 3 -5 9 6 55 -55 55 -73 1 -3 11 -14 24 -25 13 -11 24
-26 24 -33 0 -7 5 -12 10 -12 6 0 10 -7 10 -17 0 -9 3 -13 7 -10 3 4 17 -9 31
-29 13 -20 32 -44 41 -54 76 -82 100 -108 114 -130 9 -13 17 -21 17 -17 0 5 7
2 15 -7 8 -8 15 -19 15 -25 0 -6 6 -11 13 -11 14 0 53 -41 49 -52 -1 -5 4 -8
11 -8 6 0 31 -18 55 -40 23 -22 42 -37 42 -32 0 4 4 2 8 -4 4 -6 39 -34 77
-63 39 -29 69 -57 68 -62 -2 -4 3 -6 10 -3 7 2 22 -5 34 -16 12 -11 25 -20 29
-20 3 0 26 -13 51 -30 24 -16 48 -30 53 -30 5 0 14 -8 19 -18 6 -9 11 -13 11
-9 0 4 9 3 20 -3 11 -6 18 -15 15 -20 -3 -4 3 -7 12 -5 18 2 75 -24 81 -37 2
-5 8 -8 13 -8 11 0 102 -41 109 -49 3 -3 13 -7 24 -9 10 -2 30 -8 45 -14 14
-6 31 -12 36 -14 23 -6 110 -39 115 -44 5 -5 21 -9 60 -16 36 -6 134 -37 140
-43 3 -3 23 -7 45 -8 21 -1 46 -5 55 -9 8 -4 32 -7 53 -7 20 -1 37 -4 37 -9 0
-4 7 -4 17 -1 12 5 14 3 8 -8 -8 -12 -6 -12 8 0 9 7 17 10 17 5 0 -5 26 -10
58 -12 103 -5 120 -7 127 -14 4 -3 19 -2 35 2 16 4 31 6 34 3 3 -3 25 -6 48
-7 30 -1 42 -5 40 -14 -1 -8 2 -11 8 -7 6 3 8 11 4 16 -3 6 15 9 48 9 29 -1
65 0 81 3 15 2 27 0 27 -4 0 -11 23 -7 33 6 4 6 11 4 17 -5 7 -11 10 -11 10
-2 0 7 8 12 18 11 9 -1 19 0 22 1 3 2 23 3 45 4 22 1 46 6 54 10 10 7 12 5 6
-5 -7 -12 -6 -12 7 -1 9 7 41 14 71 15 30 1 52 6 49 11 -3 5 2 7 11 3 9 -3 19
-2 22 3 3 4 16 7 30 5 14 -1 25 1 25 4 0 8 92 32 132 34 14 1 24 6 20 11 -3 5
9 6 29 3 19 -4 28 -3 22 1 -9 5 0 12 25 21 77 26 219 83 266 106 38 19 53 22
63 13 11 -8 12 -7 7 6 -3 9 -1 16 5 16 6 0 29 11 51 25 42 27 66 32 54 13 -4
-7 -3 -8 4 -4 6 4 9 13 6 21 -4 10 0 13 15 10 12 -2 19 0 16 5 -3 5 3 14 14
19 24 13 34 14 27 3 -3 -5 1 -9 9 -9 11 0 12 4 4 13 -8 9 -5 16 11 24 11 6 25
8 30 5 5 -3 12 0 16 6 4 8 3 9 -4 5 -7 -4 -12 -3 -12 2 0 5 8 12 18 16 20 6
50 25 70 44 7 7 18 9 24 6 7 -4 8 -2 4 4 -6 11 31 38 47 34 4 -1 7 2 7 6 0 5
27 32 61 60 52 45 64 50 82 41 20 -9 20 -9 5 4 -16 13 -12 19 50 78 37 35 70
63 75 61 4 -1 7 2 7 8 0 15 33 50 42 44 4 -3 8 1 8 8 1 7 17 31 36 53 20 22
33 34 28 26 -5 -9 -3 -12 5 -7 6 4 9 11 6 16 -8 12 23 33 37 24 10 -6 10 -5 0
8 -11 14 -10 18 8 28 11 6 18 14 16 19 -3 4 3 15 12 24 26 24 47 51 45 57 -3
10 19 30 28 24 5 -3 6 2 3 10 -3 9 -2 16 2 16 5 0 15 13 22 28 6 16 20 37 30
48 10 10 19 24 20 29 1 6 6 10 11 10 5 0 13 4 18 9 5 5 3 6 -4 2 -15 -8 -17 3
-4 23 5 8 14 10 22 5 12 -6 12 -5 0 9 -9 11 -10 17 -2 17 6 0 11 7 11 16 0 8
4 13 9 10 5 -3 8 2 7 12 0 9 5 16 12 14 8 -1 11 2 7 9 -4 6 -2 21 5 33 9 17
19 22 38 20 49 -6 91 8 127 40 19 18 35 40 35 49 0 9 4 18 10 22 5 3 7 12 3
20 -3 9 0 21 6 29 6 7 8 16 4 20 -11 11 -13 376 -3 411 5 17 12 44 14 60 3 17
10 59 16 95 20 127 25 197 25 395 0 182 -8 346 -19 363 -2 4 -6 30 -10 57 -3
28 -10 73 -16 100 -6 28 -13 62 -15 76 -2 14 -10 39 -16 55 -7 17 -13 97 -15
201 -1 94 -5 176 -8 181 -3 5 -29 8 -57 7 l-51 -2 -44 91 c-172 355 -429 672
-744 916 -25 19 -50 39 -56 45 -13 11 -6 48 7 39 5 -3 6 1 3 9 -3 8 0 18 5 22
6 3 9 10 6 15 -7 12 16 60 26 54 5 -3 6 2 3 11 -4 8 -1 22 6 30 7 8 9 15 4 15
-4 0 -3 5 4 12 7 7 12 17 12 24 0 6 8 29 17 50 9 22 17 41 18 44 8 41 17 60
27 54 6 -4 8 -3 5 3 -8 13 14 84 24 78 4 -3 5 4 2 15 -3 12 0 20 8 20 7 0 10
3 6 6 -3 3 0 22 7 42 16 46 14 106 -6 153 -55 129 -433 272 -878 334 -25 3
-56 8 -70 10 -23 3 -65 8 -225 22 -59 5 -712 13 -717 8z"/>
<path d="M593 1465 c0 -8 4 -12 9 -9 5 3 6 10 3 15 -9 13 -12 11 -12 -6z"/>
<path d="M4719 813 c-13 -16 -12 -17 4 -4 16 13 21 21 13 21 -2 0 -10 -8 -17
-17z"/>
<path d="M1293 615 c0 -8 4 -12 9 -9 5 3 6 10 3 15 -9 13 -12 11 -12 -6z"/>
<path d="M4495 620 c3 -5 8 -10 11 -10 2 0 4 5 4 10 0 6 -5 10 -11 10 -5 0 -7
-4 -4 -10z"/>
<path d="M3955 289 c-4 -6 -5 -12 -2 -15 2 -3 7 2 10 11 7 17 1 20 -8 4z"/>
<path d="M2046 198 c3 -5 10 -6 15 -3 13 9 11 12 -6 12 -8 0 -12 -4 -9 -9z"/>
<path d="M3595 160 c-3 -5 -1 -10 4 -10 6 0 11 5 11 10 0 6 -2 10 -4 10 -3 0
-8 -4 -11 -10z"/>
<path d="M2440 106 c0 -2 7 -7 16 -10 8 -3 12 -2 9 4 -6 10 -25 14 -25 6z"/>
<path d="M3176 73 c-6 -14 -5 -15 5 -6 7 7 10 15 7 18 -3 3 -9 -2 -12 -12z"/>
<path d="M2616 53 c-6 -14 -5 -15 5 -6 7 7 10 15 7 18 -3 3 -9 -2 -12 -12z"/>
<path d="M2690 66 c0 -2 7 -7 16 -10 8 -3 12 -2 9 4 -6 10 -25 14 -25 6z"/>
</g>
</svg>
