<?xml version="1.0" standalone="no"?>
<!DOCTYPE svg PUBLIC "-//W3C//DTD SVG 20010904//EN"
 "http://www.w3.org/TR/2001/REC-SVG-20010904/DTD/svg10.dtd">
<svg version="1.0" xmlns="http://www.w3.org/2000/svg"
 width="355.000000pt" height="355.000000pt" viewBox="0 0 355.000000 355.000000"
 preserveAspectRatio="xMidYMid meet">
<metadata>
Created by potrace 1.14, written by Peter Selinger 2001-2017
</metadata>
<g transform="translate(0.000000,355.000000) scale(0.100000,-0.100000)"
fill="#000000" stroke="none">
<path d="M1304 2780 c-196 -41 -331 -245 -297 -447 8 -44 92 -260 269 -686
142 -342 259 -624 261 -626 2 -2 5 -2 7 0 2 2 54 309 116 683 120 732 120 731
78 844 -27 73 -113 163 -191 202 -69 33 -170 46 -243 30z"/>
<path d="M2118 2780 c-64 -11 -144 -50 -195 -94 -59 -52 -112 -161 -120 -248
l-6 -68 74 0 c105 0 114 -10 46 -53 -43 -28 -58 -45 -72 -81 l-18 -46 87 -557
c47 -307 90 -571 95 -588 l8 -30 11 25 c5 14 125 297 266 630 193 455 259 621
266 668 30 213 -110 407 -320 441 -36 6 -67 10 -70 10 -3 -1 -26 -5 -52 -9z"/>
<path d="M576 2305 c-53 -19 -135 -77 -169 -120 -16 -20 -40 -61 -55 -93 -24
-50 -27 -69 -27 -162 0 -97 2 -110 31 -170 17 -37 50 -84 75 -107 49 -48 1096
-766 1109 -761 12 5 -493 1219 -528 1271 -71 103 -179 157 -312 156 -47 0
-103 -6 -124 -14z"/>
<path d="M2735 2302 c-69 -24 -140 -75 -179 -129 -35 -48 -44 -69 -352 -798
-111 -264 -200 -482 -198 -484 2 -3 251 160 553 362 365 243 561 380 586 409
173 199 111 517 -123 626 -75 35 -210 42 -287 14z"/>
<path d="M317 1540 c-27 -5 -73 -20 -103 -35 -284 -139 -281 -568 5 -708 l66
-32 690 -3 c595 -2 688 -1 675 11 -44 42 -1073 724 -1120 743 -65 26 -147 35
-213 24z"/>
<path d="M3090 1536 c-30 -6 -66 -18 -80 -25 -47 -23 -1109 -736 -1110 -744 0
-4 307 -6 683 -5 l682 3 67 32 c81 38 146 102 185 181 26 52 28 66 28 172 0
104 -3 121 -27 172 -54 115 -156 194 -282 217 -70 13 -75 13 -146 -3z"/>
</g>
</svg>
