<svg width="399" height="444" viewBox="0 0 399 444" fill="none" xmlns="http://www.w3.org/2000/svg">
<g filter="url(#filter0_d_601_21179)">
<path d="M199.001 436C306.697 436 394.002 348.44 394.002 240.429C394.002 132.419 306.697 44.8586 199.001 44.8586C91.305 44.8586 4 132.419 4 240.429C4 348.44 91.305 436 199.001 436Z" fill="white"/>
<path fill-rule="evenodd" clip-rule="evenodd" d="M169.923 222.374C169.9 244.163 169.357 272.606 170.444 292.339C171.524 311.987 180.227 308.08 197.761 297.615C201.838 295.182 206.442 292.391 211.629 289.446C224.168 282.333 236.593 275.015 249.085 267.809C266.626 257.69 271.858 253.294 249.612 239.526C230.03 227.405 209.103 216.055 189.087 204.511C171.842 194.388 169.923 206.71 169.923 222.374Z" fill="#D33F44"/>
<path fill-rule="evenodd" clip-rule="evenodd" d="M127.466 218.114L64.3395 202.637C67.7552 194.678 69.7277 192.481 68.0814 183.675C63.229 157.689 35.0977 161.011 35.2208 186.451C35.2511 193.417 37.1393 198.292 40.609 202.91C44.4525 208.034 51.7505 209.575 59.0183 211.356C74.3835 215.128 89.7573 218.909 105.131 222.681L100.426 270.446L58.8303 260.338C62.5809 252.102 64.2574 248.046 62.2395 239.316C58.1476 221.643 40.9417 217.379 33.1684 230.508C26.1102 242.434 30.1243 262.205 43.1929 266.652C51.5863 269.505 116.08 284.991 121.002 285.637L127.462 218.114H127.466ZM56.6677 233.513C48.795 229.071 37.552 233.606 33.2181 242.919C32.356 229.177 51.0289 219.986 56.6677 233.513ZM61.6065 176.655C53.7338 172.215 42.4908 176.752 38.1569 186.065C37.2949 172.321 55.9612 163.128 61.6065 176.655Z" fill="#D33F44"/>
<path fill-rule="evenodd" clip-rule="evenodd" d="M276.104 168.009C275.46 170.393 275.172 172.007 275.233 174.752C275.326 178.622 277.538 184.763 279.954 188.691L322.837 170.352C330.182 166.302 338.42 167.205 343.73 169.351C349.879 171.827 354.701 175.818 358.329 184.485C362.04 193.363 361.947 199.083 359.454 205.67C357.194 211.622 352.474 216.898 344.026 220.45C344.003 220.4 343.979 220.356 343.957 220.309L301.251 238.57C301.757 240.926 302.517 242.21 304.155 245.948C307.891 254.468 316.392 259.217 325.974 257.389C328.892 256.836 333.544 254.57 336.471 253.296C339.826 251.844 342.333 249.85 344.236 247.536C348.568 242.275 348.816 237.526 348.298 231.346C353.856 228.488 356.263 227.81 360.729 223.769C367.027 218.057 370.645 211.063 372.244 202.977C372.834 199.978 373.02 196.864 372.756 193.67C372.709 193.083 372.64 192.585 372.586 191.95C372.577 191.896 372.523 191.265 372.516 191.202C372.508 189.733 372.43 192.479 372.54 190.704L372.609 190.197L372.315 189.688C368.293 174.484 362.509 165.949 351.499 160.029C344.372 156.198 335.931 155.046 327.568 156.482C323.811 157.126 321.303 158.584 317.777 159.682C313.071 153.659 307.558 151 300.446 151.421C296.369 151.661 286.074 155.867 282.859 158.406C279.902 160.742 277.097 164.321 276.104 168.003V168.009ZM311.581 157.477C302.208 155.702 296.449 158.064 288.645 162.547C280.803 167.041 280.524 175.905 281.602 184.6C277.097 176.876 277.16 165.739 287.286 159.49C292.605 156.2 306.441 151.384 311.581 157.477ZM345.489 231.736C348.447 239.142 337.724 249.144 332.336 252.325C322.087 258.368 312.25 253.209 307.551 245.593C314.702 250.626 322.646 254.533 330.286 249.686C337.88 244.865 342.663 240.871 345.489 231.736Z" fill="#FCCD0E"/>
<path fill-rule="evenodd" clip-rule="evenodd" d="M324.688 175.14L325.215 176.375C325.673 177.454 325.168 178.715 324.09 179.175L285.413 195.716C284.333 196.175 283.075 195.67 282.617 194.587L282.097 193.356C281.63 192.271 282.136 191.012 283.216 190.548L321.89 174.011C322.971 173.552 324.228 174.059 324.686 175.14H324.688Z" fill="#FCCD0E"/>
<path fill-rule="evenodd" clip-rule="evenodd" d="M341.125 213.795L341.646 215.03C342.112 216.11 341.598 217.371 340.526 217.834L301.852 234.371C300.765 234.835 299.514 234.326 299.056 233.242L298.529 232.007C298.071 230.928 298.577 229.667 299.655 229.208L338.329 212.667C339.409 212.207 340.667 212.714 341.125 213.795Z" fill="#FCCD0E"/>
<path fill-rule="evenodd" clip-rule="evenodd" d="M142.732 254.721C149.006 254.721 154.092 259.818 154.092 266.11C154.092 272.402 149.006 277.499 142.732 277.499C136.458 277.499 131.372 272.402 131.372 266.11C131.372 259.818 136.458 254.721 142.732 254.721Z" fill="#089B65"/>
<path fill-rule="evenodd" clip-rule="evenodd" d="M129.881 286.742C133.79 286.742 136.955 289.918 136.955 293.834C136.955 297.749 133.788 300.926 129.881 300.926C125.975 300.926 122.815 297.749 122.815 293.834C122.815 289.918 125.982 286.742 129.881 286.742Z" fill="#5477B5"/>
<path fill-rule="evenodd" clip-rule="evenodd" d="M136.884 388.333C140.792 388.333 143.957 391.51 143.957 395.425C143.957 399.34 140.79 402.517 136.884 402.517C132.977 402.517 129.817 399.34 129.817 395.425C129.817 391.51 132.984 388.333 136.884 388.333Z" fill="#5477B5"/>
<path fill-rule="evenodd" clip-rule="evenodd" d="M184.504 325.297C191.338 325.297 196.882 330.851 196.882 337.702C196.882 344.554 191.338 350.111 184.504 350.111C177.671 350.111 172.136 344.556 172.136 337.702C172.136 330.849 177.679 325.297 184.504 325.297Z" fill="#D33F44"/>
<path d="M286.145 272.764C293.427 272.764 299.331 266.844 299.331 259.54C299.331 252.237 293.427 246.317 286.145 246.317C278.863 246.317 272.96 252.237 272.96 259.54C272.96 266.844 278.863 272.764 286.145 272.764Z" fill="#A2356F"/>
<path fill-rule="evenodd" clip-rule="evenodd" d="M243.725 197.571C250.558 197.571 256.093 203.126 256.093 209.975C256.093 216.825 250.556 222.385 243.725 222.385C236.893 222.385 231.356 216.829 231.356 209.975C231.356 203.122 236.893 197.571 243.725 197.571Z" fill="#D33F44"/>
<path d="M202.549 177.743C202.72 170.894 197.322 165.204 190.493 165.033C183.664 164.862 177.99 170.275 177.82 177.124C177.649 183.973 183.047 189.664 189.876 189.835C196.705 190.006 202.379 184.592 202.549 177.743Z" fill="#A2356F"/>
<path d="M105.594 205.759C114.792 205.759 122.249 198.28 122.249 189.055C122.249 179.83 114.792 172.352 105.594 172.352C96.3952 172.352 88.9385 179.83 88.9385 189.055C88.9385 198.28 96.3952 205.759 105.594 205.759Z" fill="#F0952B"/>
<path fill-rule="evenodd" clip-rule="evenodd" d="M318.654 127.811C323.865 127.811 328.08 132.043 328.08 137.265C328.08 142.487 323.865 146.723 318.654 146.723C313.443 146.723 309.228 142.487 309.228 137.265C309.228 132.043 313.445 127.811 318.654 127.811Z" fill="#D33F44"/>
<path fill-rule="evenodd" clip-rule="evenodd" d="M307.605 91.5592C309.802 91.5592 311.604 93.3663 311.604 95.5742V103.405H319.417C321.622 103.405 323.422 105.212 323.422 107.422C323.422 109.63 321.62 111.439 319.417 111.439H311.604V119.27C311.604 121.478 309.802 123.285 307.605 123.285C305.399 123.285 303.6 121.478 303.6 119.27V111.439H295.79C293.593 111.439 291.791 109.628 291.791 107.422C291.791 105.21 293.593 103.405 295.79 103.405H303.6V95.5742C303.6 93.3663 305.402 91.5592 307.605 91.5592Z" fill="#F0952B"/>
<path fill-rule="evenodd" clip-rule="evenodd" d="M177.347 57.9893V57.9936C179.334 59.6209 179.637 62.5872 178.008 64.585L172.246 71.6551L179.304 77.4339C181.292 79.0655 181.594 82.0318 179.965 84.0252V84.0296C178.343 86.023 175.383 86.322 173.395 84.6948L166.337 78.916L160.575 85.9905C158.953 87.9883 155.995 88.2873 154.007 86.6557C152.02 85.0241 151.717 82.0621 153.34 80.06L159.102 72.9855L152.052 67.2111C150.064 65.5838 149.762 62.6175 151.385 60.6198C153.016 58.622 155.965 58.323 157.961 59.9502L165.011 65.7312L170.772 58.6523C172.395 56.6589 175.353 56.3599 177.349 57.9871L177.347 57.9893Z" fill="#F0952B"/>
<path fill-rule="evenodd" clip-rule="evenodd" d="M66.0744 113.567H66.083C69.3215 113.236 72.2317 115.628 72.5665 118.869L73.7159 130.379L85.1923 129.22C88.4373 128.888 91.3496 131.276 91.6758 134.524V134.528C92.0021 137.776 89.6255 140.699 86.387 141.027L74.9107 142.188L76.0665 153.698C76.3927 156.946 74.0162 159.873 70.7777 160.196H70.769C67.5392 160.523 64.6204 158.14 64.2941 154.892L63.1361 143.382L51.6598 144.545C48.4212 144.873 45.5111 142.485 45.1762 139.235C44.85 135.987 47.2265 133.064 50.4715 132.737L61.9392 131.577L60.7834 120.067C60.4572 116.819 62.8401 113.896 66.07 113.569L66.0744 113.567Z" fill="#D33F44"/>
<path fill-rule="evenodd" clip-rule="evenodd" d="M48.6394 283.234C51.878 282.907 54.7968 285.295 55.123 288.54L56.2788 300.05L67.7552 298.887C71.0002 298.555 73.9125 300.947 74.2388 304.193C74.565 307.441 72.1885 310.364 68.9435 310.691L57.4757 311.855L58.6316 323.36C58.9578 326.613 56.5748 329.536 53.3449 329.863H53.3363C50.1064 330.19 47.1876 327.802 46.8614 324.556L45.6969 313.047L34.2292 314.21C30.9906 314.537 28.0719 312.15 27.7456 308.904C27.4194 305.654 29.8024 302.733 33.0409 302.401L44.5086 301.24L43.3506 289.73C43.0244 286.482 45.4074 283.563 48.6394 283.232V283.234Z" fill="#D33F44"/>
<path fill-rule="evenodd" clip-rule="evenodd" d="M365.78 295.632V295.637C363.287 297.732 359.536 297.4 357.441 294.9L350.041 286.033L341.198 293.465C338.705 295.561 334.955 295.229 332.868 292.729V292.724C330.778 290.224 331.105 286.462 333.598 284.365L342.443 276.939L335.034 268.071C332.939 265.57 333.272 261.809 335.765 259.716C338.258 257.616 342.008 257.948 344.104 260.453L351.512 269.319L360.349 261.887C362.842 259.792 366.592 260.123 368.679 262.626C370.768 265.126 370.442 268.883 367.949 270.981L359.104 278.411L366.519 287.277C368.608 289.778 368.273 293.539 365.782 295.632H365.78Z" fill="#F0952B"/>
<path fill-rule="evenodd" clip-rule="evenodd" d="M369.803 234.958C373.048 234.958 375.673 237.591 375.673 240.841C375.673 244.091 373.048 246.719 369.803 246.719C366.558 246.719 363.941 244.091 363.941 240.841C363.941 237.591 366.566 234.958 369.803 234.958Z" fill="#D33F44"/>
<path fill-rule="evenodd" clip-rule="evenodd" d="M283.622 401.109C280.772 401.176 278.394 398.892 278.327 396.036L278.106 385.913L268.011 386.143C265.161 386.208 262.782 383.922 262.722 381.068H262.715C262.655 378.21 264.93 375.82 267.779 375.753L277.869 375.532L277.642 365.407C277.581 362.549 279.856 360.163 282.706 360.098C285.556 360.033 287.934 362.319 288.001 365.173L288.228 375.298L298.318 375.068C301.161 375.003 303.546 377.289 303.606 380.143C303.667 382.999 301.398 385.386 298.549 385.451L288.453 385.679L288.686 395.802C288.747 398.658 286.467 401.046 283.622 401.106V401.109Z" fill="#089B65"/>
<path fill-rule="evenodd" clip-rule="evenodd" d="M218.583 337.912C216.907 337.951 215.501 336.604 215.462 334.922L215.33 328.953L209.373 329.089C207.697 329.124 206.29 327.781 206.252 326.095C206.213 324.413 207.556 322.999 209.242 322.964L215.189 322.827L215.058 316.858C215.019 315.177 216.363 313.766 218.039 313.731H218.048C219.718 313.692 221.122 315.036 221.17 316.721L221.301 322.693L227.249 322.557C228.926 322.518 230.332 323.865 230.371 325.547C230.41 327.232 229.066 328.639 227.39 328.68L221.435 328.812L221.567 334.781C221.606 336.463 220.262 337.873 218.586 337.908L218.583 337.912Z" fill="#FCCD0E"/>
<path fill-rule="evenodd" clip-rule="evenodd" d="M173.037 389.854C171.498 389.057 170.893 387.144 171.693 385.61L174.512 380.158L169.077 377.33C167.54 376.537 166.942 374.624 167.733 373.09C168.532 371.547 170.435 370.945 171.972 371.738L177.399 374.568L180.218 369.112C181.011 367.578 182.921 366.975 184.45 367.773C185.989 368.57 186.585 370.479 185.794 372.017L182.975 377.469L188.41 380.292C189.94 381.09 190.545 382.999 189.746 384.537C188.953 386.075 187.052 386.682 185.513 385.885L180.086 383.057L177.267 388.504C176.467 390.043 174.564 390.65 173.034 389.852L173.037 389.854Z" fill="#116F73"/>
<path fill-rule="evenodd" clip-rule="evenodd" d="M266.003 225.886H265.995C264.612 223.767 265.211 220.894 267.323 219.509L274.816 214.595L269.91 207.081C268.527 204.961 269.125 202.097 271.238 200.71C273.349 199.319 276.216 199.919 277.599 202.034L282.499 209.549L289.991 204.628C292.104 203.245 294.96 203.841 296.343 205.96L296.351 205.965C297.734 208.084 297.136 210.953 295.023 212.339L287.53 217.26L292.437 224.768C293.819 226.887 293.221 229.752 291.11 231.143C288.999 232.529 286.132 231.933 284.75 229.814L279.85 222.3L272.357 227.221C270.247 228.607 267.388 228.007 266.006 225.888L266.003 225.886Z" fill="#F0952B"/>
<path fill-rule="evenodd" clip-rule="evenodd" d="M127.879 214.957V214.953C126.66 213.083 127.187 210.552 129.052 209.33L135.659 204.992L131.327 198.366C130.108 196.496 130.635 193.969 132.5 192.743C134.364 191.517 136.894 192.045 138.113 193.915L142.429 200.541L149.038 196.199C150.903 194.977 153.424 195.501 154.651 197.371V197.376C155.87 199.246 155.342 201.776 153.478 202.998L146.869 207.341L151.194 213.964C152.413 215.837 151.894 218.365 150.03 219.587C148.159 220.814 145.636 220.287 144.417 218.419L140.092 211.793L133.483 216.131C131.618 217.358 129.097 216.825 127.877 214.959L127.879 214.957Z" fill="#FCCD0E"/>
<path fill-rule="evenodd" clip-rule="evenodd" d="M69.1941 248.596V248.592C68.3018 247.224 68.6907 245.376 70.0475 244.479L74.8761 241.313L71.7153 236.466C70.8231 235.103 71.2033 233.253 72.5687 232.362V232.358C73.9363 231.459 75.7748 231.849 76.6693 233.21L79.83 238.057L84.6587 234.88C86.0262 233.992 87.8648 234.373 88.7592 235.745C89.6515 237.112 89.2648 238.96 87.9058 239.857L83.075 243.032L86.2358 247.872C87.1281 249.239 86.7478 251.083 85.3824 251.985C84.0235 252.877 82.1763 252.492 81.2819 251.125L78.1211 246.282L73.2903 249.456C71.9227 250.351 70.0842 249.965 69.1898 248.6L69.1941 248.596Z" fill="#819477"/>
<path fill-rule="evenodd" clip-rule="evenodd" d="M209.585 203.388C208.693 202.021 209.073 200.173 210.439 199.276L215.267 196.106L212.1 191.263C211.208 189.896 211.597 188.048 212.953 187.155V187.151C214.321 186.256 216.168 186.644 217.06 188.007L220.212 192.849L225.05 189.675C226.409 188.784 228.249 189.168 229.142 190.535H229.148C230.034 191.902 229.654 193.755 228.286 194.648L223.457 197.822L226.625 202.663C227.517 204.03 227.128 205.878 225.771 206.775C224.406 207.67 222.557 207.286 221.664 205.919L218.512 201.076L213.681 204.246C212.316 205.141 210.475 204.756 209.581 203.391L209.585 203.388Z" fill="#819477"/>
<path fill-rule="evenodd" clip-rule="evenodd" d="M237.546 287.726C240.962 287.726 243.727 290.501 243.727 293.927C243.727 297.353 240.964 300.13 237.546 300.13C234.128 300.13 231.358 297.355 231.358 293.927C231.358 290.499 234.13 287.726 237.546 287.726Z" fill="#D33F44"/>
<path fill-rule="evenodd" clip-rule="evenodd" d="M327.088 345.724C332.142 345.724 336.234 349.836 336.234 354.902C336.234 359.968 332.142 364.076 327.088 364.076C322.035 364.076 317.941 359.968 317.941 354.902C317.941 349.836 322.041 345.724 327.088 345.724Z" fill="#089B65"/>
<path fill-rule="evenodd" clip-rule="evenodd" d="M176.493 227.346C176.826 224.566 176.329 218.196 177.191 213.925C178.861 205.718 186.486 210.472 190.981 213.148L210.782 224.917C203.694 222.714 195.696 220.629 188.838 218.014C185.973 216.92 184.18 215.958 182.765 216.66C181.4 217.338 177.5 225.502 176.491 227.349L176.493 227.346Z" fill="white"/>
<path fill-rule="evenodd" clip-rule="evenodd" d="M245.784 244.49C247.376 245.671 251.459 247.588 253.782 249.621C258.239 253.523 252.647 256.567 249.426 258.414L235.271 266.519C239.106 262.91 243.183 258.702 247.197 255.384C248.867 253.993 250.085 253.224 250.148 252.106C250.21 251.027 246.568 245.755 245.784 244.49Z" fill="white"/>
<path fill-rule="evenodd" clip-rule="evenodd" d="M279.738 71.7982C282.976 71.7982 285.599 74.4309 285.599 77.681C285.599 80.9312 282.974 83.5638 279.738 83.5638C276.501 83.5638 273.868 80.9268 273.868 77.681C273.868 74.4352 276.499 71.7982 279.738 71.7982Z" fill="#D33F44"/>
<path fill-rule="evenodd" clip-rule="evenodd" d="M263.599 139.419C266.837 139.419 269.46 142.051 269.46 145.302C269.46 148.552 266.835 151.184 263.599 151.184C260.362 151.184 257.729 148.547 257.729 145.302C257.729 142.056 260.36 139.419 263.599 139.419Z" fill="#D33F44"/>
<path fill-rule="evenodd" clip-rule="evenodd" d="M210.974 54.8995C214.213 54.8995 216.844 57.5365 216.844 60.7823C216.844 64.0281 214.213 66.6651 210.974 66.6651C207.736 66.6651 205.111 64.0325 205.111 60.7823C205.111 57.5322 207.736 54.8995 210.974 54.8995Z" fill="#D33F44"/>
<path fill-rule="evenodd" clip-rule="evenodd" d="M341.35 179.417C344.588 179.417 347.219 182.05 347.219 185.296C347.219 188.542 344.588 191.179 341.35 191.179C338.111 191.179 335.488 188.546 335.488 185.296C335.488 182.046 338.113 179.417 341.35 179.417Z" fill="#ED3330"/>
<path fill-rule="evenodd" clip-rule="evenodd" d="M315.02 197.594C315.526 198.396 315.277 199.464 314.476 199.965L311.65 201.753L313.428 204.591C313.933 205.393 313.691 206.461 312.892 206.961C312.093 207.468 311.027 207.221 310.531 206.424L308.744 203.586L305.918 205.369C305.119 205.872 304.054 205.631 303.55 204.832C303.053 204.03 303.293 202.959 304.095 202.461L306.92 200.673L305.142 197.835C304.637 197.033 304.879 195.965 305.678 195.465C306.478 194.962 307.543 195.205 308.046 196.006L309.824 198.84L312.65 197.057C313.449 196.554 314.514 196.797 315.018 197.594H315.02Z" fill="#FCCD0E"/>
<path fill-rule="evenodd" clip-rule="evenodd" d="M256.072 173.691C256.554 174.336 256.422 175.259 255.776 175.743L253.494 177.459L255.203 179.749C255.692 180.39 255.56 181.313 254.916 181.797C254.272 182.28 253.347 182.15 252.866 181.504L251.157 179.214L248.873 180.93C248.229 181.413 247.313 181.281 246.832 180.633C246.35 179.987 246.482 179.064 247.119 178.581L249.4 176.867L247.691 174.577C247.21 173.931 247.341 173.012 247.987 172.525C248.631 172.042 249.547 172.174 250.029 172.817L251.744 175.108L254.019 173.394C254.663 172.906 255.588 173.038 256.07 173.686L256.072 173.691Z" fill="#FCCD0E"/>
<path fill-rule="evenodd" clip-rule="evenodd" d="M281.598 124.462C282.211 125.285 282.043 126.459 281.222 127.073L278.316 129.259L280.489 132.173C281.112 132.99 280.943 134.164 280.124 134.78C279.303 135.395 278.128 135.23 277.514 134.407L275.339 131.493L272.433 133.679C271.612 134.294 270.448 134.125 269.834 133.302C269.22 132.479 269.389 131.304 270.199 130.691L273.105 128.511L270.931 125.597C270.318 124.774 270.486 123.606 271.307 122.986C272.128 122.371 273.295 122.54 273.906 123.359L276.091 126.273L278.986 124.093C279.807 123.474 280.982 123.643 281.596 124.466L281.598 124.462Z" fill="#FCCD0E"/>
<path fill-rule="evenodd" clip-rule="evenodd" d="M156.971 314.945C156.498 314.128 156.777 313.068 157.594 312.596L160.497 310.914L158.821 308.013C158.348 307.196 158.626 306.137 159.441 305.664H159.447C160.262 305.19 161.312 305.469 161.785 306.29L163.461 309.196L166.359 307.515C167.173 307.04 168.223 307.324 168.696 308.145C169.169 308.962 168.891 310.017 168.076 310.492L165.179 312.171L166.849 315.075C167.322 315.891 167.044 316.947 166.227 317.423C165.412 317.898 164.356 317.614 163.883 316.797L162.206 313.892L159.318 315.569C158.503 316.043 157.447 315.759 156.971 314.942V314.945Z" fill="#089B65"/>
<path fill-rule="evenodd" clip-rule="evenodd" d="M106.067 296.56C106.33 297.472 105.803 298.427 104.894 298.69L101.687 299.619L102.612 302.839C102.876 303.747 102.349 304.709 101.439 304.969C100.529 305.229 99.5767 304.7 99.3196 303.792L98.3884 300.572L95.1823 301.5C94.2727 301.76 93.3178 301.231 93.0542 300.321C92.7971 299.413 93.3264 298.456 94.2273 298.196L97.4421 297.266L96.5174 294.046C96.2539 293.138 96.781 292.181 97.6906 291.916C98.6001 291.656 99.5529 292.185 99.81 293.093L100.741 296.317L103.947 295.39C104.857 295.125 105.812 295.654 106.067 296.562V296.56Z" fill="#4069AB"/>
<path fill-rule="evenodd" clip-rule="evenodd" d="M154.828 239.214C155.046 240.137 154.472 241.066 153.547 241.281L150.293 242.048L151.063 245.311C151.272 246.234 150.697 247.164 149.781 247.383C148.865 247.597 147.934 247.021 147.725 246.102L146.956 242.835L143.702 243.602C142.786 243.82 141.855 243.244 141.645 242.321C141.427 241.398 142.002 240.468 142.918 240.254L146.171 239.487L145.411 236.219C145.193 235.301 145.767 234.373 146.683 234.157C147.608 233.942 148.531 234.514 148.749 235.437L149.509 238.7L152.772 237.933C153.688 237.719 154.612 238.295 154.828 239.214Z" fill="#FCCD0E"/>
<path fill-rule="evenodd" clip-rule="evenodd" d="M158.782 175.405C159.722 175.405 160.497 176.176 160.497 177.121V180.473H163.835C164.784 180.473 165.551 181.248 165.551 182.193C165.551 183.14 164.782 183.909 163.835 183.909H160.497V187.265C160.497 188.208 159.722 188.982 158.782 188.982C157.833 188.982 157.067 188.206 157.067 187.265V183.909H153.72C152.78 183.909 152.011 183.138 152.011 182.193C152.011 181.246 152.78 180.473 153.72 180.473H157.067V177.121C157.067 176.174 157.836 175.405 158.782 175.405Z" fill="#ED3330"/>
<path fill-rule="evenodd" clip-rule="evenodd" d="M137.19 98.8048C138.13 98.8048 138.906 99.5805 138.906 100.525V103.877H142.244C143.183 103.877 143.959 104.653 143.959 105.598C143.959 106.545 143.183 107.314 142.244 107.314H138.906V110.67C138.906 111.617 138.13 112.386 137.19 112.386C136.244 112.386 135.475 111.615 135.475 110.67V107.314H132.128C131.189 107.314 130.419 106.542 130.419 105.598C130.419 104.651 131.189 103.877 132.128 103.877H135.475V100.525C135.475 99.5783 136.244 98.8048 137.19 98.8048Z" fill="#819477"/>
<path fill-rule="evenodd" clip-rule="evenodd" d="M146.264 79.2671C146.66 80.123 146.288 81.1522 145.435 81.5531L142.406 82.9658L143.812 86.0036C144.207 86.8595 143.836 87.893 142.98 88.2896H142.972C142.118 88.6904 141.092 88.3134 140.697 87.4554L139.29 84.4154L136.255 85.8281C135.401 86.2246 134.375 85.8476 133.98 84.9874C133.584 84.1315 133.956 83.1066 134.812 82.7058L137.847 81.293L136.434 78.2531C136.039 77.3972 136.419 76.368 137.272 75.9715C138.126 75.5749 139.152 75.9476 139.547 76.8035L140.952 79.8435L143.987 78.4351C144.84 78.0342 145.867 78.4112 146.262 79.2693L146.264 79.2671Z" fill="#819477"/>
<path fill-rule="evenodd" clip-rule="evenodd" d="M245.935 148.736C246.594 149.414 246.587 150.508 245.911 151.169L243.52 153.514L245.857 155.908C246.516 156.586 246.51 157.68 245.833 158.341C245.157 159.002 244.064 158.991 243.403 158.313L241.065 155.914L238.682 158.259C238.006 158.92 236.913 158.913 236.252 158.235C235.593 157.557 235.608 156.463 236.282 155.802L238.665 153.457L236.336 151.059C235.668 150.385 235.684 149.291 236.36 148.63C237.036 147.969 238.123 147.98 238.782 148.658L241.119 151.057L243.511 148.708C244.187 148.047 245.28 148.058 245.933 148.736H245.935Z" fill="#0B8095"/>
<path fill-rule="evenodd" clip-rule="evenodd" d="M263.489 65.2416C264.02 65.9089 263.91 66.8926 263.245 67.4192L260.885 69.3043L262.763 71.6704C263.294 72.3377 263.182 73.3215 262.519 73.8502C261.853 74.381 260.872 74.2683 260.347 73.601L258.463 71.2349L256.111 73.12C255.445 73.6508 254.464 73.5381 253.933 72.8708C253.408 72.2077 253.514 71.224 254.179 70.6932L256.539 68.8081L254.661 66.4441C254.13 65.7768 254.242 64.793 254.907 64.2622C255.573 63.7313 256.554 63.8418 257.079 64.5092L258.963 66.8753L261.322 64.9924C261.981 64.4594 262.959 64.572 263.493 65.2372L263.489 65.2416Z" fill="#A2356F"/>
<path fill-rule="evenodd" clip-rule="evenodd" d="M230.164 62.8927C230.31 62.0542 231.116 61.4887 231.957 61.636L234.925 62.1625L235.45 59.1876C235.597 58.3447 236.409 57.7835 237.243 57.9308C238.084 58.0782 238.643 58.8864 238.496 59.7249L237.971 62.7064L240.94 63.2329C241.774 63.3803 242.34 64.1906 242.193 65.0313C242.04 65.8699 241.234 66.4354 240.4 66.2881L237.431 65.7615L236.906 68.7365C236.759 69.5794 235.947 70.1406 235.113 69.9933H235.107C234.273 69.8459 233.707 69.0355 233.86 68.1948L234.385 65.2177L231.417 64.6912C230.576 64.5438 230.017 63.7335 230.164 62.8927Z" fill="#00A671"/>
<path fill-rule="evenodd" clip-rule="evenodd" d="M196.385 68.2425C196.828 69.0767 196.517 70.1233 195.687 70.5718L192.736 72.1535L194.319 75.1133C194.762 75.9432 194.445 76.9941 193.622 77.4383L193.613 77.4426C192.781 77.8868 191.742 77.5704 191.29 76.7384L189.713 73.7829L186.762 75.3668C185.932 75.8175 184.891 75.499 184.448 74.6648C183.999 73.8328 184.316 72.784 185.146 72.3355L188.089 70.7516L186.514 67.7961C186.064 66.9619 186.382 65.9154 187.211 65.4669C188.043 65.0183 189.082 65.339 189.534 66.1667L191.111 69.1222L194.062 67.5405C194.892 67.0919 195.933 67.4039 196.385 68.2403V68.2425Z" fill="#FCCD0E"/>
<path fill-rule="evenodd" clip-rule="evenodd" d="M167.616 106.818C168.128 107.613 167.895 108.679 167.104 109.192L164.293 111.015L166.11 113.829C166.622 114.624 166.389 115.695 165.598 116.208C164.805 116.718 163.742 116.488 163.23 115.695L161.422 112.88L158.611 114.698C157.818 115.212 156.747 114.982 156.235 114.185C155.723 113.394 155.956 112.323 156.747 111.81L159.558 109.992L157.741 107.177C157.229 106.382 157.462 105.312 158.253 104.798C159.043 104.285 160.108 104.514 160.62 105.307L162.437 108.126L165.24 106.304C166.032 105.795 167.104 106.024 167.616 106.818Z" fill="#116F73"/>
<path fill-rule="evenodd" clip-rule="evenodd" d="M255.435 270.307C256.383 270.307 257.15 271.083 257.15 272.027V275.379H260.496C261.445 275.379 262.212 276.155 262.212 277.1C262.212 278.042 261.443 278.82 260.496 278.82H257.15V282.172C257.15 283.119 256.381 283.888 255.435 283.888C254.495 283.888 253.726 283.117 253.726 282.172V278.82H250.379C249.439 278.82 248.664 278.042 248.664 277.1C248.664 276.153 249.439 275.379 250.379 275.379H253.726V272.027C253.726 271.081 254.495 270.307 255.435 270.307Z" fill="#7B64AA"/>
<path fill-rule="evenodd" clip-rule="evenodd" d="M244.284 328.322C244.991 328.949 245.06 330.043 244.431 330.747L242.219 333.258L244.719 335.481C245.425 336.108 245.494 337.197 244.874 337.91C244.245 338.619 243.159 338.686 242.452 338.058L239.944 335.839L237.732 338.35C237.112 339.054 236.016 339.126 235.316 338.498C234.601 337.871 234.541 336.777 235.161 336.071L237.373 333.559L234.873 331.336C234.167 330.71 234.098 329.62 234.718 328.912H234.726C235.346 328.203 236.435 328.134 237.142 328.76L239.65 330.979L241.862 328.472C242.483 327.763 243.578 327.694 244.284 328.32V328.322Z" fill="#D33F44"/>
<path fill-rule="evenodd" clip-rule="evenodd" d="M315.286 270.708C316.226 270.708 316.995 271.484 316.995 272.428V275.78H320.341C321.288 275.78 322.057 276.552 322.057 277.501C322.057 278.443 321.288 279.221 320.341 279.221H316.995V282.573C316.995 283.52 316.226 284.291 315.286 284.291C314.339 284.291 313.57 283.52 313.57 282.573V279.221H310.224C309.284 279.221 308.508 278.443 308.508 277.501C308.508 276.552 309.284 275.78 310.224 275.78H313.57V272.428C313.57 271.481 314.339 270.708 315.286 270.708Z" fill="#D33F44"/>
<path fill-rule="evenodd" clip-rule="evenodd" d="M257.388 358.261C258.124 357.673 259.213 357.801 259.794 358.54L261.868 361.168L264.493 359.088C265.232 358.501 266.319 358.629 266.9 359.368V359.372C267.483 360.111 267.358 361.199 266.621 361.786L263.996 363.866L266.068 366.499C266.658 367.24 266.526 368.325 265.79 368.912C265.053 369.5 263.964 369.372 263.383 368.633L261.309 366.005L258.684 368.085C257.947 368.672 256.858 368.544 256.277 367.805V367.801C255.694 367.06 255.819 365.974 256.556 365.387L259.181 363.307L257.107 360.674C256.517 359.935 256.64 358.848 257.385 358.261H257.388Z" fill="#5477B5"/>
<path fill-rule="evenodd" clip-rule="evenodd" d="M147.243 285.349C148.057 284.87 149.114 285.147 149.596 285.96L151.281 288.852L154.169 287.156C154.977 286.677 156.034 286.952 156.513 287.771C156.987 288.586 156.714 289.643 155.9 290.126L153.018 291.821L154.703 294.714C155.185 295.528 154.913 296.586 154.098 297.064C153.284 297.543 152.227 297.266 151.754 296.449L150.062 293.561L147.174 295.255C146.366 295.738 145.303 295.457 144.83 294.644C144.357 293.827 144.629 292.768 145.443 292.293L148.325 290.594L146.634 287.702C146.161 286.887 146.433 285.825 147.247 285.351L147.243 285.349Z" fill="#FCCD0E"/>
<path fill-rule="evenodd" clip-rule="evenodd" d="M73.2687 285.188C73.8736 284.46 74.9625 284.359 75.6841 284.963L78.2551 287.108L80.3896 284.532C80.9945 283.804 82.0812 283.702 82.805 284.307V284.311C83.5352 284.915 83.6368 286.005 83.0297 286.729L80.8951 289.307L83.4661 291.453C84.1877 292.055 84.2892 293.147 83.6843 293.875C83.0858 294.603 81.9991 294.701 81.2689 294.1L78.6979 291.955L76.5634 294.534C75.9585 295.262 74.8718 295.359 74.148 294.755C73.4264 294.15 73.3249 293.06 73.9233 292.332L76.0579 289.756L73.4869 287.611C72.7653 287.009 72.6638 285.921 73.2687 285.193V285.188Z" fill="#FCCD0E"/>
<path fill-rule="evenodd" clip-rule="evenodd" d="M278.821 232.311C279.651 232.763 279.962 233.81 279.513 234.642L277.914 237.584L280.857 239.186C281.68 239.636 281.991 240.689 281.548 241.517H281.541C281.092 242.347 280.051 242.659 279.219 242.206L276.276 240.605L274.684 243.552C274.235 244.386 273.185 244.696 272.362 244.241C271.532 243.792 271.221 242.741 271.67 241.911L273.263 238.965L270.329 237.363C269.497 236.913 269.188 235.864 269.637 235.032C270.087 234.202 271.137 233.892 271.966 234.343L274.9 235.944L276.499 232.997C276.948 232.168 277.99 231.858 278.821 232.308V232.311Z" fill="#7B64AA"/>
<path fill-rule="evenodd" clip-rule="evenodd" d="M349.192 137.055C350.14 137.055 350.907 137.833 350.907 138.775V142.127H354.254C355.194 142.127 355.969 142.903 355.969 143.848C355.969 144.795 355.194 145.568 354.254 145.568H350.907V148.92C350.907 149.867 350.138 150.641 349.192 150.641C348.252 150.641 347.483 149.865 347.483 148.92V145.568H344.137C343.197 145.568 342.421 144.792 342.421 143.848C342.421 142.901 343.197 142.127 344.137 142.127H347.483V138.775C347.483 137.833 348.252 137.055 349.192 137.055Z" fill="#5477B5"/>
<path fill-rule="evenodd" clip-rule="evenodd" d="M151 402.211C151.823 401.763 152.871 402.071 153.322 402.905L154.921 405.847L157.857 404.248C158.687 403.8 159.737 404.107 160.18 404.937L160.188 404.942C160.638 405.771 160.329 406.822 159.497 407.273L156.561 408.874L158.153 411.817C158.603 412.647 158.294 413.697 157.462 414.148C156.639 414.599 155.591 414.293 155.139 413.459L153.547 410.51L150.605 412.111C149.781 412.562 148.734 412.257 148.282 411.422C147.831 410.59 148.142 409.542 148.965 409.091L151.907 407.49L150.309 404.543C149.859 403.713 150.168 402.662 151 402.211Z" fill="#D33F44"/>
<path fill-rule="evenodd" clip-rule="evenodd" d="M266.375 402.45C267.043 403.115 267.043 404.214 266.384 404.879L264.016 407.249L266.377 409.62C267.045 410.289 267.045 411.383 266.377 412.053C265.71 412.722 264.623 412.722 263.955 412.053L261.594 409.682L259.226 412.053C258.559 412.722 257.472 412.722 256.804 412.053C256.137 411.383 256.137 410.285 256.804 409.62L259.166 407.249L256.804 404.879C256.137 404.209 256.137 403.115 256.804 402.445C257.472 401.78 258.559 401.78 259.226 402.445L261.594 404.82L263.955 402.445C264.623 401.78 265.718 401.78 266.377 402.45H266.375Z" fill="#5477B5"/>
<path fill-rule="evenodd" clip-rule="evenodd" d="M231.559 174.661C233.307 174.661 234.726 176.087 234.726 177.842C234.726 179.597 233.305 181.023 231.559 181.023C229.814 181.023 228.383 179.602 228.383 177.842C228.383 176.083 229.805 174.661 231.559 174.661Z" fill="#0B8095"/>
<path fill-rule="evenodd" clip-rule="evenodd" d="M289.699 116.213C291.447 116.213 292.867 117.638 292.867 119.393C292.867 121.149 291.445 122.574 289.699 122.574C287.954 122.574 286.524 121.153 286.524 119.393C286.524 117.634 287.945 116.213 289.699 116.213Z" fill="#0B8095"/>
<path fill-rule="evenodd" clip-rule="evenodd" d="M70.2657 360.635C72.02 360.635 73.4416 362.061 73.4416 363.816C73.4416 365.571 72.02 366.997 70.2657 366.997C68.5114 366.997 67.0984 365.576 67.0984 363.816C67.0984 362.057 68.5114 360.635 70.2657 360.635Z" fill="#4069AB"/>
<path fill-rule="evenodd" clip-rule="evenodd" d="M57.398 342.792C58.2211 342.341 59.2689 342.649 59.7204 343.481L61.3192 346.426L64.2531 344.829C65.0849 344.376 66.1241 344.688 66.5756 345.518C67.025 346.35 66.716 347.399 65.8929 347.849L62.9503 349.45L64.5491 352.397C64.9985 353.227 64.6895 354.278 63.8577 354.729C63.0281 355.179 61.9868 354.87 61.5352 354.035L59.9365 351.091L57.0026 352.692C56.173 353.143 55.123 352.833 54.6736 352.003V351.999C54.2221 351.169 54.5332 350.122 55.365 349.669L58.2989 348.07L56.7066 345.123C56.2572 344.294 56.5662 343.243 57.398 342.792Z" fill="#4069AB"/>
<path fill-rule="evenodd" clip-rule="evenodd" d="M25.2525 202.056C26.0842 201.605 27.1321 201.915 27.5814 202.745L29.1737 205.692L32.1162 204.09C32.9394 203.64 33.9872 203.95 34.4387 204.779C34.8881 205.609 34.5792 206.66 33.756 207.111L30.8135 208.712L32.4122 211.659C32.8616 212.489 32.5527 213.54 31.7209 213.988C30.8891 214.443 29.8499 214.133 29.3919 213.299L27.7996 210.357L24.8657 211.958C24.034 212.409 22.9861 212.099 22.5368 211.265C22.0852 210.435 22.3963 209.384 23.2281 208.933L26.1642 207.336L24.5719 204.389C24.1225 203.555 24.4315 202.509 25.2546 202.058L25.2525 202.056Z" fill="#FCCD0E"/>
<path fill-rule="evenodd" clip-rule="evenodd" d="M25.2525 270.799C26.0842 270.35 27.1321 270.658 27.5814 271.492L29.1737 274.435L32.1162 272.833C32.9394 272.385 33.9872 272.693 34.4387 273.527C34.8881 274.357 34.5792 275.408 33.756 275.858L30.8135 277.46L32.4122 280.402C32.8616 281.232 32.5527 282.283 31.7209 282.733C30.8891 283.184 29.8499 282.874 29.3919 282.044L27.7996 279.098L24.8657 280.699C24.034 281.15 22.9861 280.84 22.5368 280.01C22.0852 279.18 22.3963 278.129 23.2281 277.678L26.1642 276.077L24.5719 273.13C24.1225 272.3 24.4315 271.25 25.2546 270.799H25.2525Z" fill="#819477"/>
<path fill-rule="evenodd" clip-rule="evenodd" d="M331.744 199.144C333.367 199.144 334.68 200.459 334.68 202.084C334.68 203.709 333.369 205.024 331.744 205.024C330.119 205.024 328.81 203.709 328.81 202.084C328.81 200.459 330.122 199.144 331.744 199.144Z" fill="#819477"/>
<path fill-rule="evenodd" clip-rule="evenodd" d="M309.096 212.794C310.71 212.794 312.032 214.11 312.032 215.735C312.032 217.36 310.712 218.675 309.096 218.675C307.48 218.675 306.162 217.362 306.162 215.735C306.162 214.108 307.474 212.794 309.096 212.794Z" fill="#819477"/>
<path fill-rule="evenodd" clip-rule="evenodd" d="M324.61 186.921C326.233 186.921 327.544 188.236 327.544 189.866C327.544 191.495 326.233 192.806 324.61 192.806C322.988 192.806 321.674 191.491 321.674 189.866C321.674 188.24 322.986 186.921 324.61 186.921Z" fill="#A2356F"/>
<path fill-rule="evenodd" clip-rule="evenodd" d="M270.847 185.474C272.47 185.474 273.781 186.789 273.781 188.416C273.781 190.043 272.47 191.356 270.847 191.356C269.225 191.356 267.92 190.041 267.92 188.416C267.92 186.791 269.231 185.474 270.847 185.474Z" fill="#A2356F"/>
<path fill-rule="evenodd" clip-rule="evenodd" d="M59.3856 218.04C61.0081 218.04 62.3217 219.355 62.3217 220.983C62.3217 222.61 61.0102 223.923 59.3856 223.923C57.7609 223.923 56.4582 222.603 56.4582 220.983C56.4582 219.362 57.7696 218.04 59.3856 218.04Z" fill="#A2356F"/>
<path fill-rule="evenodd" clip-rule="evenodd" d="M197.255 307.773C198.878 307.773 200.191 309.088 200.191 310.715C200.191 312.342 198.88 313.655 197.255 313.655C195.631 313.655 194.322 312.34 194.322 310.715C194.322 309.09 195.633 307.773 197.255 307.773Z" fill="#A2356F"/>
<path fill-rule="evenodd" clip-rule="evenodd" d="M165.87 325.841C167.493 325.841 168.798 327.161 168.798 328.786C168.798 330.411 167.493 331.726 165.87 331.726C164.248 331.726 162.936 330.411 162.936 328.786C162.936 327.161 164.248 325.841 165.87 325.841Z" fill="#819477"/>
<path fill-rule="evenodd" clip-rule="evenodd" d="M165.87 390.992C167.493 390.992 168.798 392.311 168.798 393.936C168.798 395.562 167.493 396.879 165.87 396.879C164.248 396.879 162.934 395.559 162.934 393.936C162.934 392.314 164.246 390.992 165.87 390.992Z" fill="#819477"/>
<path fill-rule="evenodd" clip-rule="evenodd" d="M191.122 357.704C192.744 357.704 194.056 359.019 194.056 360.646C194.056 362.273 192.744 363.587 191.122 363.587C189.499 363.587 188.194 362.267 188.194 360.646C188.194 359.025 189.506 357.704 191.122 357.704Z" fill="#819477"/>
<path fill-rule="evenodd" clip-rule="evenodd" d="M76.369 322.314C77.9915 322.314 79.3029 323.629 79.3029 325.256C79.3029 326.884 77.9915 328.197 76.369 328.197C74.7465 328.197 73.4416 326.877 73.4416 325.256C73.4416 323.636 74.7529 322.314 76.369 322.314Z" fill="#819477"/>
<path fill-rule="evenodd" clip-rule="evenodd" d="M108.093 390.27C109.716 390.27 111.027 391.585 111.027 393.211C111.027 394.836 109.716 396.153 108.093 396.153C106.471 396.153 105.166 394.833 105.166 393.211C105.166 391.588 106.477 390.27 108.093 390.27Z" fill="#A2356F"/>
<path fill-rule="evenodd" clip-rule="evenodd" d="M268.644 389.547C270.266 389.547 271.577 390.862 271.577 392.487C271.577 394.112 270.266 395.427 268.644 395.427C267.021 395.427 265.716 394.112 265.716 392.487C265.716 390.862 267.027 389.547 268.644 389.547Z" fill="#819477"/>
<path fill-rule="evenodd" clip-rule="evenodd" d="M338.632 335.915C340.254 335.915 341.566 337.23 341.566 338.859C341.566 340.489 340.254 341.8 338.632 341.8C337.009 341.8 335.704 340.484 335.704 338.859C335.704 337.234 337.016 335.915 338.632 335.915Z" fill="#819477"/>
<path fill-rule="evenodd" clip-rule="evenodd" d="M222.513 300.85C224.136 300.85 225.449 302.169 225.449 303.79C225.449 305.411 224.138 306.733 222.513 306.733C220.889 306.733 219.586 305.417 219.586 303.79C219.586 302.163 220.897 300.85 222.513 300.85Z" fill="#819477"/>
<path fill-rule="evenodd" clip-rule="evenodd" d="M266.531 159.009C268.153 159.009 269.465 160.328 269.465 161.951C269.465 163.574 268.153 164.896 266.531 164.896C264.908 164.896 263.595 163.576 263.595 161.951C263.595 160.326 264.906 159.009 266.531 159.009Z" fill="#819477"/>
<path fill-rule="evenodd" clip-rule="evenodd" d="M282.669 142.307C284.292 142.307 285.603 143.622 285.603 145.247C285.603 146.873 284.292 148.188 282.669 148.188C281.047 148.188 279.733 146.873 279.733 145.247C279.733 143.622 281.053 142.307 282.669 142.307Z" fill="#819477"/>
<path fill-rule="evenodd" clip-rule="evenodd" d="M189.327 146.708C190.943 146.708 192.254 148.027 192.254 149.65C192.254 151.273 190.943 152.591 189.327 152.591C187.711 152.591 186.393 151.275 186.393 149.65C186.393 148.025 187.704 146.708 189.327 146.708Z" fill="#A2356F"/>
<path fill-rule="evenodd" clip-rule="evenodd" d="M104.539 128.154C106.155 128.154 107.467 129.473 107.467 131.096C107.467 132.719 106.155 134.037 104.539 134.037C102.923 134.037 101.605 132.721 101.605 131.096C101.605 129.471 102.917 128.154 104.539 128.154Z" fill="#A2356F"/>
<path fill-rule="evenodd" clip-rule="evenodd" d="M216.021 68.5546C217.644 68.5546 218.957 69.8698 218.957 71.4949C218.957 73.1199 217.646 74.4352 216.021 74.4352C214.397 74.4352 213.087 73.1221 213.087 71.4949C213.087 69.8676 214.399 68.5546 216.021 68.5546Z" fill="#819477"/>
<path fill-rule="evenodd" clip-rule="evenodd" d="M191.485 84.4717C193.107 84.4717 194.419 85.7912 194.419 87.4163C194.419 89.0414 193.107 90.3588 191.485 90.3588C189.862 90.3588 188.557 89.0392 188.557 87.4163C188.557 85.7934 189.869 84.4717 191.485 84.4717Z" fill="#A2356F"/>
<path fill-rule="evenodd" clip-rule="evenodd" d="M275.188 97.5005C276.81 97.5005 278.124 98.82 278.124 100.441C278.124 102.062 276.812 103.383 275.188 103.383C273.563 103.383 272.26 102.068 272.26 100.441C272.26 98.8135 273.572 97.5005 275.188 97.5005Z" fill="#819477"/>
<path fill-rule="evenodd" clip-rule="evenodd" d="M294.982 81.4165C296.604 81.4165 297.918 82.7317 297.918 84.3568C297.918 85.9819 296.606 87.2971 294.982 87.2971C293.357 87.2971 292.048 85.9819 292.048 84.3568C292.048 82.7317 293.359 81.4165 294.982 81.4165Z" fill="#A2356F"/>
<path fill-rule="evenodd" clip-rule="evenodd" d="M265.809 77.9626C267.432 77.9626 268.745 79.2779 268.745 80.903C268.745 82.528 267.434 83.8433 265.809 83.8433C264.184 83.8433 262.875 82.528 262.875 80.903C262.875 79.2779 264.186 77.9626 265.809 77.9626Z" fill="#819477"/>
<path fill-rule="evenodd" clip-rule="evenodd" d="M336.521 122.104C338.143 122.104 339.457 123.424 339.457 125.044C339.457 126.665 338.146 127.987 336.521 127.987C334.896 127.987 333.593 126.672 333.593 125.044C333.593 123.417 334.905 122.104 336.521 122.104Z" fill="#A2356F"/>
<path fill-rule="evenodd" clip-rule="evenodd" d="M294.668 133.683C296.291 133.683 297.602 134.999 297.602 136.628C297.602 138.257 296.291 139.568 294.668 139.568C293.046 139.568 291.741 138.249 291.741 136.628C291.741 135.007 293.052 133.683 294.668 133.683Z" fill="#A2356F"/>
<path d="M268.698 347.258C270.318 347.258 271.631 345.941 271.631 344.317C271.631 342.693 270.318 341.377 268.698 341.377C267.077 341.377 265.764 342.693 265.764 344.317C265.764 345.941 267.077 347.258 268.698 347.258Z" fill="#819477"/>
<path fill-rule="evenodd" clip-rule="evenodd" d="M196.37 367.196L202.015 360.401C211.918 348.491 226.309 349.041 237.792 357.346L243.107 350.956L239.963 348.332L243.347 344.255L253.7 352.909L250.308 356.987L247.164 354.356L241.858 360.744C252.092 370.555 255.16 384.715 245.291 396.587L239.646 403.377L233.409 398.16L236.559 394.368L239.013 396.42L241.508 393.419C250.159 383.02 246.477 370.912 236.781 362.804C227.035 354.655 214.507 353.093 205.809 363.565L203.313 366.566L205.519 368.408L202.363 372.206L196.374 367.194L196.37 367.196ZM188.912 419.125C196.424 425.695 207.926 424.908 214.474 417.372L218.298 412.976L209.553 405.327L212.785 401.605L221.53 409.258L226.087 404.021L217.341 396.372L220.573 392.649L229.319 400.298L233.875 395.065L225.13 387.415L228.362 383.692L236.997 391.243C241.96 383.774 240.746 373.513 233.828 367.465V367.461C226.914 361.413 216.611 361.602 209.911 367.55L219.582 376.011L216.35 379.733L206.563 371.172L202.006 376.405L211.8 384.97L208.561 388.689L198.774 380.128L194.218 385.365L204.011 393.926L200.773 397.648L190.986 389.087L187.162 393.479C180.613 401.018 181.4 412.553 188.912 419.123V419.125ZM188.32 410.647C196.728 417.099 204.344 417.641 213.2 411.999C205.936 422.094 195.659 422.83 188.32 410.647Z" fill="#A2356F"/>
<path d="M151.659 332.075C153.16 331.583 154.433 331.022 155.321 330.589C154.532 328.792 153.603 327.031 152.53 325.319C150.026 321.332 146.908 317.878 143.315 315.055C143.391 315.905 143.428 316.867 143.399 317.95C143.386 318.425 143.363 318.91 143.326 319.402C146.644 323.174 149.447 327.443 151.622 332.086C151.635 332.082 151.648 332.077 151.659 332.073V332.075Z" fill="#F0952B"/>
<path d="M139.074 312.15C135.896 310.262 132.444 308.813 128.786 307.851C132.783 309.985 136.477 312.644 139.781 315.742C139.647 313.827 139.277 312.663 139.074 312.15Z" fill="#F0952B"/>
<path d="M156.617 333.947C155.688 334.389 154.465 334.916 153.039 335.397C155.453 341.587 156.781 348.352 156.781 355.437C156.781 356.523 156.749 357.6 156.688 358.668C156.738 358.724 156.788 358.781 156.835 358.837C159.335 350.852 159.359 342.127 156.617 333.945V333.947Z" fill="#F0952B"/>
<path d="M96.3079 313.3C92.0323 316.16 88.474 319.718 85.6892 323.729C86.6679 323.74 87.6552 323.77 88.649 323.824C90.6755 319.939 93.2638 316.396 96.3057 313.302L96.3079 313.3Z" fill="#F0952B"/>
<path d="M83.667 344.229C83.667 338.248 84.8553 332.548 87.0071 327.35C85.8145 327.311 84.6327 327.306 83.4639 327.332C77.9742 337.354 76.8702 349.49 80.8843 360.534C82.146 360.118 83.9587 359.513 86.117 358.77C84.5312 354.218 83.667 349.323 83.667 344.229Z" fill="#F0952B"/>
<path d="M87.4349 362.111C85.3371 362.835 83.5525 363.431 82.2606 363.857C82.9541 365.337 83.7448 366.791 84.6371 368.211C88.6858 374.659 94.2727 379.558 100.622 382.732C101.193 382.362 102.068 381.757 103.195 380.871C96.3273 376.26 90.8268 369.76 87.4349 362.109V362.111Z" fill="#F0952B"/>
<path d="M106.449 382.856C105.717 383.462 105.058 383.978 104.474 384.414C108.424 385.898 112.589 386.756 116.806 386.949C113.151 386.024 109.677 384.637 106.449 382.856Z" fill="#F0952B"/>
<path d="M107.804 327.204C116.679 329.826 125.364 333.8 133.63 339.02C134.47 337.269 135.2 335.614 135.836 334.056C135.293 333.692 134.755 333.291 134.224 332.853C132.463 331.408 130.707 329.527 129.004 327.258C126.401 323.792 123.823 319.291 121.348 313.883C119.956 310.845 117.884 308.785 115.186 307.758C113.239 307.014 111.701 307.108 111.688 307.108C106.607 307.994 101.698 309.879 97.2001 312.719C96.8998 312.91 96.6017 313.103 96.3079 313.3C93.2659 316.394 90.6777 319.939 88.6512 323.822C90.6626 323.928 92.7021 324.117 94.7588 324.394C99.043 324.968 103.431 325.913 107.802 327.204H107.804Z" fill="#F0952B"/>
<path d="M120.838 347.728C123.72 347.622 126.256 348.02 128.432 348.915C129.616 346.818 130.815 344.595 132.022 342.244C117.673 333.12 101.538 327.813 87.0071 327.347C84.8553 332.545 83.667 338.248 83.667 344.226C83.667 349.323 84.529 354.215 86.117 358.768C91.1163 357.047 97.9736 354.592 104.157 352.044C110.796 349.308 116.253 347.895 120.84 347.726L120.838 347.728Z" fill="#F0952B"/>
<path d="M151.622 332.088C149.447 327.445 146.644 323.176 143.326 319.404C143.134 322.011 142.609 324.862 141.757 327.902C141.349 329.358 140.867 330.86 140.31 332.402C140.695 332.554 141.077 332.682 141.462 332.782C145.121 333.748 149.002 332.942 151.624 332.088H151.622Z" fill="#F0952B"/>
<path d="M109.919 374.691C114.173 370.247 120.125 363.012 126.615 352.057C125.012 351.481 123.136 351.236 120.97 351.314C116.813 351.468 111.757 352.794 105.516 355.366C99.326 357.918 92.4752 360.373 87.437 362.109C90.8289 369.76 96.3273 376.26 103.198 380.871C104.911 379.523 107.212 377.521 109.921 374.689L109.919 374.691Z" fill="#F0952B"/>
<path d="M124.599 312.386C126.969 317.56 129.413 321.839 131.863 325.1C133.621 327.44 135.386 329.276 137.149 330.593C139.154 324.862 139.748 320.674 139.822 317.857C139.841 317.07 139.822 316.366 139.781 315.742C136.475 312.644 132.783 309.985 128.786 307.851C128.35 307.736 127.911 307.628 127.468 307.528C125.048 306.978 122.611 306.652 120.185 306.551C121.78 307.838 123.37 309.699 124.601 312.388L124.599 312.386Z" fill="#F0952B"/>
<path d="M153.042 335.397C152.981 335.416 152.921 335.438 152.86 335.458C150.907 336.103 148.984 336.524 147.146 336.708C146.435 336.779 145.735 336.814 145.05 336.814C143.471 336.814 141.963 336.625 140.548 336.253C140.036 336.118 139.524 335.949 139.014 335.748C138.309 337.455 137.521 339.208 136.652 340.998C140.593 343.672 144.339 346.584 147.813 349.682C151.002 352.527 153.977 355.541 156.688 358.67C156.749 357.602 156.781 356.525 156.781 355.439C156.781 348.352 155.453 341.587 153.039 335.399L153.042 335.397Z" fill="#F0952B"/>
<path d="M129.711 353.864C127.604 357.426 125.444 360.789 123.242 363.931C119.68 369.016 116.003 373.539 112.313 377.369C110.061 379.707 108.08 381.504 106.449 382.854C109.677 384.635 113.151 386.021 116.806 386.947C117.42 386.975 118.033 386.99 118.649 386.99C122.238 386.99 125.846 386.509 129.374 385.523C129.67 384.957 130.333 383.51 131.489 380.084C132.468 377.185 133.578 372.351 133.762 367.474C133.967 362.016 132.98 357.745 130.906 355.125C130.538 354.662 130.141 354.243 129.711 353.864Z" fill="#F0952B"/>
<path d="M135.028 344.229C133.883 346.45 132.716 348.614 131.53 350.716C132.329 351.344 133.057 352.07 133.708 352.894C135.138 354.701 136.164 357.019 136.756 359.784C137.251 362.094 137.445 364.726 137.337 367.61C137.089 374.232 135.393 379.714 134.879 381.237C134.537 382.247 134.217 383.153 133.919 383.952C135.987 383.094 138.009 382.047 139.966 380.812C147.085 376.314 152.311 369.927 155.407 362.705C149.717 355.795 142.874 349.594 135.028 344.231V344.229Z" fill="#F0952B"/>
<path d="M150.751 330.844C151.836 330.489 152.752 330.084 153.392 329.772C152.823 328.476 152.154 327.206 151.378 325.971C149.572 323.096 147.323 320.604 144.732 318.57C144.789 319.183 144.815 319.876 144.793 320.656C144.784 320.999 144.767 321.347 144.741 321.703C147.133 324.424 149.155 327.501 150.723 330.851C150.732 330.849 150.741 330.844 150.749 330.842L150.751 330.844Z" fill="white"/>
<path d="M137.739 313.151C135.447 311.79 132.956 310.743 130.32 310.05C133.202 311.588 135.866 313.506 138.249 315.74C138.152 314.357 137.886 313.519 137.739 313.148V313.151Z" fill="white"/>
<path d="M155.621 336.001C154.951 336.32 154.07 336.701 153.042 337.048C154.781 341.511 155.74 346.389 155.74 351.5C155.74 352.282 155.716 353.06 155.673 353.83C155.708 353.871 155.744 353.91 155.779 353.951C157.581 348.192 157.598 341.901 155.621 336.001Z" fill="white"/>
<path d="M84.609 107.916C90.8138 114.003 100.761 113.94 106.885 107.751C113.013 101.563 113.004 91.5852 106.892 85.4077L84.609 107.916Z" fill="#F0952B"/>
<path d="M103.079 109.344C102.61 108.876 102.869 107.851 103.66 107.054L106.395 104.291C107.186 103.494 108.208 103.223 108.677 103.691L129.756 124.683C130.225 125.151 129.966 126.176 129.175 126.975L126.44 129.738C125.651 130.535 124.629 130.804 124.161 130.336L103.081 109.344H103.079Z" fill="#F0952B"/>
<path d="M103.543 105.317L104.565 104.285C104.86 103.987 105.343 103.985 105.64 104.282L125.795 124.354C126.092 124.65 126.094 125.135 125.798 125.433L124.777 126.465C124.482 126.763 123.999 126.764 123.701 126.468L103.547 106.396C103.25 106.1 103.248 105.618 103.543 105.32L103.543 105.317Z" fill="#F0952B"/>
<path d="M111.297 98.9825C111.297 98.9825 109.984 104.993 112.526 107.526C114.166 109.16 107.348 113.636 107.348 113.636C107.348 113.636 103.653 110.256 100.514 111.675C100.514 111.675 103.137 109.925 103.457 109.496C103.781 109.065 106.685 106.854 107.093 106.75C107.501 106.646 102.997 101.55 103.303 101.652C103.61 101.754 111.295 98.9847 111.295 98.9847L111.297 98.9825Z" fill="#F0952B"/>
<path d="M174.609 132.513C174.609 132.513 185.032 130.908 179.827 124.347C179.827 124.347 152.689 104.159 146.165 122.713L149.935 126.466C149.935 126.466 150.185 120.109 155.701 118.817C163.477 116.997 182.013 128.184 165.879 132.676C160.713 134.112 174.609 132.513 174.609 132.513Z" fill="#F0952B"/>
<path d="M132.476 175.071C132.476 175.071 130.949 185.534 124.37 180.362C124.37 180.362 104.049 153.288 122.501 146.613L126.271 150.365C126.271 150.365 119.935 150.66 118.686 156.203C116.925 164.016 128.211 182.525 132.576 166.311C133.971 161.121 132.476 175.069 132.476 175.069V175.071Z" fill="#F0952B"/>
<path d="M78.7433 106.425L82.6473 110.313C83.734 111.394 85.4861 111.387 86.5642 110.3L109.284 87.3513C110.362 86.2614 110.355 84.5042 109.271 83.423L105.367 79.5358L78.7433 106.428V106.425Z" fill="#F0952B"/>
<path d="M161.597 127.064C151.834 117.487 136.179 117.584 126.541 127.322C116.901 137.059 116.917 152.757 126.535 162.48L161.599 127.062L161.597 127.064Z" fill="#F0952B"/>
<path d="M139.111 175.006L174.175 139.59L161.597 127.064L139.223 139.952L126.535 162.482L139.111 175.006Z" fill="#F0952B"/>
<path d="M84.609 107.916C85.3327 108.638 90.9089 104.185 97.0619 97.9685C103.215 91.7542 107.618 86.1292 106.892 85.4077C106.166 84.6861 100.59 89.141 94.4369 95.3553C88.2839 101.572 83.8831 107.195 84.609 107.916Z" fill="#F0952B"/>
<path d="M129.186 117.955C129.186 117.955 124.262 119.181 121.76 116.72C120.512 115.491 119.464 119.866 119.464 119.866L115.702 121.914C115.702 121.914 119.427 125.146 117.197 130.516C117.197 130.516 119.112 127.133 119.321 127.385C119.531 127.636 120.265 128.163 120.87 127.508C121.477 126.854 124.521 121.901 124.744 121.677C124.966 121.452 129.188 117.955 129.188 117.955H129.186Z" fill="#F0952B"/>
<path d="M99.7012 87.4451L86.807 100.468L90.1965 103.843L103.091 90.8208L99.7012 87.4451Z" fill="#F0952B"/>
<path d="M161.668 126.995C151.903 117.42 131.292 112.577 121.652 122.314C112.014 132.05 116.988 152.688 126.604 162.413" fill="#F0952B"/>
<path d="M119.148 137.679C119.148 137.679 119.241 147.096 122.249 151.577C125.256 156.058 134.559 165.39 134.559 165.39L138.787 170.014L140.826 168.029C140.826 168.029 121.685 150.686 119.146 137.679H119.148Z" fill="white"/>
<path fill-rule="evenodd" clip-rule="evenodd" d="M321.406 320.06C322.076 320.366 322.804 321.107 322.37 321.885C322.4 322.164 322.433 322.446 322.458 322.728C322.48 323.092 322.404 323.46 322.273 323.8C322.026 324.19 321.694 324.572 321.216 324.661C320.045 324.888 318.84 324.812 317.654 324.908C315.714 325.005 313.806 325.419 311.866 325.506C311.211 325.542 310.554 325.41 309.975 325.094C310.129 325.971 309.867 327.521 308.655 327.293C309.839 328.907 310.725 330.712 311.73 332.437C312.901 334.595 314.383 336.586 315.431 338.814C315.437 339.089 315.23 339.26 314.983 339.332C314.318 339.581 313.795 340.346 313.004 340.105C310.911 339.481 308.854 338.729 306.786 338.03C305.218 337.488 303.541 337.156 302.15 336.209C301.794 337.256 301.076 338.478 299.806 338.398C299.236 340.866 298.998 343.394 298.445 345.865C298.305 347.093 298.43 348.369 298.013 349.559C297.62 350.291 296.626 349.968 295.973 349.919C295.109 348.315 294.331 346.653 293.312 345.134C292.35 343.546 291.143 342.105 290.358 340.413C289.462 340.734 288.245 340.885 287.595 340.029C286.249 340.764 285.137 341.839 283.972 342.822C282.425 344.205 280.906 345.624 279.334 346.983C278.968 347.292 278.573 347.568 278.143 347.791C277.247 347.825 276.125 347.702 275.821 346.688C275.756 345.121 275.702 343.542 275.942 341.988C276.257 339.817 276.471 337.605 277.214 335.531C277.38 335.042 277.661 334.606 278.001 334.225C277.13 334.16 276.322 333.731 275.864 332.972C275.935 332.775 276.004 332.578 276.073 332.385C273.416 332.405 270.739 332.558 268.153 333.224C266.675 333.546 265.198 333.919 263.685 334.036C263.385 334.344 262.977 334.446 262.57 334.279C261.944 334.186 261.786 333.494 261.855 332.964C262.221 331.984 263.063 331.33 263.757 330.595C265.014 329.302 266.209 327.937 267.287 326.491C267.911 325.302 268.728 324.229 269.683 323.289C269.564 323.15 269.324 322.869 269.207 322.73C269.551 322.227 269.843 321.692 270.022 321.111C267.099 318.955 263.843 317.32 260.658 315.601C260.017 315.185 259.157 315.248 258.574 314.741C258.485 314.295 258.479 313.84 258.442 313.389C258.533 313.302 258.716 313.127 258.807 313.038C259.71 312.126 261.216 311.651 262.437 312.102C265.481 311.272 268.624 310.915 271.733 310.418C271.692 309.848 271.534 309.231 271.817 308.7C272.027 308.269 272.442 308.002 272.802 307.716C272.096 304.328 268.994 302.085 268.168 298.735C268.043 297.86 266.978 297.203 267.254 296.31L267.609 296.074L268.06 296.274C267.913 296.081 267.775 295.875 267.632 295.68C267.594 295.041 268.229 294.75 268.719 294.547C270.039 294.989 271.206 295.773 272.405 296.462C274.539 297.704 276.644 298.997 278.778 300.241C278.945 299.665 279.197 299.047 279.772 298.774C280.34 298.423 281.019 298.521 281.641 298.612C282.034 296.005 282.929 293.509 283.618 290.972C283.989 289.52 284.7 288.135 284.774 286.623L284.787 286.328C284.933 286.311 285.229 286.274 285.378 286.257C285.577 285.6 286.357 285.765 286.495 286.363C288.5 289.71 289.848 293.403 291.784 296.787C292.523 296.391 293.357 296.577 294.01 297.039C296.943 294.133 299.661 291.008 302.725 288.235C302.928 287.992 303.2 287.838 303.518 287.849C303.554 287.988 303.632 288.265 303.671 288.404C303.904 288.519 304.034 288.696 304.058 288.941L304.084 289.112C304.172 289.117 304.347 289.123 304.434 289.128C304.54 289.167 304.753 289.245 304.862 289.284C305.242 290.421 304.704 291.565 304.481 292.677C303.945 294.839 304.015 297.08 303.771 299.283C303.591 300.735 304.043 302.148 304.354 303.55C304.795 303.66 305.24 303.747 305.676 303.868C307.16 303.339 308.742 303.199 310.284 302.913C312.89 302.585 315.42 301.862 317.963 301.233C318.397 301.439 318.453 301.922 318.559 302.334C318.44 302.432 318.196 302.627 318.075 302.724C318.077 303.131 318.062 303.565 317.822 303.914C316.962 305.326 315.964 306.644 314.914 307.918C313.514 309.554 312.296 311.335 310.986 313.04C311.576 313.749 311.771 314.665 311.853 315.564C313.296 316.34 314.731 317.14 316.271 317.707C318.049 318.342 319.706 319.254 321.409 320.056L321.406 320.06ZM315.75 319.764C314 318.916 312.224 318.123 310.433 317.367C309.157 318.015 307.886 318.702 306.823 319.675C306.951 320.299 307.428 321.283 306.493 321.527C307 321.967 307.461 322.487 308.087 322.756C308.748 323.022 309.1 323.694 309.578 324.182C310.153 323.311 311.265 323.408 312.175 323.304C315.238 323.09 318.319 322.773 321.292 321.974C319.423 321.293 317.541 320.632 315.75 319.764ZM315.001 303.688C313.57 304.204 312.071 304.477 310.589 304.793C309.09 305.066 307.584 305.467 306.048 305.365C305.808 306.494 305.49 307.619 304.931 308.633C305.57 308.891 305.976 309.536 305.782 310.232C306.614 311.398 307.994 311.872 309.29 312.301C310.433 310.334 311.814 308.527 313.06 306.631C313.728 305.662 314.311 304.637 315.001 303.686V303.688ZM310.319 334.283C308.807 332.47 307.919 330.255 306.89 328.153C305.836 328.312 304.736 328.593 303.704 328.153C303.3 329.219 302.742 330.324 301.766 330.972C301.921 332.114 302.2 333.239 302.291 334.389C303.2 334.225 304.023 334.688 304.838 335.013C307.482 336.01 310.194 336.825 312.827 337.847C312.272 336.476 311.177 335.453 310.319 334.283ZM308.573 313.744C306.949 313.779 305.581 312.719 304.671 311.456C304.57 312.221 304.416 312.982 304.105 313.692C305.062 314.282 305.81 315.374 305.624 316.537C305.471 316.966 305.006 316.936 304.628 316.89C305.078 317.315 305.523 317.742 306.002 318.134C306.823 317.374 307.69 316.652 308.686 316.136C308.392 315.391 308.061 314.472 308.571 313.744H308.573ZM304.784 321.612C304.382 320.867 304.01 319.933 304.531 319.153C304.211 318.862 303.911 318.548 303.632 318.219C303.17 318.704 302.999 319.408 303.021 320.065C303.25 321.818 305.244 323.031 304.81 324.916C304.734 325.573 303.907 325.839 303.982 326.533C304.751 326.496 305.525 326.524 306.29 326.418C306.272 325.748 306.436 325.094 306.812 324.543C306.259 323.482 305.376 322.645 304.782 321.614L304.784 321.612ZM302.861 290.358C302.122 290.909 301.588 291.687 300.934 292.332C299.465 294.012 297.764 295.468 296.276 297.13C295.883 297.563 295.442 297.953 294.969 298.302C295.729 299.697 296.494 301.342 296.043 302.958C296.993 302.941 297.957 303.259 298.687 303.87C299.104 304.276 298.868 305.034 298.302 305.151C297.713 305.22 297.118 305.105 296.526 305.108C298.592 305.968 300.415 304.198 302.28 303.586C302.262 302.865 302.167 302.137 302.265 301.415C302.442 299.682 302.455 297.942 302.656 296.213C302.77 294.263 302.751 292.308 302.857 290.358H302.861ZM304.034 305.784C303.245 305.974 303.027 305.038 302.662 304.555C301.243 305.543 299.694 306.538 297.931 306.704C296.71 306.761 295.219 306.488 294.582 305.313C294.044 305.411 293.493 305.448 292.977 305.643C293.266 305.664 293.554 305.688 293.843 305.714C294.105 306.332 294.368 307.025 295.029 307.316C296.194 307.87 297.464 307.257 298.631 307.014C299.685 306.655 301.022 306.986 301.565 308.022C302.113 308.054 302.662 308.093 303.209 308.15C303.557 307.385 303.762 306.574 304.034 305.784ZM303.563 309.662C302.504 309.521 301.433 309.51 300.376 309.357C300.595 310.947 301.42 312.646 303.019 313.222C303.17 312.03 303.645 310.86 303.563 309.662ZM302.154 314.962C300.703 314.321 299.344 313.294 298.724 311.783C298.335 310.709 298.194 309.387 298.875 308.403C297.239 308.999 295.282 309.526 293.681 308.564C292.834 307.935 291.953 307.162 291.715 306.087C291.274 306.592 290.84 307.112 290.309 307.53C288.414 308.967 285.27 308.865 283.801 306.865C283.795 308.05 284.166 309.281 283.702 310.427C283.183 311.738 282.151 312.882 280.831 313.4C280.483 313.573 280.124 313.445 279.85 313.209C279.653 313.458 279.448 313.699 279.23 313.935C279.897 314.919 280.932 315.82 280.854 317.124C280.859 318.708 279.686 320.006 278.329 320.667C278.379 320.821 278.474 321.127 278.523 321.28C279.258 321.621 280.083 321.774 280.751 322.264C282.023 323.066 282.613 324.58 282.859 326.002C282.983 326.6 282.561 327.122 281.997 327.274C282.516 327.785 283.315 327.412 283.933 327.326C285.707 326.702 287.651 327.577 288.848 328.912C289.263 329.345 289.414 330.002 289.116 330.545C289.606 330.591 290.097 330.704 290.423 331.109C291.605 330.116 293.018 329.323 294.586 329.232C295.543 329.193 296.684 328.981 297.44 329.733C297.341 328.307 297.68 326.816 298.706 325.774C299.603 324.897 300.523 323.857 301.8 323.59C301.835 323.514 301.897 323.356 301.932 323.278C300.992 321.835 300.767 319.965 301.271 318.325C301.511 317.549 301.696 316.674 302.429 316.21C302.481 315.798 302.221 315.374 302.157 314.962H302.154ZM301.824 325.278C300.774 325.796 299.726 326.673 299.653 327.937C299.499 329.635 299.882 331.605 298.698 333.024C298.333 333.588 297.447 333.341 297.226 334.038C297.853 334.043 298.356 334.417 298.808 334.803C299.104 334.45 299.467 334.157 299.953 334.166C299.577 332.257 299.396 330.194 300.15 328.353C300.396 327.679 301.042 327.278 301.735 327.206C301.841 326.567 301.863 325.917 301.822 325.274L301.824 325.278ZM300.368 336.636C300.031 336.398 299.746 337.037 300.007 337.252C300.299 337.308 300.513 336.859 300.368 336.636ZM298.162 336.407C297.397 336.251 296.323 335.538 296.881 334.656C296.235 335.802 294.982 336.656 293.634 336.573C292.985 337.514 292.359 338.467 291.629 339.347C292.396 340.058 292.862 341.013 293.51 341.826C294.774 343.412 295.721 345.215 296.71 346.978C296.809 346.913 297.006 346.79 297.103 346.725C296.524 345.683 296.92 344.476 296.885 343.353C297.123 341.011 297.546 338.682 298.162 336.409V336.407ZM293.577 299.556C293.29 299.994 292.808 300.096 292.316 299.981C291.581 301.095 290.929 302.258 290.214 303.383C289.254 304.897 287.26 305.478 285.573 305.045C285.42 305.313 285.288 305.589 285.145 305.872C285.929 306.213 286.722 306.726 287.617 306.533C289.438 306.323 290.458 304.598 291.918 303.719C292.378 303.355 293.325 303.498 293.165 304.243C293.793 303.959 294.368 303.578 294.98 303.272C294.046 302.258 294.107 300.77 293.577 299.552V299.556ZM296.362 331.009C295.803 330.981 295.25 330.879 294.692 330.853C293.608 330.892 292.638 331.49 291.888 332.244C292.601 332.61 293.277 333.055 293.815 333.655C294.306 333.434 294.813 333.239 295.355 333.185C295.675 332.452 296.001 331.722 296.362 331.009ZM292.988 298.1C292.882 298.083 292.666 298.046 292.558 298.027C292.527 298.308 292.834 298.56 292.994 298.774C293.325 298.737 293.106 298.254 292.99 298.1H292.988ZM289.084 296.154C288.137 293.91 286.932 291.788 285.938 289.567C285.875 289.704 285.828 289.847 285.795 289.994C285.348 292.889 284.512 295.704 283.65 298.495C283.516 299.032 283.056 299.567 283.205 300.122C284.017 300.787 284.808 301.48 285.582 302.198C286.454 301.693 287.444 301.437 288.451 301.448C289.295 300.681 289.931 299.691 290.708 298.848C290.041 298.031 289.494 297.121 289.082 296.152L289.084 296.154ZM290.825 333.165C290.082 333.57 289.151 333.635 288.403 333.206C287.936 332.955 288.254 332.383 288.703 332.411C288.086 332.257 287.545 332.773 287.044 333.055C287.619 334.324 287.958 335.726 287.872 337.128C288.39 337.031 288.915 336.866 289.447 336.935C289.671 337.486 290.162 338.114 290.842 337.83C291.458 337.633 291.374 336.911 291.324 336.402C291.681 335.874 292.123 335.412 292.469 334.877C291.864 334.365 291.19 333.904 290.825 333.165ZM287.522 302.568C286.828 302.258 287.519 303.303 287.522 302.568V302.568ZM285.813 328.892C284.365 328.626 283.028 329.852 281.578 329.393C280.87 329.167 280.049 328.689 280.059 327.841C279.891 327.815 279.56 327.765 279.396 327.739C279.286 328.879 278.422 329.698 278.117 330.771C278.824 330.92 279.407 331.451 279.368 332.227C279.625 332.337 279.906 332.645 280.191 332.405C281.341 331.913 282.291 331.042 283.469 330.615C284.385 330.305 285.368 330.868 285.748 331.716C286.426 331.347 287.115 330.977 287.88 330.834C287.092 330.29 286.761 329.213 285.815 328.888L285.813 328.892ZM282.408 301.422C281.937 301.734 281.401 301.925 280.854 302.055C281.086 303.979 281.608 306.037 280.831 307.905C280.556 308.533 280.003 309.411 279.193 309.032C279.038 310.158 279.999 311.071 280.003 312.197C280.241 311.768 280.25 311.12 280.794 310.962C281.325 310.806 281.971 310.618 282.03 309.957C282.237 308.21 281.637 306.293 282.609 304.687C282.913 303.996 283.663 303.805 284.324 303.63C283.806 302.789 283.019 302.18 282.406 301.42L282.408 301.422ZM285.629 333.503C284.722 333.531 283.719 332.899 283.842 331.878C282.226 332.788 280.673 333.952 278.78 334.196C279.178 334.469 279.385 334.953 279.273 335.432C279.027 336.801 278.59 338.136 278.443 339.527C278.236 341.648 278.05 343.774 277.888 345.901C279.329 344.287 280.902 342.799 282.369 341.206C283.497 339.977 284.782 338.909 286.161 337.98C285.91 336.5 285.605 335.009 285.627 333.505L285.629 333.503ZM278.975 323.263C277.7 322.929 276.19 322.424 275.758 321.02C275.257 320.444 274.643 319.959 274.166 319.354C273.636 319.761 273.213 320.294 272.653 320.665C273.075 321.239 273.498 321.835 273.641 322.554C275.985 322.654 278.703 323.724 279.491 326.138C280.046 326.125 280.606 326.138 281.153 326.253C280.969 324.979 280.291 323.651 278.977 323.261L278.975 323.263ZM279.636 302.044C278.443 301.961 277.301 301.582 276.272 300.978C273.55 299.662 271.189 297.699 268.408 296.492C269.633 297.929 270.441 299.649 271.327 301.303C272.286 303.385 274.06 305.105 274.313 307.482C275.401 307.396 276.503 307.506 277.54 307.862C277.398 306.466 278.016 304.663 279.463 304.237C279.517 303.504 279.586 302.776 279.634 302.046L279.636 302.044ZM280.079 312.503C279.351 312.635 280.504 313.125 280.079 312.503V312.503ZM278.316 310.971C278.307 311.575 278.346 312.18 278.428 312.78C279.122 312.427 278.51 311.491 278.316 310.971ZM277.914 309.294C277.359 309.289 276.799 309.276 276.253 309.166C275.905 309.825 275.164 309.385 274.626 309.274C274.535 309.779 274.552 310.483 273.954 310.683C273.263 310.652 273.187 309.812 273.047 309.296C273.083 309.827 273.083 310.377 273.414 310.828C273.898 312.078 275.084 312.813 275.894 313.829C276.339 313.681 276.791 313.558 277.242 313.445C277.132 312.449 277.05 311.419 277.406 310.462C277.659 310.394 277.908 310.332 278.156 310.269C278.074 309.942 278.024 309.608 277.914 309.292V309.294ZM277.938 314.841C277.581 314.78 277.581 315.32 277.275 315.408C277.11 315.432 276.78 315.473 276.616 315.495C276.756 316.173 276.966 316.942 276.583 317.584C276.428 317.926 276.034 317.996 275.695 317.954C276.121 318.667 276.706 319.252 277.298 319.824C278.776 318.674 278.746 316.39 277.94 314.841H277.938ZM276.486 325.423C274.976 324.459 273.131 324.624 271.456 324.203C271.113 325.718 269.607 326.455 268.76 327.64C267.766 328.962 266.572 330.112 265.545 331.406C266.442 331.343 267.324 331.178 268.207 331.022C269.907 330.717 271.636 330.652 273.358 330.563C274.507 330.502 275.661 330.35 276.81 330.485C276.497 329.232 277.214 328.114 277.614 326.99C277.525 326.327 276.994 325.807 276.484 325.423H276.486ZM272.064 311.406C269.845 312.323 267.412 312.459 265.083 312.947C263.731 313.159 262.445 313.636 261.117 313.95C262.825 314.865 264.521 315.807 266.284 316.613C268.106 317.582 269.996 318.459 271.621 319.748C272.282 319.096 272.943 318.448 273.595 317.792C273.943 317.04 273.513 316.156 273.909 315.419C274.045 315.086 274.36 314.897 274.652 314.726C273.779 313.625 272.532 312.791 272.064 311.406Z" fill="#D93B27"/>
<path d="M306.372 350.077C310.507 348.018 314.16 345.21 317.232 341.73C320.305 338.251 322.642 334.272 324.178 329.908C324.433 329.183 324.662 328.45 324.87 327.714C325.857 328.396 327.069 328.767 328.359 328.689L352.409 327.224C355.473 327.037 357.804 324.396 357.618 321.324L356.723 306.548C356.538 303.476 353.904 301.138 350.84 301.324L326.79 302.789C325.5 302.867 324.342 303.383 323.446 304.18C323.152 303.474 322.837 302.776 322.495 302.087C320.443 297.94 317.643 294.276 314.173 291.195C310.703 288.114 306.737 285.769 302.386 284.229C297.879 282.632 293.154 281.971 288.345 282.263C283.536 282.556 278.927 283.787 274.645 285.916C270.51 287.975 266.857 290.783 263.785 294.263C260.712 297.743 258.375 301.721 256.839 306.085C255.247 310.605 254.588 315.343 254.879 320.167C255.171 324.99 256.398 329.612 258.522 333.906C260.574 338.053 263.374 341.717 266.844 344.799C270.314 347.88 274.28 350.224 278.634 351.765C283.14 353.362 287.865 354.022 292.674 353.73C297.484 353.437 302.092 352.207 306.374 350.077H306.372ZM260.002 319.855C258.98 302.984 271.832 288.428 288.654 287.403C305.475 286.378 319.989 299.268 321.011 316.139C322.033 333.009 309.18 347.565 292.359 348.59C275.538 349.615 261.024 336.725 260.002 319.855Z" fill="#D93B27"/>
<path fill-rule="evenodd" clip-rule="evenodd" d="M352.798 304.336C353.936 305.539 354.014 307.315 354.09 308.884C354.131 310.828 354.012 312.771 353.941 314.713C353.88 316.149 354.245 317.599 353.91 319.02C353.154 317.727 353.172 316.191 352.8 314.778C352.199 312.429 351.856 310.026 351.601 307.619C351.471 307.006 351.502 306.254 351.007 305.803C350.305 305.521 349.529 305.612 348.792 305.623C344.871 305.805 340.952 306.135 337.024 306.098C336.039 306.048 334.965 306.282 334.08 305.729C335.16 304.975 336.547 305.047 337.791 304.828C341.432 304.49 345.07 304.124 348.687 303.606C350.063 303.441 351.726 303.242 352.794 304.334L352.798 304.336Z" fill="white"/>
<path d="M186.023 121.539L207.783 152.76C209.719 155.535 213.53 156.214 216.298 154.272L235.558 140.769C239.812 140.634 244.077 139.315 247.825 136.687C251.574 134.058 254.274 130.496 255.86 126.533L268.978 117.337C271.746 115.396 272.422 111.574 270.486 108.798L248.726 77.577L186.021 121.539H186.023ZM242.368 84.0275C243.247 83.41 244.459 83.6267 245.075 84.5085C245.691 85.3926 245.475 86.606 244.595 87.2235C243.716 87.841 242.504 87.6265 241.888 86.7425C241.273 85.8606 241.489 84.645 242.368 84.0275ZM201.162 118.982C202.183 120.449 218.951 144.504 218.951 144.504L215.725 146.766C215.725 146.766 198.75 122.412 197.35 120.405C195.953 118.399 198.962 114.104 200.187 114.269C201.414 114.434 200.137 117.515 201.159 118.982H201.162ZM244.479 132.136C235.506 138.426 223.144 136.234 216.872 127.233C210.601 118.234 212.789 105.834 221.762 99.5438C230.736 93.2515 243.096 95.4486 249.37 104.449C255.644 113.45 253.453 125.846 244.479 132.136ZM266.563 110.232L259.554 115.147L256.854 111.272L263.862 106.358L266.563 110.232Z" fill="#FCCD0E"/>
<path d="M240.167 75.9974C240.167 75.9974 240.054 76.0755 239.875 76.2011L237.008 72.0864L226.575 79.4014L229.423 83.4858C226.674 84.9635 220.519 80.4957 220.519 80.4957L204.152 91.9709C204.152 91.9709 206.226 99.7929 203.715 101.552L203.676 101.581L200.976 97.7063L190.541 105.021L193.241 108.896C190.091 111.103 187.484 112.932 187.484 112.932C185.021 114.659 184.228 117.872 185.444 120.516L247.97 76.6821C245.913 74.628 242.629 74.2727 240.167 75.9974ZM223.918 88.5192L211.493 97.2296L208.207 92.5169L220.632 83.8065L223.918 88.5192Z" fill="#FCCD0E"/>
<path d="M227.273 107.32C222.539 110.638 221.381 117.201 224.689 121.948C227.997 126.696 234.541 127.857 239.274 124.54C244.008 121.222 245.166 114.659 241.858 109.912C238.55 105.164 232.006 104.003 227.273 107.32Z" fill="#FCCD0E"/>
<path d="M225.017 104.217C218.616 108.705 217.054 117.545 221.53 123.965C226.005 130.386 234.819 131.95 241.221 127.463C247.622 122.975 249.184 114.135 244.71 107.715C240.236 101.294 231.421 99.7301 225.02 104.217H225.017ZM239.817 125.317C234.655 128.936 227.519 127.668 223.911 122.492C220.303 117.316 221.567 110.159 226.728 106.54C231.89 102.922 239.026 104.189 242.634 109.366C246.242 114.542 244.978 121.699 239.817 125.317Z" fill="#FCCD0E"/>
<path d="M201.162 118.982C202.183 120.449 218.951 144.504 218.951 144.504L215.725 146.766C215.725 146.766 198.75 122.412 197.35 120.405C195.953 118.399 198.962 114.104 200.187 114.269C201.414 114.434 200.137 117.515 201.159 118.982H201.162Z" fill="#FCCD0E"/>
<path d="M321.659 22.0967C308.368 13.8435 275.702 0 206.254 0C136.806 0 104.14 13.8435 90.8484 22.0967C84.6198 25.9644 81.9754 33.7496 84.5614 40.6075L105.282 95.5568C107.22 100.694 111.766 104.523 117.146 105.55L195.985 120.594C199.39 121.244 202.821 121.569 206.252 121.569C209.682 121.569 213.113 121.244 216.52 120.594L295.36 105.55C300.737 104.523 305.283 100.692 307.221 95.5546L327.942 40.6075C330.528 33.7496 327.886 25.9644 321.657 22.0967H321.659Z" fill="white"/>
<path d="M197.24 113.979L118.401 98.9348C115.277 98.339 112.686 96.157 111.563 93.1734L90.8419 38.2241C89.3814 34.352 90.8743 29.999 94.3829 27.8214C106.071 20.5649 137.383 6.73438 206.254 6.73438C275.127 6.73438 306.436 20.5649 318.125 27.8214C321.633 29.999 323.124 34.3542 321.666 38.2241L300.945 93.1734C299.819 96.157 297.231 98.3368 294.107 98.9348L215.267 113.979C209.313 115.114 203.197 115.114 197.242 113.979H197.24Z" fill="#63AEC9"/>
<path d="M315.681 31.78C310.094 28.311 299.81 23.2928 282.535 19.0806C261.611 13.9778 235.945 11.3885 206.252 11.3885C176.558 11.3885 150.894 13.9757 129.968 19.0806C112.695 23.2928 102.409 28.311 96.8221 31.78C95.2017 32.7854 94.5104 34.8049 95.1801 36.5794L115.901 91.5288C116.45 92.987 117.74 94.0726 119.267 94.3629L198.107 109.407C200.786 109.918 203.525 110.178 206.252 110.178C208.978 110.178 211.718 109.918 214.397 109.407L293.236 94.3629C294.761 94.0726 296.051 92.987 296.6 91.5288L317.321 36.5794C317.991 34.8049 317.299 32.7854 315.679 31.78H315.681ZM316.297 36.1894L295.576 91.1388C295.161 92.2395 294.187 93.0607 293.033 93.2795L214.193 108.323C208.969 109.32 203.538 109.32 198.314 108.323L119.474 93.2795C118.321 93.0607 117.346 92.2395 116.932 91.1366L96.2107 36.1873C95.7267 34.9045 96.2279 33.4441 97.4032 32.7139C102.921 29.2883 113.097 24.3263 130.229 20.1488C151.069 15.0656 176.647 12.4893 206.254 12.4893C235.861 12.4893 261.438 15.0656 282.278 20.1488C299.411 24.3263 309.586 29.2883 315.104 32.7139C316.28 33.4441 316.781 34.9045 316.297 36.1873V36.1894Z" fill="#C0E7F5"/>
<path d="M120.604 87.1671C120.866 87.8626 121.469 88.3696 122.197 88.5083L199.18 103.197C201.507 103.641 203.886 103.866 206.254 103.866C208.622 103.866 211 103.641 213.325 103.197L290.309 88.5083C291.037 88.3696 291.639 87.8604 291.901 87.1671L295.738 76.9897H116.765L120.602 87.1671H120.604Z" fill="#274D6E"/>
<path d="M112.153 64.754L116.767 76.992H295.74L300.353 64.754H112.153Z" fill="#C0E7F5"/>
<path d="M144.91 67.5317H143.464V74.2141H146.696V72.823H144.91V67.5317Z" fill="#274D6E"/>
<path d="M151.451 67.5317H150.015V74.2141H151.451V67.5317Z" fill="#274D6E"/>
<path d="M157.81 71.9064L156.265 67.5317H154.772L157.131 74.2141H158.469L160.869 67.5317H159.376L157.81 71.9064Z" fill="#274D6E"/>
<path d="M164.285 74.2141H168.02V72.7862H165.721V71.3063H168.02V69.9044H165.721V68.9553H168.02V67.5317H164.285V74.2141Z" fill="#274D6E"/>
<path d="M178.187 67.5317H176.75V74.2141H178.187V67.5317Z" fill="#274D6E"/>
<path d="M185.98 71.5251L183.392 67.5317H182.046V74.2141H183.491V70.2337L186.077 74.2141H187.425V67.5317H185.98V71.5251Z" fill="#274D6E"/>
<path d="M198.744 69.7267L197.608 67.5317H196.043L198.009 71.3323V74.2141H199.463V71.3323L201.419 67.5317H199.874L198.744 69.7267Z" fill="#274D6E"/>
<path d="M207.98 67.3693C207.362 67.3693 206.777 67.5274 206.239 67.8394C205.703 68.1515 205.275 68.5783 204.968 69.1113C204.661 69.6444 204.506 70.2359 204.506 70.8708C204.506 71.8176 204.839 72.6475 205.498 73.3365C206.157 74.0256 206.993 74.3766 207.989 74.3766C208.985 74.3766 209.758 74.0364 210.423 73.3647C211.089 72.693 211.426 71.861 211.426 70.8924C211.426 69.9239 211.085 69.0745 210.41 68.3941C209.736 67.7138 208.918 67.3693 207.98 67.3693ZM205.962 70.8924C205.962 70.2836 206.157 69.7765 206.541 69.3822C206.923 68.99 207.403 68.7907 207.967 68.7907C208.531 68.7907 209.004 68.9943 209.393 69.3974C209.782 69.8004 209.981 70.3009 209.981 70.8838C209.981 71.4666 209.784 71.9693 209.397 72.368C209.01 72.7667 208.537 72.9682 207.989 72.9682C207.502 72.9682 207.066 72.8122 206.69 72.5045C206.202 72.108 205.962 71.5793 205.962 70.8946V70.8924Z" fill="#274D6E"/>
<path d="M218.145 71.6681C218.145 72.1881 218.1 72.4113 218.063 72.5088C218.011 72.641 217.92 72.7493 217.782 72.836C217.644 72.9227 217.475 72.9682 217.281 72.9682C217.097 72.9682 216.942 72.9292 216.814 72.8512C216.689 72.7732 216.6 72.6735 216.546 72.5435C216.49 72.4091 216.46 72.1665 216.46 71.8219V67.5339H215.01V71.4969C215.01 72.2921 215.086 72.8425 215.243 73.1848C215.401 73.5272 215.665 73.8154 216.028 74.0407C216.391 74.2661 216.821 74.3787 217.305 74.3787C217.674 74.3787 218.002 74.3181 218.283 74.2011C218.566 74.0819 218.819 73.8977 219.035 73.6507C219.251 73.4059 219.4 73.1458 219.476 72.8793C219.551 72.615 219.59 72.1621 219.59 71.4948V67.5317H218.141V71.6681H218.145Z" fill="#274D6E"/>
<path d="M227.292 70.6476C227.508 70.3442 227.616 69.9651 227.616 69.5187C227.616 69.0962 227.517 68.7235 227.325 68.4115C227.13 68.0973 226.869 67.8698 226.547 67.7333C226.229 67.5989 225.717 67.5339 224.985 67.5339H223.576V74.2163H225.022V71.5966L226.409 74.2163H227.999L226.445 71.2911C226.815 71.1394 227.102 70.9228 227.297 70.6498L227.292 70.6476ZM226.121 69.198C226.182 69.2847 226.21 69.3844 226.21 69.5035C226.21 69.705 226.154 69.8437 226.035 69.9261C225.946 69.9867 225.748 70.0604 225.292 70.0604H225.017V68.9532H225.244C225.633 68.9532 225.804 68.9878 225.879 69.0138C225.981 69.0507 226.061 69.1113 226.121 69.198Z" fill="#274D6E"/>
<path d="M239.587 70.8816C239.486 70.7776 239.205 70.5328 238.728 70.1319C238.114 69.6119 237.909 69.4017 237.844 69.3194C237.786 69.2414 237.755 69.1634 237.755 69.0789C237.755 69.003 237.792 68.9359 237.87 68.8709C237.954 68.8015 238.06 68.7669 238.194 68.7669C238.486 68.7669 238.784 68.977 239.08 69.3887L239.151 69.4884L240.231 68.5329L240.16 68.4505C239.812 68.0453 239.484 67.7615 239.181 67.6076C238.877 67.4516 238.55 67.3715 238.213 67.3715C237.686 67.3715 237.237 67.5426 236.878 67.8828C236.515 68.223 236.334 68.639 236.334 69.1157C236.334 69.4472 236.444 69.7809 236.658 70.1103C236.872 70.4353 237.323 70.8773 238.041 71.4645C238.401 71.7592 238.635 71.978 238.738 72.1167C238.831 72.2424 238.879 72.368 238.879 72.4915C238.879 72.6194 238.821 72.7321 238.702 72.8339C238.579 72.9401 238.427 72.9921 238.242 72.9921C237.883 72.9921 237.554 72.7234 237.267 72.1925L237.213 72.0929L235.997 72.8274L236.042 72.9184C236.293 73.4168 236.6 73.7894 236.954 74.0235C237.31 74.2596 237.736 74.3788 238.213 74.3788C238.827 74.3788 239.333 74.1946 239.717 73.8306C240.104 73.4644 240.3 72.9964 240.3 72.4374C240.3 72.1514 240.244 71.8827 240.134 71.6378C240.026 71.3973 239.84 71.1438 239.583 70.8838L239.587 70.8816Z" fill="#274D6E"/>
<path d="M243.312 68.964H244.455V74.2141H245.918V68.964H247.091V67.5317H243.312V68.964Z" fill="#274D6E"/>
<path d="M252.576 69.7267L251.44 67.5317H249.878L251.844 71.3323V74.2141H253.298V71.3323L255.253 67.5317H253.706L252.576 69.7267Z" fill="#274D6E"/>
<path d="M260.108 67.5317H258.662V74.2141H261.894V72.823H260.108V67.5317Z" fill="#274D6E"/>
<path d="M269.041 68.9553V67.5317H265.306V74.2141H269.041V72.7862H266.742V71.3063H269.041V69.9044H266.742V68.9553H269.041Z" fill="#274D6E"/>
<path d="M170.881 92.6015V88.0339C170.736 88.0187 170.604 87.9906 170.483 87.9494C170.289 87.8822 170.098 87.7566 169.917 87.5746L165.628 82.4371H168.755L171.256 85.5075H172.633L175.134 82.4371H178.276L173.972 87.5746C173.804 87.7544 173.614 87.8822 173.41 87.9494C173.287 87.9906 173.153 88.0187 173.006 88.0339V92.6015H170.881Z" fill="white"/>
<path d="M187.963 92.6014V89.5246H181.05V92.6014H178.924V85.3969C178.924 84.9895 179.002 84.5995 179.157 84.2398C179.311 83.8823 179.522 83.566 179.784 83.2973C180.047 83.0286 180.363 82.8141 180.719 82.6581C181.078 82.5021 181.467 82.4241 181.873 82.4241H187.136C187.544 82.4241 187.931 82.5021 188.292 82.6581C188.648 82.8119 188.964 83.0286 189.227 83.2973C189.489 83.5638 189.7 83.8823 189.854 84.2398C190.009 84.5995 190.087 84.9895 190.087 85.3969V92.6014H187.961H187.963ZM187.963 87.3773V85.3969C187.963 85.165 187.883 84.9744 187.721 84.8119C187.559 84.6494 187.369 84.5692 187.138 84.5692H181.875C181.644 84.5692 181.454 84.6494 181.29 84.8119C181.128 84.9744 181.05 85.165 181.05 85.3969V87.3773H187.963Z" fill="white"/>
<path d="M199.425 92.8224C199.241 92.8224 199.059 92.7834 198.887 92.7054C198.712 92.6253 198.556 92.5061 198.424 92.3523L194.432 85.6461V92.6014H192.319V83.5877C192.319 83.2886 192.405 83.0221 192.574 82.7968C192.738 82.5779 192.943 82.4198 193.183 82.3309C193.336 82.2746 193.496 82.2443 193.663 82.2443C193.753 82.2443 193.846 82.2529 193.943 82.2703C194.222 82.3223 194.464 82.4674 194.665 82.7014L199.431 90.0793L204.199 82.7014C204.4 82.4674 204.642 82.3223 204.921 82.2724C205.016 82.2551 205.109 82.2464 205.202 82.2464C205.366 82.2464 205.528 82.2746 205.679 82.3309C205.919 82.4219 206.124 82.5779 206.288 82.799C206.457 83.0243 206.543 83.2908 206.543 83.5898V92.6036H204.43V85.6483L200.436 92.3566C200.304 92.5104 200.146 92.6296 199.967 92.7076C199.79 92.7856 199.606 92.8246 199.425 92.8246V92.8224Z" fill="white"/>
<path d="M217.743 92.6014V89.5246H210.83V92.6014H208.704V85.3969C208.704 84.9895 208.781 84.5995 208.937 84.2398C209.09 83.8823 209.302 83.566 209.564 83.2973C209.827 83.0286 210.143 82.8141 210.499 82.6581C210.858 82.5021 211.247 82.4241 211.653 82.4241H216.916C217.324 82.4241 217.711 82.5021 218.071 82.6581C218.428 82.8119 218.743 83.0286 219.007 83.2973C219.268 83.5638 219.48 83.8801 219.633 84.2398C219.789 84.5995 219.867 84.9895 219.867 85.3969V92.6014H217.741H217.743ZM217.743 87.3773V85.3969C217.743 85.165 217.663 84.9744 217.501 84.8119C217.339 84.6494 217.149 84.5692 216.918 84.5692H211.655C211.424 84.5692 211.234 84.6494 211.069 84.8119C210.907 84.9744 210.83 85.165 210.83 85.3969V87.3773H217.743Z" fill="white"/>
<path d="M231.468 92.6014V88.4325H224.224V92.6014H222.099V82.4652H224.224V86.3004H231.468V82.4652H233.607V92.6014H231.468Z" fill="white"/>
<path d="M244.751 92.6014V89.5246H237.838V92.6014H235.712V85.3969C235.712 84.9874 235.789 84.5995 235.945 84.2398C236.098 83.8823 236.31 83.566 236.571 83.2973C236.835 83.0286 237.15 82.8141 237.507 82.6581C237.866 82.5021 238.255 82.4241 238.661 82.4241H243.924C244.332 82.4241 244.719 82.5021 245.077 82.6581C245.434 82.8119 245.749 83.0264 246.013 83.2973C246.274 83.5638 246.486 83.8801 246.639 84.2398C246.795 84.5995 246.873 84.9895 246.873 85.3969V92.6014H244.747H244.751ZM244.751 87.3773V85.3969C244.751 85.165 244.673 84.9744 244.509 84.8119C244.347 84.6494 244.157 84.5692 243.926 84.5692H238.663C238.432 84.5692 238.242 84.6494 238.077 84.8119C237.915 84.9744 237.838 85.165 237.838 85.3969V87.3773H244.751Z" fill="white"/>
<path d="M234.083 45.1144C233.828 44.8588 233.555 44.6226 233.272 44.3972C232.171 43.5262 230.835 42.8805 229.137 42.4017C228.126 42.1178 227.094 41.8686 226.093 41.6303C224.883 41.3399 223.632 41.0409 222.431 40.6769C221.228 40.3129 220.104 39.7755 219.182 39.1277C218.676 38.7723 218.35 38.2566 218.264 37.6738C218.171 37.0411 218.357 36.3889 218.789 35.8363C219.15 35.3748 219.703 34.9328 220.303 34.6251C221.591 33.9642 223.066 33.6544 224.94 33.6544C225.361 33.6544 225.808 33.6696 226.305 33.6999C228.707 33.8494 231.093 34.6229 233.597 36.0638L233.934 36.2589L235.796 34.5926C235.796 34.5926 233.147 32.2915 229.909 31.3359C229.902 31.3359 229.896 31.3316 229.889 31.3294C229.881 31.3273 229.872 31.3229 229.863 31.3208H229.868C228.105 30.7813 226.158 30.5126 223.985 30.5126C223.758 30.5126 223.529 30.5147 223.302 30.5212C220.273 30.5927 217.81 31.2753 215.768 32.6035C213.137 34.3153 212.011 37.0952 212.83 39.8622C213.433 41.899 214.893 43.4027 217.054 44.2131C217.229 44.2781 217.406 44.3344 217.581 44.3972C218.998 44.8934 220.461 45.2878 221.883 45.6626C222.5 45.8252 223.12 45.9898 223.734 46.161C224.298 46.3192 224.873 46.4578 225.43 46.59C226.584 46.8674 227.67 47.1274 228.705 47.5542C229.541 47.8988 230.12 48.5184 230.334 49.2985C230.552 50.0872 230.371 50.9279 229.822 51.6668C229.265 52.4165 228.422 53.0838 227.569 53.4522C225.754 54.2366 223.842 54.6331 221.889 54.6352C221.042 54.6352 220.18 54.5572 219.314 54.4077C219.188 54.3861 219.065 54.3622 218.944 54.3362C218.856 54.3189 218.767 54.2994 218.679 54.2799C215.47 53.5757 213.007 52.0611 213.007 52.0611L211.128 53.7187C211.128 53.7187 212.297 54.9603 215.047 56.3318C215.174 56.3968 215.302 56.4597 215.429 56.5203C215.647 56.6243 215.874 56.7283 216.112 56.8345L216.084 56.815C218.396 57.7966 220.96 58.2841 223.866 58.2841C224.628 58.2841 225.432 58.2516 226.257 58.1844C229.336 57.9396 231.527 57.2072 233.359 55.8161C234.977 54.5854 235.988 52.7047 236.131 50.6549C236.273 48.5921 235.528 46.5749 234.083 45.1188V45.1144Z" fill="white"/>
<path d="M265.751 45.1144C265.496 44.8588 265.224 44.6226 264.941 44.3972C263.839 43.5262 262.504 42.8805 260.805 42.4017C259.794 42.1178 258.762 41.8686 257.761 41.6303C256.551 41.3399 255.301 41.0409 254.099 40.6769C252.896 40.3129 251.772 39.7755 250.85 39.1277C250.344 38.7723 250.018 38.2566 249.932 37.6738C249.839 37.0411 250.025 36.3889 250.457 35.8363C250.818 35.3748 251.371 34.9328 251.971 34.6251C253.259 33.9642 254.734 33.6544 256.608 33.6544C257.029 33.6544 257.476 33.6696 257.973 33.6999C260.375 33.8494 262.761 34.6229 265.265 36.0638L265.602 36.2589L267.464 34.5926C267.464 34.5926 264.815 32.2915 261.577 31.3359C261.57 31.3359 261.564 31.3316 261.557 31.3294C261.549 31.3273 261.54 31.3229 261.531 31.3208H261.536C259.773 30.7813 257.826 30.5126 255.653 30.5126C255.426 30.5126 255.197 30.5147 254.97 30.5212C251.941 30.5927 249.478 31.2753 247.436 32.6035C244.805 34.3153 243.679 37.0952 244.498 39.8622C245.101 41.899 246.561 43.4027 248.722 44.2131C248.897 44.2781 249.074 44.3344 249.249 44.3972C250.666 44.8934 252.129 45.2878 253.551 45.6626C254.168 45.8252 254.789 45.9898 255.402 46.161C255.966 46.3192 256.541 46.4578 257.098 46.59C258.252 46.8674 259.338 47.1274 260.373 47.5542C261.209 47.8988 261.788 48.5184 262.002 49.2985C262.22 50.0872 262.039 50.9279 261.49 51.6668C260.933 52.4165 260.09 53.0838 259.237 53.4522C257.422 54.2366 255.51 54.6331 253.557 54.6352C252.71 54.6352 251.848 54.5572 250.982 54.4077C250.856 54.3861 250.733 54.3622 250.612 54.3362C250.524 54.3189 250.435 54.2994 250.347 54.2799C247.138 53.5757 244.675 52.0611 244.675 52.0611L242.796 53.7187C242.796 53.7187 243.965 54.9603 246.715 56.3318C246.842 56.3968 246.97 56.4597 247.097 56.5203C247.315 56.6243 247.542 56.7283 247.78 56.8345L247.752 56.815C250.064 57.7966 252.628 58.2841 255.534 58.2841C256.297 58.2841 257.1 58.2516 257.925 58.1844C261.004 57.9396 263.195 57.2072 265.027 55.8161C266.645 54.5854 267.656 52.7047 267.799 50.6549C267.941 48.5921 267.196 46.5749 265.751 45.1188V45.1144Z" fill="white"/>
<path d="M135.194 51.9918C132.498 54.1087 129.385 55.1401 125.677 55.1401C124.627 55.1401 123.504 55.0556 122.337 54.8888C118.883 54.3926 116.655 52.3602 115.713 48.8435C115.333 47.4199 115.141 45.9834 115.13 44.5446C115.141 43.1037 115.333 41.6671 115.713 40.2457C116.653 36.7291 118.88 34.6966 122.337 34.2004C123.504 34.0336 124.627 33.9491 125.677 33.9491C129.385 33.9491 132.498 34.9783 135.194 37.0974L135.471 37.3141L138.009 35.962C138.009 35.962 136.205 33.9253 132.891 32.4237C130.584 31.3403 127.985 30.8094 125.036 30.8094C124.796 30.8094 124.554 30.8138 124.31 30.8203C120.047 30.9438 116.517 32.064 113.512 34.2438C110.15 36.6814 108.147 40.3346 108.013 44.2694C108.011 44.3626 108.013 44.4558 108.013 44.549C108.013 44.6421 108.013 44.7353 108.013 44.8285C108.147 48.7633 110.152 52.4165 113.512 54.8541C116.517 57.0339 120.049 58.1541 124.31 58.2776C124.552 58.2841 124.794 58.2885 125.036 58.2885C127.985 58.2885 130.584 57.7554 132.891 56.6742C136.205 55.1726 138.009 53.1359 138.009 53.1359L135.471 51.7838L135.194 52.0005V51.9918Z" fill="white"/>
<path d="M185.528 44.9151L178.833 58.191C178.833 58.191 186.756 45.225 205.078 40.6293C205.078 40.6293 194.721 40.1504 185.528 44.913V44.9151Z" fill="#EC2227"/>
<path d="M288.952 43.186L278.828 31.5266C278.551 31.2081 278.173 30.8419 277.717 30.8311L273.312 30.8051L270.72 30.7899L272.085 32.35L274.626 35.2513C277.514 38.5513 280.5 41.964 283.458 45.303C284.095 46.0245 284.376 46.7655 284.367 47.7102C284.348 49.721 284.352 51.7664 284.357 53.7425C284.357 54.5421 284.359 55.3416 284.361 56.139V58.2776H290.868C290.868 58.2776 290.868 54.5139 290.87 53.7274C290.875 51.7946 290.877 49.7968 290.86 47.8316C290.851 46.8132 291.171 45.9747 291.864 45.1946C293.884 42.9303 295.915 40.6054 297.879 38.3584C298.62 37.5091 299.361 36.6619 300.104 35.8147L304.494 30.8007H303.302C302.965 30.8007 302.651 30.8029 302.355 30.8072C302.094 30.8094 301.846 30.8116 301.606 30.8116C301.269 30.8116 300.947 30.8072 300.627 30.7921C300.584 30.7921 300.543 30.7899 300.502 30.7899C299.882 30.7899 299.409 31.0196 298.966 31.5353L288.952 43.186Z" fill="white"/>
<path d="M144.929 55.7489C144.931 57.3805 145.862 58.2776 147.545 58.2797H166.782V55.4954H151.462C151.24 55.4954 151.058 55.3134 151.058 55.0902V30.8051H144.923L144.929 55.7489Z" fill="white"/>
<path d="M204.595 57.1531C204.517 56.9819 204.454 56.8454 204.385 56.7111C203.389 54.7805 202.391 52.8499 201.393 50.9193L199.325 46.9151C198.699 45.6995 198.063 44.4731 197.426 43.2402C196.454 43.6649 195.521 44.1113 194.628 44.5728C196.767 48.8023 198.91 53.0319 201.06 57.2571C201.213 57.5583 201.613 58.0891 202.138 58.1628C202.399 58.1996 202.685 58.217 203.037 58.217C203.225 58.217 203.415 58.2126 203.611 58.2083C203.81 58.204 204.018 58.1975 204.229 58.1975H205.078L204.592 57.1531H204.595Z" fill="white"/>
<path d="M190.15 35.7194L185.425 45.1167C184.193 47.5543 182.938 50.0439 181.683 52.54L178.833 58.1931L172.451 58.1996L173.922 55.3373C174.674 53.8726 175.405 52.4512 176.137 51.032C177.049 49.2682 177.963 47.5045 178.876 45.7429C180.935 41.7733 183.066 37.6673 185.129 33.6133C185.913 32.0727 187.106 31.323 188.771 31.323C189.285 31.323 189.845 31.3923 190.48 31.5375C191.195 31.7 191.813 32.4497 192.124 33.0434C193.568 35.7952 195.011 38.5752 196.443 41.34C195.449 41.5177 194.406 41.7365 193.332 42.0073L190.15 35.7194Z" fill="white"/>
<path d="M388.785 284.625L376.109 284.731L376.038 259.638C381.927 259.25 386.603 254.334 386.603 248.312L386.445 161.925L351.612 162.088V161.925L314.525 162.098V161.955L247.346 162.111V161.958L162.567 162.144V172.384C153.618 164.059 141.658 158.959 128.531 158.959C115.404 158.959 102.636 164.391 93.5814 173.188L93.4712 151.932L52.565 173.387L11.3845 152.125L11.4946 216.389L26.5098 225.344L26.6114 247.001L9.049 247.047L9.19807 328.082H43.5386C49.3308 328.082 54.1119 323.681 54.7449 317.989L54.7644 328.082H110.509C110.509 328.082 110.526 328.082 110.535 328.082H142.799C150.479 328.082 157.483 325.122 162.74 320.284L162.761 328.082H197.819C200.016 328.082 202.062 327.438 203.797 326.344V328.084H238.06C244.28 328.084 249.342 323.009 249.342 316.75L249.312 300.031L259.773 323.226L262.83 329.913H270.065L277.631 329.848L277.7 329.679H338.256C340.332 329.679 342.307 329.107 344.018 328.084H377.667C383.887 328.084 388.947 323.009 388.947 316.713L388.78 284.629L388.785 284.625ZM78.7066 246.984L78.6569 225.377L80.5127 224.25C83.2587 233.108 88.3963 240.921 95.1585 246.943L78.7066 246.984ZM169.321 246.908H161.878C164.218 244.815 166.359 242.505 168.275 240.009C169.813 242.525 171.63 244.863 173.68 246.99L169.321 247.001V246.908ZM247.043 245.218L238.27 245.242C242.75 239.933 245.825 233.452 246.989 226.302L247.043 245.218ZM324.243 259.614L332.747 259.575L332.781 278.617L324.243 259.614Z" fill="white"/>
<path d="M115.234 316.873L115.125 296.033L136.313 295.925L136.205 294.811L131.439 294.432C121.985 293.16 115.125 285.624 115.125 276.515C115.125 266.368 123.357 258.112 133.476 258.112H158.205L158.313 278.955L138.908 279.061L139.016 280.172L139.32 280.083C141.189 280.172 144.311 280.32 145.89 280.473C154.591 281.444 161.15 289.182 161.15 298.471C161.15 308.62 152.918 316.873 142.801 316.873H115.236H115.234Z" fill="#5477B5"/>
<path d="M173.903 316.873L173.795 278.957L162.554 279.063L162.446 258.223L209.173 258.115L209.281 278.957L197.821 279.063L197.929 316.767C197.929 316.828 197.882 316.873 197.821 316.873H173.905H173.903Z" fill="#089B65"/>
<path d="M20.3525 316.873L20.2445 258.221L63.1599 258.112L63.2679 278.955L43.1346 279.061L43.2426 281.966L57.0912 283.565L57.1862 296.521L43.5386 296.627L43.6466 316.763C43.6466 316.823 43.5969 316.871 43.5386 316.871H20.3504L20.3525 316.873Z" fill="#FCCD0E"/>
<path d="M270.067 318.702C270.024 318.702 269.985 318.678 269.968 318.639L241.916 256.435L298.119 256.284L270.165 318.639C270.147 318.678 270.108 318.702 270.065 318.702H270.067Z" fill="#5477B5"/>
<path d="M344.022 316.873L343.916 258.221L364.862 258.112L364.968 296.031L377.671 295.925L377.779 316.765C377.779 316.825 377.732 316.873 377.671 316.873H344.024H344.022Z" fill="#089B65"/>
<path d="M283.129 318.468L310.598 256.518L338.362 318.314C338.375 318.349 338.372 318.388 338.355 318.418C338.334 318.45 338.299 318.468 338.262 318.468H283.132H283.129Z" fill="#FCCD0E"/>
<path d="M65.9166 316.873L65.8086 258.221L110.509 258.112L110.617 278.955L87.7265 279.061L87.8345 281.639L104.198 283.643L104.293 294.731L87.7265 294.839L87.8345 297.493L110.519 299.584L110.617 316.765C110.617 316.825 110.567 316.873 110.509 316.873H65.9166Z" fill="#819477"/>
<path d="M214.956 316.873L214.848 258.221L238.062 258.112L238.17 316.765C238.17 316.825 238.121 316.873 238.062 316.873H214.956Z" fill="#D33F44"/>
<path d="M128.531 248.47C106.974 248.47 89.4376 230.93 89.4376 209.369C89.4376 187.807 106.974 170.163 128.531 170.163C150.088 170.163 167.519 187.753 167.519 209.369C167.519 230.984 150.028 248.47 128.531 248.47Z" fill="#FCCD0E"/>
<path d="M345.688 248.47L345.549 221.765L340.494 221.903L340.632 248.329L310.889 248.468L310.751 173.318L340.496 173.179L340.634 199.885L345.692 199.746L345.554 173.32L375.297 173.181L375.435 248.331C375.435 248.409 375.375 248.47 375.297 248.47H345.692H345.688Z" fill="#FCCD0E"/>
<path d="M258.224 248.47L258.085 199.889L243.682 200.026L243.543 173.322L303.412 173.184L303.55 199.889L288.87 200.026L289.008 248.334C289.008 248.412 288.945 248.47 288.87 248.47H258.226H258.224Z" fill="#089B65"/>
<path d="M202.963 248.47C186.848 248.158 173.739 235.331 173.739 219.888V173.324L236.202 173.186L236.34 219.891C236.34 235.593 223.55 248.152 207.222 248.472H202.961L202.963 248.47Z" fill="#A2356F"/>
<path d="M37.7918 248.47L37.6535 218.95L22.6577 210.008L22.5886 170.512L52.6061 186.011L82.3923 170.386L82.5954 209.889L67.4657 219.071L67.5327 248.336C67.5327 248.414 67.4722 248.472 67.3944 248.472H37.7896L37.7918 248.47Z" fill="#D33F44"/>
</g>
<defs>
<filter id="filter0_d_601_21179" x="0" y="0" width="398.002" height="444" filterUnits="userSpaceOnUse" color-interpolation-filters="sRGB">
<feFlood flood-opacity="0" result="BackgroundImageFix"/>
<feColorMatrix in="SourceAlpha" type="matrix" values="0 0 0 0 0 0 0 0 0 0 0 0 0 0 0 0 0 0 127 0" result="hardAlpha"/>
<feOffset dy="4"/>
<feGaussianBlur stdDeviation="2"/>
<feComposite in2="hardAlpha" operator="out"/>
<feColorMatrix type="matrix" values="0 0 0 0 0 0 0 0 0 0 0 0 0 0 0 0 0 0 0.25 0"/>
<feBlend mode="normal" in2="BackgroundImageFix" result="effect1_dropShadow_601_21179"/>
<feBlend mode="normal" in="SourceGraphic" in2="effect1_dropShadow_601_21179" result="shape"/>
</filter>
</defs>
</svg>
