<svg width="25" height="24" viewBox="0 0 25 24" fill="none" xmlns="http://www.w3.org/2000/svg">
<rect x="0.5" width="24" height="24" rx="12" fill="#5180A2"/>
<path d="M9.54326 10.6878L8.30846 11.9226C7.80207 12.429 7.51758 13.1158 7.51758 13.832C7.51758 14.5481 7.80207 15.2349 8.30846 15.7413C8.81485 16.2477 9.50166 16.5322 10.2178 16.5322C10.934 16.5322 11.6208 16.2477 12.1272 15.7413L13.7724 14.0952C14.0777 13.7898 14.3054 13.4156 14.4362 13.004C14.567 12.5924 14.5972 12.1554 14.5242 11.7298C14.4512 11.3041 14.2771 10.9021 14.0166 10.5577C13.7562 10.2132 13.4168 9.93621 13.0272 9.75L12.4998 10.2774C12.4462 10.331 12.3996 10.3912 12.3612 10.4565C12.6622 10.5431 12.9355 10.7067 13.154 10.9312C13.3724 11.1557 13.5285 11.4334 13.6068 11.7367C13.685 12.0401 13.6828 12.3586 13.6002 12.6608C13.5177 12.963 13.3577 13.2384 13.1361 13.4598L11.4918 15.105C11.154 15.4428 10.6959 15.6325 10.2183 15.6325C9.7406 15.6325 9.28251 15.4428 8.94476 15.105C8.607 14.7672 8.41726 14.3092 8.41726 13.8315C8.41726 13.3538 8.607 12.8958 8.94476 12.558L9.65846 11.8452C9.55776 11.4679 9.51886 11.0767 9.54326 10.6869V10.6878Z" fill="white"/>
<path d="M11.2272 9.00493C10.9218 9.31034 10.6942 9.68454 10.5634 10.0961C10.4325 10.5077 10.4024 10.9447 10.4754 11.3704C10.5484 11.796 10.7224 12.198 10.9829 12.5425C11.2434 12.8869 11.5827 13.1639 11.9724 13.3501L12.6699 12.6517C12.3648 12.5699 12.0865 12.4092 11.8632 12.1857C11.6398 11.9623 11.4792 11.684 11.3975 11.3788C11.3158 11.0736 11.3158 10.7523 11.3976 10.4471C11.4794 10.142 11.6401 9.86371 11.8635 9.64033L13.5078 7.99513C13.8456 7.65737 14.3036 7.46763 14.7813 7.46763C15.259 7.46763 15.717 7.65737 16.0548 7.99513C16.3926 8.33288 16.5823 8.79097 16.5823 9.26863C16.5823 9.74628 16.3926 10.2044 16.0548 10.5421L15.3411 11.2549C15.4419 11.6329 15.4806 12.0244 15.4563 12.4132L16.6911 11.1784C17.1975 10.672 17.482 9.98522 17.482 9.26908C17.482 8.55293 17.1975 7.86612 16.6911 7.35973C16.1847 6.85334 15.4979 6.56885 14.7817 6.56885C14.0656 6.56885 13.3788 6.85334 12.8724 7.35973L11.2272 9.00493Z" fill="white"/>
</svg>
