<svg width="24" height="24" viewBox="0 0 24 24" fill="none" xmlns="http://www.w3.org/2000/svg">
<path d="M12.4307 8.85906C11.2637 9.34506 8.92969 10.3501 5.43169 11.8741C4.86469 12.0991 4.56619 12.3211 4.53919 12.5371C4.49419 12.9016 4.95169 13.0456 5.57419 13.2421L5.83669 13.3246C6.44869 13.5241 7.27369 13.7566 7.70119 13.7656C8.09119 13.7746 8.52469 13.6156 9.00319 13.2856C12.2717 11.0791 13.9592 9.96456 14.0642 9.94056C14.1392 9.92256 14.2442 9.90156 14.3132 9.96456C14.3837 10.0261 14.3762 10.1446 14.3687 10.1761C14.3237 10.3696 12.5282 12.0376 11.5997 12.9016C11.3102 13.1716 11.1047 13.3621 11.0627 13.4056C10.9702 13.5001 10.8762 13.5931 10.7807 13.6846C10.2107 14.2336 9.78469 14.6446 10.8032 15.3166C11.2937 15.6406 11.6867 15.9061 12.0782 16.1731C12.5042 16.4641 12.9302 16.7536 13.4822 17.1166C13.6217 17.2066 13.7567 17.3041 13.8872 17.3971C14.3837 17.7511 14.8322 18.0691 15.3827 18.0181C15.7037 17.9881 16.0352 17.6881 16.2032 16.7881C16.6007 14.6626 17.3822 10.0591 17.5622 8.16156C17.5732 8.00382 17.5666 7.84535 17.5427 7.68906C17.5286 7.56294 17.4675 7.44674 17.3717 7.36356C17.2352 7.26934 17.0725 7.22053 16.9067 7.22406C16.4567 7.23156 15.7622 7.47306 12.4307 8.85906Z" fill="#6DACD7"/>
</svg>
