<svg width="32" height="32" viewBox="0 0 32 32" fill="none" xmlns="http://www.w3.org/2000/svg">
<rect width="32" height="32" rx="16" fill="#6DACD7"/>
<path fill-rule="evenodd" clip-rule="evenodd" d="M25.3004 10.1114C24.7544 10.8934 24.1244 11.5885 23.3684 12.1532C23.3684 12.2836 23.3684 12.4573 23.3684 12.6745C23.3684 13.7606 23.2424 14.8467 22.9064 15.8893C22.6124 16.9754 22.1504 18.018 21.5204 18.9737C20.9324 19.9729 20.1764 20.8418 19.3364 21.6237C18.4544 22.3622 17.4464 22.9704 16.2284 23.4049C15.0104 23.8827 13.7084 24.1 12.3644 24.1C10.1804 24.1 8.20639 23.4918 6.40039 22.2754C6.69439 22.3188 6.98839 22.3622 7.32439 22.3622C9.13039 22.3622 10.7264 21.7541 12.1544 20.6245C11.3144 20.6245 10.5584 20.3639 9.88639 19.8426C9.21439 19.3213 8.75239 18.6696 8.50039 17.8442C8.79439 17.8877 9.04639 17.9311 9.25639 17.9311C9.59239 17.9311 9.92839 17.8877 10.2644 17.7573C9.38239 17.5836 8.62639 17.1057 8.03839 16.4106C7.45039 15.6721 7.15639 14.8032 7.15639 13.8475V13.804C7.70239 14.1081 8.29039 14.2819 8.92039 14.2819C8.37439 13.9344 7.95439 13.4565 7.66039 12.8918C7.32439 12.2836 7.19839 11.6319 7.19839 10.9803C7.19839 10.2418 7.36639 9.54667 7.70239 8.93848C8.66839 10.1549 9.84439 11.154 11.2304 11.8926C12.6164 12.6311 14.1284 13.0655 15.7244 13.1524C15.6404 12.8049 15.5984 12.5008 15.5984 12.1967C15.5984 11.1106 15.9764 10.1549 16.7324 9.3729C17.4884 8.59093 18.4124 8.19995 19.5044 8.19995C20.5964 8.19995 21.5624 8.63438 22.3184 9.45979C23.2004 9.28602 23.9984 8.98192 24.7964 8.50405C24.5024 9.45979 23.9144 10.1983 23.0744 10.7196C23.8304 10.6327 24.5444 10.4155 25.3004 10.1114Z" fill="white"/>
</svg>
