<svg width="24" height="24" viewBox="0 0 24 24" fill="none" xmlns="http://www.w3.org/2000/svg">
<path fill-rule="evenodd" clip-rule="evenodd" d="M18.9748 7.58375C18.5653 8.17023 18.0928 8.69154 17.5258 9.11511C17.5258 9.21285 17.5258 9.34318 17.5258 9.50609C17.5258 10.3206 17.4313 11.1352 17.1793 11.9172C16.9588 12.7317 16.6123 13.5137 16.1398 14.2305C15.6988 14.9799 15.1318 15.6315 14.5018 16.218C13.8403 16.7719 13.0843 17.228 12.1708 17.5538C11.2573 17.9122 10.2808 18.0751 9.2728 18.0751C7.6348 18.0751 6.1543 17.619 4.7998 16.7067C5.0203 16.7393 5.2408 16.7719 5.4928 16.7719C6.8473 16.7719 8.04431 16.3157 9.11531 15.4686C8.48531 15.4686 7.9183 15.2731 7.4143 14.8821C6.9103 14.4911 6.5638 14.0024 6.3748 13.3833C6.5953 13.4159 6.7843 13.4485 6.94181 13.4485C7.1938 13.4485 7.44581 13.4159 7.6978 13.3182C7.0363 13.1879 6.4693 12.8295 6.0283 12.3081C5.5873 11.7542 5.3668 11.1026 5.3668 10.3858V10.3532C5.7763 10.5813 6.2173 10.7116 6.6898 10.7116C6.2803 10.451 5.9653 10.0926 5.7448 9.669C5.4928 9.21285 5.3983 8.72412 5.3983 8.23539C5.3983 7.6815 5.5243 7.16019 5.7763 6.70404C6.5008 7.61634 7.38281 8.36572 8.42231 8.91961C9.46181 9.47351 10.5958 9.79933 11.7928 9.86449C11.7298 9.60383 11.6983 9.37576 11.6983 9.14769C11.6983 8.33314 11.9818 7.61634 12.5488 7.02986C13.1158 6.44338 13.8088 6.15015 14.6278 6.15015C15.4468 6.15015 16.1713 6.47597 16.7383 7.09502C17.3998 6.9647 17.9983 6.73662 18.5968 6.37822C18.3763 7.09502 17.9353 7.64892 17.3053 8.0399C17.8723 7.97474 18.4078 7.81183 18.9748 7.58375Z" fill="#6DACD7"/>
</svg>
