<svg width="24" height="24" viewBox="0 0 24 24" fill="none" xmlns="http://www.w3.org/2000/svg">
<path d="M15.44 13.1509L15.4344 13.1977C14.06 12.5127 13.9162 12.4215 13.7387 12.6877C13.6156 12.8721 13.2568 13.2902 13.1488 13.414C13.0394 13.5358 12.9306 13.5452 12.745 13.4608C12.5575 13.3671 11.9556 13.1702 11.2431 12.5327C10.6881 12.0358 10.3156 11.4265 10.2056 11.239C10.0225 10.9227 10.4056 10.8777 10.7544 10.2177C10.8169 10.0864 10.785 9.98332 10.7387 9.89025C10.6918 9.7965 10.3187 8.87775 10.1625 8.51145C10.0125 8.1465 9.85815 8.1927 9.7425 8.1927C9.3825 8.1615 9.1194 8.16645 8.8875 8.40772C7.87875 9.51645 8.13315 10.6602 8.99625 11.8765C10.6925 14.0965 11.5963 14.5052 13.2487 15.0727C13.695 15.2146 14.1019 15.1946 14.4238 15.1483C14.7825 15.0915 15.5281 14.6977 15.6838 14.2571C15.8431 13.8165 15.8431 13.4509 15.7963 13.3665C15.75 13.2821 15.6275 13.2352 15.44 13.1509Z" fill="#6DACD7"/>
<path d="M17.324 6.36415C12.5184 1.71852 4.56527 5.0879 4.56214 11.6417C4.56214 12.9516 4.90527 14.2292 5.55902 15.3572L4.49902 19.2085L8.45842 18.176C13.399 20.8448 19.4965 17.301 19.499 11.6454C19.499 9.66039 18.724 7.79229 17.3146 6.38852L17.324 6.36415ZM18.2503 11.6248C18.2465 16.3954 13.0096 19.3748 8.86777 16.9397L8.64277 16.806L6.29902 17.4154L6.92715 15.1373L6.77777 14.9029C4.20027 10.7998 7.16152 5.43728 12.044 5.43728C13.7028 5.43728 15.2596 6.08415 16.4321 7.25603C17.604 8.41787 18.2503 9.97479 18.2503 11.6248Z" fill="#6DACD7"/>
</svg>
