<svg width="32" height="32" viewBox="0 0 32 32" fill="none" xmlns="http://www.w3.org/2000/svg">
<path d="M0 16C0 7.16344 7.16344 0 16 0C24.8366 0 32 7.16344 32 16C32 24.8366 24.8366 32 16 32C7.16344 32 0 24.8366 0 16Z" fill="#6DACD7"/>
<path d="M20.5873 17.5347L20.5799 17.5972C18.7474 16.6838 18.5556 16.5622 18.3189 16.9172C18.1548 17.163 17.6765 17.7205 17.5324 17.8855C17.3865 18.048 17.2415 18.0605 16.994 17.948C16.744 17.823 15.9414 17.5605 14.9914 16.7105C14.2514 16.048 13.7548 15.2355 13.6082 14.9855C13.364 14.5638 13.8749 14.5038 14.3398 13.6238C14.4232 13.4488 14.3807 13.3113 14.319 13.1872C14.2565 13.0622 13.759 11.8372 13.5507 11.3488C13.3507 10.8622 13.1448 10.9238 12.9906 10.9238C12.5106 10.8822 12.1599 10.8888 11.8507 11.2105C10.5057 12.6888 10.8448 14.2138 11.9956 15.8355C14.2573 18.7955 15.4623 19.3405 17.6656 20.0972C18.2606 20.2863 18.8032 20.2597 19.2324 20.198C19.7107 20.1222 20.7049 19.5972 20.9124 19.0097C21.1249 18.4222 21.1249 17.9347 21.0624 17.8222C21.0007 17.7097 20.8373 17.6472 20.5873 17.5347Z" fill="white"/>
<path d="M23.098 8.48561C16.6905 2.29144 6.08638 6.78394 6.08221 15.5223C6.08221 17.2689 6.53971 18.9723 7.41138 20.4764L5.99805 25.6114L11.2772 24.2348C17.8647 27.7931 25.9947 23.0681 25.998 15.5273C25.998 12.8806 24.9647 10.3898 23.0855 8.51811L23.098 8.48561ZM24.333 15.4998C24.328 21.8606 17.3455 25.8331 11.823 22.5864L11.523 22.4081L8.39805 23.2206L9.23555 20.1831L9.03638 19.8706C5.59971 14.3998 9.54805 7.24978 16.058 7.24978C18.2697 7.24978 20.3455 8.11228 21.9088 9.67478C23.4713 11.2239 24.333 13.2998 24.333 15.4998Z" fill="white"/>
</svg>
