<svg width="32" height="32" viewBox="0 0 32 32" fill="none" xmlns="http://www.w3.org/2000/svg">
<rect width="32" height="32" rx="16" fill="#6B7280"/>
<path d="M12.0581 14.2504L10.4117 15.8968C9.73649 16.572 9.35718 17.4877 9.35718 18.4426C9.35718 19.3975 9.73649 20.3132 10.4117 20.9884C11.0869 21.6636 12.0026 22.0429 12.9575 22.0429C13.9123 22.0429 14.8281 21.6636 15.5033 20.9884L17.6969 18.7936C18.104 18.3864 18.4076 17.8874 18.582 17.3387C18.7564 16.7899 18.7967 16.2072 18.6993 15.6397C18.602 15.0721 18.3699 14.5362 18.0226 14.0769C17.6753 13.6176 17.2229 13.2483 16.7033 13L16.0001 13.7032C15.9287 13.7747 15.8666 13.855 15.8153 13.942C16.2167 14.0574 16.5811 14.2756 16.8724 14.5749C17.1636 14.8743 17.3717 15.2445 17.4761 15.649C17.5804 16.0534 17.5774 16.4781 17.4674 16.881C17.3573 17.284 17.144 17.6512 16.8485 17.9464L14.6561 20.14C14.2057 20.5903 13.595 20.8433 12.9581 20.8433C12.3212 20.8433 11.7104 20.5903 11.2601 20.14C10.8097 19.6897 10.5567 19.0789 10.5567 18.442C10.5567 17.8051 10.8097 17.1943 11.2601 16.744L12.2117 15.7936C12.0774 15.2905 12.0255 14.7689 12.0581 14.2492V14.2504Z" fill="white"/>
<path d="M14.3033 12.0064C13.8961 12.4136 13.5926 12.9126 13.4181 13.4613C13.2437 14.0101 13.2035 14.5928 13.3008 15.1603C13.3982 15.7279 13.6302 16.2638 13.9775 16.7231C14.3249 17.1824 14.7773 17.5517 15.2969 17.8L16.2269 16.8688C15.82 16.7597 15.449 16.5454 15.1512 16.2474C14.8534 15.9495 14.6393 15.5785 14.5303 15.1716C14.4213 14.7646 14.4214 14.3362 14.5305 13.9293C14.6395 13.5225 14.8538 13.1515 15.1517 12.8536L17.3441 10.66C17.7944 10.2097 18.4052 9.95667 19.0421 9.95667C19.6789 9.95667 20.2897 10.2097 20.7401 10.66C21.1904 11.1103 21.4434 11.7211 21.4434 12.358C21.4434 12.9949 21.1904 13.6057 20.7401 14.056L19.7885 15.0064C19.9229 15.5104 19.9745 16.0324 19.9421 16.5508L21.5885 14.9044C22.2636 14.2292 22.643 13.3135 22.643 12.3586C22.643 11.4037 22.2636 10.488 21.5885 9.81281C20.9133 9.13762 19.9975 8.7583 19.0427 8.7583C18.0878 8.7583 17.172 9.13762 16.4969 9.81281L14.3033 12.0064Z" fill="white"/>
</svg>
