<svg width="32" height="32" viewBox="0 0 32 32" fill="none" xmlns="http://www.w3.org/2000/svg">
<g clip-path="url(#clip0_2897_1721)">
<path d="M0 16C0 7.16344 7.16344 0 16 0C24.8366 0 32 7.16344 32 16C32 24.8366 24.8366 32 16 32C7.16344 32 0 24.8366 0 16Z" fill="#3ACE01"/>
<path d="M20.5873 17.5347L20.5799 17.5972C18.7474 16.6838 18.5556 16.5622 18.3189 16.9172C18.1548 17.163 17.6765 17.7205 17.5324 17.8855C17.3865 18.048 17.2415 18.0605 16.994 17.948C16.744 17.823 15.9414 17.5605 14.9914 16.7105C14.2514 16.048 13.7548 15.2355 13.6082 14.9855C13.364 14.5638 13.8749 14.5038 14.3398 13.6238C14.4232 13.4488 14.3807 13.3113 14.319 13.1872C14.2565 13.0622 13.759 11.8372 13.5507 11.3488C13.3507 10.8622 13.1448 10.9238 12.9906 10.9238C12.5106 10.8822 12.1599 10.8888 11.8507 11.2105C10.5057 12.6888 10.8448 14.2138 11.9956 15.8355C14.2573 18.7955 15.4623 19.3405 17.6656 20.0972C18.2606 20.2863 18.8032 20.2597 19.2324 20.198C19.7107 20.1222 20.7049 19.5972 20.9124 19.0097C21.1249 18.4222 21.1249 17.9347 21.0624 17.8222C21.0007 17.7097 20.8373 17.6472 20.5873 17.5347Z" fill="white"/>
<path d="M23.0982 8.48561C16.6907 2.29144 6.0865 6.78394 6.08233 15.5223C6.08233 17.2689 6.53983 18.9723 7.4115 20.4764L5.99817 25.6114L11.2774 24.2348C17.8649 27.7931 25.9949 23.0681 25.9982 15.5273C25.9982 12.8806 24.9649 10.3898 23.0857 8.51811L23.0982 8.48561ZM24.3332 15.4998C24.3282 21.8606 17.3457 25.8331 11.8232 22.5864L11.5232 22.4081L8.39817 23.2206L9.23567 20.1831L9.0365 19.8706C5.59983 14.3998 9.54817 7.24978 16.0582 7.24978C18.2699 7.24978 20.3457 8.11228 21.909 9.67478C23.4715 11.2239 24.3332 13.2998 24.3332 15.4998Z" fill="white"/>
</g>
<defs>
<clipPath id="clip0_2897_1721">
<rect width="32" height="32" fill="white"/>
</clipPath>
</defs>
</svg>
