<svg width="32" height="32" viewBox="0 0 32 32" fill="none" xmlns="http://www.w3.org/2000/svg">
<rect width="32" height="32" rx="16" fill="#0077B5"/>
<path fill-rule="evenodd" clip-rule="evenodd" d="M10.9719 12.7671V25.3H6.91575V12.7671H10.9719ZM11.2308 8.86995C11.2308 9.48995 11.0582 10.0214 10.6267 10.42C10.1952 10.8185 9.63425 11.04 8.94383 11.04C8.25342 11.04 7.69246 10.8185 7.30411 10.42C6.8726 10.0214 6.7 9.48995 6.7 8.86995C6.7 8.24995 6.8726 7.71852 7.30411 7.31995C7.73562 6.92138 8.29657 6.69995 8.98699 6.69995C9.6774 6.69995 10.1952 6.92138 10.6267 7.31995C11.0151 7.71852 11.2308 8.24995 11.2308 8.86995ZM25.6 18.0814V25.3H21.5438V18.5685C21.5438 17.6828 21.4144 17.0185 21.0692 16.4871C20.724 16 20.2062 15.7342 19.5158 15.7342C18.9979 15.7342 18.5664 15.9114 18.2212 16.1771C17.8329 16.4871 17.574 16.8414 17.4014 17.2842C17.3151 17.5057 17.2719 17.86 17.2719 18.3028V25.3H13.2158C13.2589 21.9342 13.2589 19.1885 13.2589 17.1071C13.2589 15.0257 13.2589 13.7414 13.2589 13.3428L13.2158 12.7671H17.2719V14.5828C17.4445 14.3171 17.574 14.0514 17.7466 13.8742C17.9192 13.6528 18.1781 13.4314 18.4801 13.21C18.739 12.9885 19.1274 12.7671 19.5158 12.6342C19.9473 12.5014 20.4219 12.4571 20.9397 12.4571C22.3637 12.4571 23.4856 12.9442 24.3486 13.8742C25.2116 14.8485 25.6 16.2657 25.6 18.0814Z" fill="white"/>
</svg>
