<svg width="20" height="21" viewBox="0 0 20 21" fill="none" xmlns="http://www.w3.org/2000/svg">
<g clip-path="url(#clip0_1389_33600)">
<path fill-rule="evenodd" clip-rule="evenodd" d="M20.3485 17.108C20.3486 17.1902 20.3324 17.2716 20.301 17.3476C20.2696 17.4235 20.2235 17.4926 20.1654 17.5507C20.1073 17.6088 20.0382 17.6549 19.9623 17.6863C19.8863 17.7177 19.8049 17.7338 19.7227 17.7337L0.277234 17.7337C0.111264 17.7337 -0.0479081 17.6678 -0.165266 17.5504C-0.282625 17.4331 -0.348556 17.2739 -0.348556 17.1079C-0.348556 16.942 -0.282625 16.7828 -0.165266 16.6654C-0.047908 16.5481 0.111264 16.4822 0.277234 16.4822L19.7227 16.4822C19.8049 16.4821 19.8863 16.4982 19.9623 16.5296C20.0382 16.561 20.1073 16.6071 20.1654 16.6652C20.2235 16.7233 20.2696 16.7924 20.301 16.8683C20.3324 16.9443 20.3486 17.0257 20.3485 17.108Z" fill="#1F2937"/>
<path fill-rule="evenodd" clip-rule="evenodd" d="M20.3485 4.10795C20.3486 4.19016 20.3324 4.27158 20.301 4.34755C20.2696 4.42352 20.2235 4.49255 20.1654 4.55068C20.1073 4.60881 20.0382 4.6549 19.9623 4.68632C19.8863 4.71773 19.8049 4.73384 19.7227 4.73374L0.277234 4.73374C0.111264 4.73374 -0.0479081 4.66781 -0.165266 4.55045C-0.282625 4.43309 -0.348556 4.27392 -0.348556 4.10795C-0.348556 3.94198 -0.282625 3.78281 -0.165266 3.66545C-0.047908 3.54809 0.111264 3.48216 0.277234 3.48216L19.7227 3.48216C19.8049 3.48206 19.8863 3.49817 19.9623 3.52958C20.0382 3.561 20.1073 3.60709 20.1654 3.66522C20.2235 3.72335 20.2696 3.79238 20.301 3.86835C20.3324 3.94432 20.3486 4.02574 20.3485 4.10795Z" fill="#1F2937"/>
<path fill-rule="evenodd" clip-rule="evenodd" d="M-0.34845 10.4998C-0.348554 10.582 -0.332438 10.6634 -0.301026 10.7394C-0.269614 10.8153 -0.223523 10.8844 -0.165392 10.9425C-0.107261 11.0006 -0.0382335 11.0467 0.0377377 11.0781C0.113709 11.1095 0.195131 11.1256 0.27734 11.1255L19.7228 11.1255C19.8887 11.1255 20.0479 11.0596 20.1653 10.9423C20.2826 10.8249 20.3486 10.6657 20.3486 10.4998C20.3486 10.3338 20.2826 10.1746 20.1653 10.0573C20.0479 9.9399 19.8887 9.87397 19.7228 9.87397L0.27734 9.87397C0.195131 9.87386 0.113709 9.88998 0.0377377 9.92139C-0.0382335 9.9528 -0.107261 9.99889 -0.165392 10.057C-0.223523 10.1152 -0.269614 10.1842 -0.301026 10.2602C-0.332438 10.3361 -0.348554 10.4175 -0.34845 10.4998Z" fill="#1F2937"/>
</g>
<defs>
<clipPath id="clip0_1389_33600">
<rect width="20" height="20" fill="white" transform="translate(0 0.5)"/>
</clipPath>
</defs>
</svg>
