<svg width="32" height="32" viewBox="0 0 32 32" fill="none" xmlns="http://www.w3.org/2000/svg">
<rect width="32" height="32" rx="16" fill="#0077B5"/>
<path fill-rule="evenodd" clip-rule="evenodd" d="M10.972 12.7672V25.3001H6.91583V12.7672H10.972ZM11.2309 8.87007C11.2309 9.49007 11.0583 10.0215 10.6268 10.4201C10.1953 10.8186 9.63432 11.0401 8.94391 11.0401C8.2535 11.0401 7.69254 10.8186 7.30418 10.4201C6.87268 10.0215 6.70007 9.49007 6.70007 8.87007C6.70007 8.25007 6.87268 7.71864 7.30418 7.32007C7.73569 6.9215 8.29665 6.70007 8.98706 6.70007C9.67747 6.70007 10.1953 6.9215 10.6268 7.32007C11.0151 7.71864 11.2309 8.25007 11.2309 8.87007ZM25.6001 18.0815V25.3001H21.5439V18.5686C21.5439 17.6829 21.4145 17.0186 21.0693 16.4872C20.724 16.0001 20.2062 15.7344 19.5158 15.7344C18.998 15.7344 18.5665 15.9115 18.2213 16.1772C17.8329 16.4872 17.574 16.8415 17.4014 17.2844C17.3151 17.5058 17.272 17.8601 17.272 18.3029V25.3001H13.2158C13.259 21.9344 13.259 19.1886 13.259 17.1072C13.259 15.0258 13.259 13.7415 13.259 13.3429L13.2158 12.7672H17.272V14.5829C17.4446 14.3172 17.574 14.0515 17.7466 13.8744C17.9193 13.6529 18.1782 13.4315 18.4802 13.2101C18.7391 12.9886 19.1275 12.7672 19.5158 12.6344C19.9473 12.5015 20.422 12.4572 20.9398 12.4572C22.3638 12.4572 23.4857 12.9444 24.3487 13.8744C25.2117 14.8486 25.6001 16.2658 25.6001 18.0815Z" fill="white"/>
</svg>
