<svg width="201" height="200" viewBox="0 0 201 200" fill="none" xmlns="http://www.w3.org/2000/svg">
<g clip-path="url(#clip0_2118_90361)">
<path d="M93.1163 185.73C93.0622 187.734 91.4281 189.327 89.4315 189.327H89.3361C87.3046 189.272 85.6927 187.581 85.7468 185.539C85.9947 175.826 85.0378 161.756 83.9727 149.785C83.0317 139.215 82.0112 130.29 81.6773 127.442C81.6074 126.856 81.5661 126.524 81.5629 126.492C81.3149 124.466 82.7583 122.628 84.7771 122.38C86.0838 122.221 87.3078 122.769 88.0867 123.724C88.5032 124.24 88.7925 124.884 88.8751 125.597C88.9578 126.304 89.8893 133.991 90.859 144.15C92.0957 157.143 93.4056 174.167 93.1099 185.73H93.1163Z" fill="#A887E9"/>
<path d="M82.415 178.251C84.5197 176.846 95.3959 175.438 96.0985 176.846C96.8011 178.251 97.1508 193.019 95.7488 194.073C94.3467 195.127 75.3984 195.478 75.3984 194.073C75.3984 192.668 81.3627 190.206 82.415 188.097C83.4674 185.988 81.3627 178.958 82.415 178.254V178.251Z" fill="#6A46B3"/>
<path d="M90.8645 144.146L83.9751 149.785C83.034 139.215 82.0135 130.289 81.6797 127.442L88.089 123.724C88.5055 124.24 88.7948 124.884 88.8775 125.597C88.9602 126.304 89.8917 133.991 90.8613 144.15L90.8645 144.146Z" fill="#6A46B3"/>
<path d="M106.714 185.73C106.768 187.734 108.402 189.327 110.399 189.327H110.494C112.526 189.272 114.138 187.581 114.084 185.539C113.836 175.826 114.792 161.756 115.858 149.785C116.799 139.215 117.819 130.29 118.153 127.442C118.223 126.856 118.264 126.524 118.267 126.492C118.515 124.466 117.072 122.628 115.053 122.38C113.747 122.221 112.522 122.769 111.744 123.724C111.327 124.24 111.038 124.884 110.955 125.597C110.872 126.304 109.941 133.991 108.971 144.15C107.735 157.143 106.425 174.167 106.717 185.73H106.714Z" fill="#A887E9"/>
<path d="M117.415 178.251C115.31 176.846 104.434 175.438 103.732 176.846C103.029 178.251 102.679 193.019 104.081 194.073C105.483 195.127 124.432 195.478 124.432 194.073C124.432 192.668 118.467 190.206 117.415 188.097C116.363 185.988 118.467 178.958 117.415 178.254V178.251Z" fill="#6A46B3"/>
<path d="M108.965 144.146L115.854 149.785C116.795 139.215 117.816 130.289 118.15 127.442L111.74 123.724C111.324 124.24 111.035 124.884 110.952 125.597C110.869 126.304 109.938 133.991 108.968 144.15L108.965 144.146Z" fill="#6A46B3"/>
<path d="M63.0608 128.324L62.87 124.457C62.5044 117.003 56.5719 111.036 49.1325 110.641L45.2729 110.437C33.0551 109.791 27.0654 95.2201 35.2805 86.1382L37.8748 83.268C42.8757 77.7379 42.8916 69.3154 37.9129 63.7663L35.3282 60.8866C27.1448 51.7728 33.1918 37.2246 45.4128 36.6257L49.2724 36.4346C56.7118 36.0682 62.6665 30.1241 63.0608 22.67L63.2642 18.8027C63.9096 6.56082 78.4515 0.559306 87.5155 8.79068L90.38 11.3901C95.8992 16.4009 104.305 16.4168 109.843 11.4283L112.717 8.83846C121.813 0.638944 136.333 6.69779 136.931 18.9429L137.118 22.8101C137.484 30.2642 143.416 36.2307 150.856 36.6257L154.715 36.8296C166.933 37.4762 172.923 52.0468 164.708 61.1287L162.113 63.9988C157.112 69.5289 157.096 77.9514 162.075 83.5005L164.66 86.3802C172.843 95.494 166.796 110.042 154.575 110.641L150.716 110.832C143.276 111.199 137.322 117.143 136.927 124.597L136.724 128.464C136.078 140.706 121.537 146.708 112.473 138.476L109.608 135.877C104.089 130.866 95.683 130.85 90.1448 135.839L87.2707 138.428C78.1749 146.628 63.6553 140.569 63.0576 128.324H63.0608Z" fill="#A887E9"/>
<path d="M139.08 124.756C139.105 126.263 138.202 127.677 136.736 128.248C136.689 128.27 136.641 128.289 136.593 128.305C136.193 128.442 135.792 128.506 135.395 128.506C133.869 128.506 132.438 127.54 131.91 126.011C131.389 124.498 130.683 122.899 129.806 121.313C126.881 115.996 122.083 110.746 116.3 108.921C113.547 108.051 110.702 108.01 107.78 108.79C105.243 109.459 102.649 110.762 100.023 112.683C99.9908 112.705 99.9653 112.725 99.9399 112.741C99.7491 112.871 99.5616 112.999 99.3676 113.129C90.5007 119.099 75.7776 126.292 63.0479 128.012C61.2167 128.26 59.4204 128.391 57.6941 128.391C54.4195 128.391 51.3833 127.916 48.735 126.821C40.0652 123.246 38.2085 115.139 38.6759 108.478C40.577 109.596 42.7962 110.304 45.276 110.434L45.9722 110.472C45.9722 114.037 47.0627 118.146 51.5391 119.997C53.2877 120.72 55.3923 121.036 57.7386 121.029C59.1375 121.023 60.6285 120.908 62.18 120.682C63.6393 120.481 65.1526 120.185 66.7009 119.819L66.7073 119.812C74.3184 117.987 82.7847 114.333 89.7218 110.406C91.8996 109.176 93.9279 107.918 95.7274 106.682C96.6271 106.029 97.5173 105.436 98.3916 104.911C106.753 99.8679 113.859 100.406 118.516 101.884C127.374 104.678 134.215 112.868 137.7 120.637C138.148 121.644 138.542 122.641 138.879 123.616C139.01 123.992 139.073 124.38 139.08 124.759V124.756Z" fill="#6A46B3"/>
<path d="M160.054 122.991C157.621 127.649 153.234 130.745 147.365 131.946C145.68 132.293 144.04 132.452 142.428 132.452C140.307 132.452 138.238 132.178 136.206 131.688C129.749 130.143 123.648 126.451 117.328 122.619C111.78 119.255 106.054 115.789 99.365 113.132C98.7959 112.9 98.2237 112.68 97.6387 112.463C94.7869 111.415 92.1545 110.756 89.7224 110.405C76.9005 108.571 69.8266 115.451 66.7078 119.812L66.7014 119.819C65.4425 121.574 64.8289 122.924 64.7399 123.125C64.3615 123.985 63.6939 124.632 62.8991 124.998C61.9834 125.419 60.893 125.466 59.8979 125.03C58.3082 124.339 57.4498 122.666 57.7392 121.032C57.7805 120.749 57.86 120.468 57.9808 120.194C58.0348 120.067 58.6866 118.579 60.0505 116.528C61.5829 114.212 64.0245 111.176 67.5344 108.545C73.4351 104.12 83.5069 100.017 98.3922 104.91C98.9803 105.105 99.5748 105.312 100.176 105.532C102.843 106.513 105.377 107.615 107.78 108.79C112.692 111.179 117.102 113.852 121.143 116.299C124.211 118.159 127.069 119.889 129.806 121.313C132.257 122.59 134.623 123.616 136.96 124.272C137.669 124.473 138.374 124.635 139.08 124.756V124.763C141.328 125.164 143.576 125.189 145.887 124.715C149.619 123.95 152.112 122.262 153.523 119.567C154.922 116.882 155.075 113.53 154.744 110.635C157.466 110.475 159.866 109.622 161.869 108.293C162.591 112.686 162.546 118.213 160.054 122.991Z" fill="#6A46B3"/>
<path d="M102.067 90.7096C126.095 90.7096 145.575 78.9049 145.575 64.3431C145.575 49.7812 126.095 37.9766 102.067 37.9766C78.0378 37.9766 58.5586 49.7812 58.5586 64.3431C58.5586 78.9049 78.0378 90.7096 102.067 90.7096Z" fill="#6A46B3"/>
<path d="M99.6095 93.5223C123.638 93.5223 143.117 81.7176 143.117 67.1558C143.117 52.594 123.638 40.7893 99.6095 40.7893C75.5807 40.7893 56.1016 52.594 56.1016 67.1558C56.1016 81.7176 75.5807 93.5223 99.6095 93.5223Z" fill="#FFECE0"/>
<path d="M115.996 76.107C115.958 81.0732 108.766 85.0424 99.9313 84.9755C91.0962 84.9086 83.9652 80.8279 84.0001 75.8649C84.0383 70.8987 91.2297 66.9295 100.065 66.9964C108.9 67.0633 116.031 71.144 115.996 76.107Z" fill="#FD5E5E"/>
<path d="M109.917 78.6012C109.481 78.6012 109.058 78.391 108.797 77.9992C108.696 77.8495 106.467 74.6926 100.312 74.648C94.0998 74.6353 91.4133 77.8081 91.302 77.945C90.8411 78.5216 89.9986 78.6172 89.4231 78.1585C88.8477 77.6997 88.7427 76.8651 89.1974 76.2854C89.3341 76.107 92.6532 71.9658 100.178 71.9658C100.229 71.9658 100.283 71.9658 100.334 71.9658C108.028 72.0232 110.921 76.3459 111.039 76.5307C111.443 77.1518 111.268 77.9833 110.645 78.3878C110.419 78.5344 110.164 78.6044 109.913 78.6044L109.917 78.6012Z" fill="#170C35"/>
<path d="M77.3752 68.3791C77.3466 72.345 74.1133 75.5369 70.1552 75.5051C66.197 75.4764 63.0114 72.2367 63.0432 68.2708C63.0718 64.3048 66.3051 61.1129 70.2633 61.1448C74.2214 61.1734 77.407 64.4131 77.3752 68.3791Z" fill="#FD8FB3"/>
<path d="M122.504 68.7231C122.475 72.6891 125.658 75.9287 129.616 75.9574C133.574 75.9861 136.808 72.7974 136.839 68.8314C136.868 64.8655 133.686 61.6258 129.727 61.5971C125.769 61.5684 122.536 64.7571 122.507 68.7231H122.504Z" fill="#FD8FB3"/>
<path d="M84.4392 58.0133C83.8447 57.4654 83.1135 57.1213 82.2869 57.1213C81.508 57.1213 80.6877 57.4622 80.1345 58.0133C79.6068 58.5421 79.2094 59.4085 79.2443 60.1699C79.2793 60.9599 79.5368 61.7754 80.1345 62.3265C80.729 62.8744 81.4603 63.2184 82.2869 63.2184C83.0658 63.2184 83.886 62.8776 84.4392 62.3265C84.9924 61.7754 85.3644 60.9312 85.3294 60.1699C85.2944 59.3799 85.0369 58.5644 84.4392 58.0133Z" fill="#170C35"/>
<path d="M119.834 58.0133C119.239 57.4654 118.508 57.1213 117.681 57.1213C116.902 57.1213 116.082 57.4622 115.529 58.0133C115.001 58.5421 114.604 59.4085 114.639 60.1699C114.674 60.9599 114.931 61.7754 115.529 62.3265C116.124 62.8744 116.855 63.2184 117.681 63.2184C118.46 63.2184 119.281 62.8776 119.834 62.3265C120.361 61.7977 120.759 60.9312 120.724 60.1699C120.689 59.3799 120.431 58.5644 119.834 58.0133Z" fill="#170C35"/>
<path d="M144.949 39.0627C143.299 37.5846 141.144 37.5241 139.258 36.4315C137.414 35.3643 135.933 33.813 134.887 31.9558C133.609 29.6845 133.364 27.0884 133.161 24.5368C132.935 21.7431 132.595 19.1246 132.006 16.3978C131.673 14.8496 129.104 14.7827 128.815 16.3978C127.695 22.6669 126.831 30.2452 130.182 36.0237C132.668 40.3082 139.192 45.8192 144.377 43.5288C146.014 42.8057 146.205 40.1872 144.952 39.0627H144.949Z" fill="#C2A3FF"/>
<path d="M128.416 8.94992C128.196 8.57721 127.901 8.28096 127.525 8.05797C127.471 8.03567 127.417 8.01019 127.36 7.98789C127.023 7.79358 126.664 7.69482 126.273 7.69482C125.885 7.69482 125.522 7.79358 125.185 7.98789C124.33 8.35104 123.793 9.2844 123.793 10.2018C123.793 12.0813 125.898 13.295 127.522 12.3457C128.276 11.9029 128.749 11.0778 128.749 10.2018C128.749 9.75267 128.635 9.33536 128.412 8.94992H128.416Z" fill="#C2A3FF"/>
<path d="M97.538 19.3188C94.8834 19.5163 92.6515 19.7298 90.3148 18.1625C88.2896 16.8023 86.7795 14.7795 85.0436 13.0943C81.893 10.0362 77.4993 7.76178 73.2645 10.0681C71.9133 10.8039 72.4888 13.1166 74.0657 13.0306C79.3814 12.7376 82.141 17.9268 85.5873 21.0613C88.846 24.0238 93.8756 26.0212 98.2184 24.3647C100.708 23.4154 100.644 19.0895 97.538 19.3188Z" fill="#C2A3FF"/>
<path d="M162.148 88.2088C160.415 85.9567 158.838 83.7618 157.366 81.3313C156.403 79.7385 154.263 80.5508 154.092 82.22C153.821 84.8385 155.258 87.2659 156.724 89.3237C157.477 90.3813 158.272 91.4166 158.943 92.5347C159.687 93.7739 159.932 95.0226 160.45 96.3319C161.509 99.0013 165.079 98.5554 165.384 95.6629C165.674 92.9202 163.731 90.2667 162.148 88.2088Z" fill="#C2A3FF"/>
<path d="M45.4672 81.1689C44.2082 82.8031 43.318 84.81 42.2371 86.5748C41.1434 88.3586 40.0084 90.1202 39.0864 92.0029C38.0881 94.0448 40.4885 95.9657 42.2243 94.4271C45.3845 91.627 48.5701 87.0621 49.7464 82.9719C50.5381 80.2165 46.9837 79.1971 45.4703 81.1658L45.4672 81.1689Z" fill="#C2A3FF"/>
</g>
<defs>
<clipPath id="clip0_2118_90361">
<rect width="137" height="190" fill="white" transform="translate(31.5 5)"/>
</clipPath>
</defs>
</svg>
