<svg width="200" height="200" viewBox="0 0 200 200" fill="none" xmlns="http://www.w3.org/2000/svg">
<g clip-path="url(#clip0_2103_55228)">
<path d="M92.6169 185.73C92.5629 187.734 90.9287 189.327 88.9322 189.327H88.8368C86.8053 189.272 85.1934 187.581 85.2474 185.539C85.4954 175.826 84.5385 161.756 83.4734 149.785C82.5324 139.215 81.5118 130.289 81.178 127.442C81.1081 126.855 81.0667 126.524 81.0636 126.492C80.8156 124.466 82.2589 122.628 84.2778 122.38C85.5844 122.221 86.8084 122.768 87.5874 123.724C88.0038 124.24 88.2932 124.884 88.3758 125.597C88.4585 126.304 89.39 133.991 90.3597 144.15C91.5964 157.143 92.9062 174.167 92.6106 185.73H92.6169Z" fill="#A887E9"/>
<path d="M81.9156 178.251C84.0203 176.846 94.8965 175.438 95.5991 176.846C96.3017 178.251 96.6514 193.019 95.2494 194.073C93.8473 195.127 74.899 195.478 74.899 194.073C74.899 192.668 80.8633 190.206 81.9156 188.097C82.9679 185.988 80.8633 178.958 81.9156 178.254V178.251Z" fill="#6A46B3"/>
<path d="M90.366 144.146L83.4766 149.785C82.5355 139.215 81.515 130.289 81.1812 127.442L87.5905 123.724C88.007 124.24 88.2963 124.884 88.379 125.597C88.4617 126.304 89.3932 133.991 90.3628 144.15L90.366 144.146Z" fill="#6A46B3"/>
<path d="M106.215 185.73C106.269 187.734 107.903 189.327 109.899 189.327H109.995C112.026 189.272 113.638 187.581 113.584 185.539C113.336 175.826 114.293 161.756 115.358 149.785C116.299 139.215 117.32 130.289 117.653 127.442C117.723 126.855 117.765 126.524 117.768 126.492C118.016 124.466 116.573 122.628 114.554 122.38C113.247 122.221 112.023 122.768 111.244 123.724C110.828 124.24 110.538 124.884 110.456 125.597C110.373 126.304 109.442 133.991 108.472 144.15C107.235 157.143 105.925 174.167 106.218 185.73H106.215Z" fill="#A887E9"/>
<path d="M116.916 178.251C114.811 176.846 103.935 175.438 103.232 176.846C102.53 178.251 102.18 193.019 103.582 194.073C104.984 195.127 123.932 195.478 123.932 194.073C123.932 192.668 117.968 190.206 116.916 188.097C115.864 185.988 117.968 178.958 116.916 178.254V178.251Z" fill="#6A46B3"/>
<path d="M108.465 144.146L115.355 149.785C116.296 139.215 117.316 130.289 117.65 127.442L111.241 123.724C110.824 124.24 110.535 124.884 110.452 125.597C110.37 126.304 109.438 133.991 108.469 144.15L108.465 144.146Z" fill="#6A46B3"/>
<path d="M62.5603 128.324L62.3695 124.457C62.0039 117.003 56.0714 111.036 48.632 110.641L44.7724 110.437C32.5546 109.791 26.5649 95.2201 34.78 86.1382L37.3743 83.2681C42.3753 77.738 42.3911 69.3155 37.4125 63.7663L34.8277 60.8866C26.6444 51.7729 32.6913 37.2246 44.9123 36.6258L48.7719 36.4346C56.2113 36.0683 62.166 30.1241 62.5603 22.67L62.7637 18.8028C63.4091 6.56088 77.951 0.559367 87.015 8.79074L89.8795 11.3901C95.3987 16.4009 103.805 16.4169 109.343 11.4283L112.217 8.83852C121.313 0.639005 135.832 6.69785 136.43 18.943L136.618 22.8102C136.983 30.2643 142.916 36.2308 150.355 36.6258L154.215 36.8296C166.433 37.4763 172.422 52.0468 164.207 61.1287L161.613 63.9989C156.612 69.5289 156.596 77.9514 161.575 83.5006L164.159 86.3803C172.343 95.4941 166.296 110.042 154.075 110.641L150.215 110.832C142.776 111.199 136.821 117.143 136.427 124.597L136.223 128.464C135.578 140.706 121.036 146.708 111.972 138.476L109.108 135.877C103.588 130.866 95.1825 130.85 89.6443 135.839L86.7702 138.428C77.6744 146.628 63.1548 140.569 62.5571 128.324H62.5603Z" fill="#A887E9"/>
<path d="M138.579 124.756C138.605 126.263 137.702 127.677 136.236 128.248C136.188 128.27 136.141 128.289 136.093 128.305C135.693 128.442 135.292 128.506 134.895 128.506C133.368 128.506 131.938 127.54 131.41 126.011C130.889 124.498 130.183 122.899 129.305 121.313C126.381 115.996 121.583 110.746 115.8 108.921C113.047 108.051 110.201 108.01 107.28 108.79C104.743 109.459 102.148 110.762 99.5223 112.683C99.4905 112.705 99.465 112.725 99.4396 112.74C99.2488 112.871 99.0613 112.998 98.8673 113.129C90.0004 119.099 75.2773 126.292 62.5476 128.012C60.7164 128.26 58.9201 128.391 57.1938 128.391C53.9192 128.391 50.883 127.916 48.2347 126.82C39.5649 123.246 37.7082 115.139 38.1756 108.478C40.0767 109.596 42.2959 110.304 44.7757 110.434L45.4719 110.472C45.4719 114.037 46.5624 118.146 51.0388 119.997C52.7874 120.72 54.892 121.036 57.2383 121.029C58.6372 121.023 60.1282 120.908 61.6797 120.682C63.139 120.481 64.6523 120.185 66.2006 119.819L66.2069 119.812C73.8181 117.987 82.2844 114.333 89.2215 110.405C91.3993 109.176 93.4276 107.918 95.2271 106.682C96.1268 106.029 97.017 105.436 97.8913 104.91C106.253 99.8678 113.358 100.406 118.016 101.884C126.873 104.678 133.715 112.868 137.199 120.637C137.648 121.644 138.042 122.641 138.379 123.616C138.509 123.992 138.573 124.38 138.579 124.759V124.756Z" fill="#6A46B3"/>
<path d="M159.553 122.991C157.121 127.649 152.733 130.745 146.864 131.946C145.179 132.293 143.539 132.452 141.927 132.452C139.806 132.452 137.737 132.179 135.705 131.688C129.248 130.143 123.147 126.451 116.827 122.619C111.279 119.255 105.553 115.789 98.8641 113.132C98.2951 112.9 97.7228 112.68 97.1378 112.463C94.286 111.415 91.6536 110.756 89.2215 110.406C76.3996 108.571 69.3258 115.451 66.2069 119.812L66.2006 119.819C64.9416 121.574 64.328 122.925 64.239 123.125C63.8607 123.985 63.193 124.632 62.3982 124.998C61.4826 125.419 60.3921 125.467 59.397 125.03C57.8074 124.339 56.949 122.667 57.2383 121.032C57.2796 120.749 57.3591 120.469 57.4799 120.195C57.534 120.067 58.1857 118.58 59.5496 116.528C61.082 114.212 63.5237 111.176 67.0336 108.545C72.9342 104.12 83.0061 100.018 97.8913 104.911C98.4795 105.105 99.074 105.312 99.6749 105.532C102.342 106.513 104.876 107.615 107.28 108.79C112.192 111.18 116.601 113.852 120.642 116.299C123.71 118.159 126.568 119.889 129.305 121.313C131.757 122.59 134.122 123.616 136.459 124.272C137.168 124.473 137.873 124.635 138.579 124.756V124.763C140.827 125.164 143.075 125.189 145.386 124.715C149.118 123.95 151.611 122.262 153.023 119.567C154.421 116.882 154.574 113.53 154.243 110.635C156.965 110.476 159.365 109.622 161.368 108.294C162.09 112.686 162.045 118.213 159.553 122.991Z" fill="#6A46B3"/>
<path d="M101.567 90.7094C125.595 90.7094 145.074 78.9048 145.074 64.3429C145.074 49.7811 125.595 37.9764 101.567 37.9764C77.5377 37.9764 58.0586 49.7811 58.0586 64.3429C58.0586 78.9048 77.5377 90.7094 101.567 90.7094Z" fill="#6A46B3"/>
<path d="M99.1089 93.5223C123.138 93.5223 142.617 81.7176 142.617 67.1557C142.617 52.5939 123.138 40.7892 99.1089 40.7892C75.0802 40.7892 55.601 52.5939 55.601 67.1557C55.601 81.7176 75.0802 93.5223 99.1089 93.5223Z" fill="#FFECE0"/>
<path d="M115.498 76.1071C115.46 81.0733 108.268 85.0424 99.4332 84.9755C90.5981 84.9086 83.4671 80.828 83.5021 75.865C83.5402 70.8988 90.7317 66.9296 99.5668 66.9965C108.402 67.0634 115.533 71.144 115.498 76.1071Z" fill="#FD5E5E"/>
<path d="M109.416 78.6013C108.981 78.6013 108.558 78.3911 108.297 77.9992C108.195 77.8495 105.967 74.6927 99.8116 74.6481C93.5993 74.6353 90.9129 77.8081 90.8016 77.9451C90.3406 78.5217 89.4981 78.6172 88.9227 78.1585C88.3472 77.6998 88.2423 76.8652 88.6969 76.2854C88.8336 76.107 92.1528 71.9659 99.678 71.9659C99.7289 71.9659 99.7829 71.9659 99.8338 71.9659C107.528 72.0232 110.421 76.346 110.538 76.5307C110.942 77.1519 110.767 77.9833 110.144 78.3879C109.918 78.5344 109.664 78.6045 109.413 78.6045L109.416 78.6013Z" fill="#170C35"/>
<path d="M76.8765 68.379C76.8479 72.345 73.6146 75.5369 69.6564 75.505C65.6983 75.4763 62.5127 72.2367 62.5445 68.2707C62.5731 64.3047 65.8064 61.1129 69.7645 61.1447C73.7227 61.1734 76.9083 64.413 76.8765 68.379Z" fill="#FD8FB3"/>
<path d="M122.003 68.723C121.974 72.689 125.157 75.9287 129.115 75.9574C133.073 75.986 136.306 72.7973 136.338 68.8314C136.367 64.8654 133.184 61.6257 129.226 61.5971C125.268 61.5684 122.034 64.7571 122.006 68.723H122.003Z" fill="#FD8FB3"/>
<path d="M83.9376 58.0133C83.3431 57.4654 82.6119 57.1214 81.7853 57.1214C81.0063 57.1214 80.1861 57.4622 79.6329 58.0133C79.1051 58.5421 78.7077 59.4086 78.7427 60.1699C78.7777 60.9599 79.0352 61.7754 79.6329 62.3265C80.2274 62.8744 80.9586 63.2185 81.7853 63.2185C82.5642 63.2185 83.3844 62.8776 83.9376 62.3265C84.4908 61.7754 84.8628 60.9313 84.8278 60.1699C84.7928 59.3799 84.5353 58.5644 83.9376 58.0133Z" fill="#170C35"/>
<path d="M119.332 58.0133C118.738 57.4654 118.006 57.1214 117.18 57.1214C116.401 57.1214 115.581 57.4622 115.027 58.0133C114.5 58.5421 114.102 59.4086 114.137 60.1699C114.172 60.9599 114.43 61.7754 115.027 62.3265C115.622 62.8744 116.353 63.2185 117.18 63.2185C117.959 63.2185 118.779 62.8776 119.332 62.3265C119.86 61.7977 120.257 60.9313 120.222 60.1699C120.187 59.3799 119.93 58.5644 119.332 58.0133Z" fill="#170C35"/>
<path d="M144.448 39.0627C142.798 37.5846 140.643 37.5241 138.757 36.4315C136.913 35.3643 135.432 33.813 134.386 31.9558C133.108 29.6845 132.863 27.0884 132.66 24.5368C132.434 21.7431 132.094 19.1246 131.505 16.3978C131.172 14.8496 128.603 14.7827 128.313 16.3978C127.194 22.6669 126.33 30.2452 129.681 36.0237C132.167 40.3082 138.691 45.8192 143.876 43.5288C145.513 42.8057 145.704 40.1872 144.451 39.0627H144.448Z" fill="#C2A3FF"/>
<path d="M127.916 8.95004C127.697 8.57733 127.401 8.28108 127.026 8.05809C126.972 8.0358 126.918 8.01031 126.861 7.98801C126.524 7.7937 126.164 7.69495 125.773 7.69495C125.385 7.69495 125.023 7.7937 124.686 7.98801C123.831 8.35116 123.293 9.28452 123.293 10.2019C123.293 12.0814 125.398 13.2951 127.023 12.3458C127.776 11.903 128.25 11.078 128.25 10.2019C128.25 9.75279 128.135 9.33549 127.913 8.95004H127.916Z" fill="#C2A3FF"/>
<path d="M97.0393 19.3189C94.3846 19.5164 92.1528 19.7298 89.816 18.1625C87.7908 16.8023 86.2807 14.7795 84.5448 13.0944C81.3942 10.0363 77.0005 7.76184 72.7657 10.0682C71.4146 10.804 71.99 13.1167 73.5669 13.0307C78.8826 12.7376 81.6422 17.9268 85.0885 21.0614C88.3472 24.0239 93.3768 26.0212 97.7196 24.3647C100.209 23.4155 100.145 19.0895 97.0393 19.3189Z" fill="#C2A3FF"/>
<path d="M161.648 88.2088C159.915 85.9567 158.338 83.7618 156.866 81.3313C155.903 79.7385 153.763 80.5508 153.592 82.22C153.321 84.8385 154.758 87.2659 156.224 89.3237C156.978 90.3813 157.772 91.4166 158.443 92.5347C159.187 93.7739 159.432 95.0226 159.95 96.3319C161.009 99.0013 164.579 98.5554 164.884 95.6629C165.174 92.9202 163.231 90.2667 161.648 88.2088Z" fill="#C2A3FF"/>
<path d="M44.9664 81.1688C43.7074 82.803 42.8172 84.8099 41.7363 86.5746C40.6426 88.3585 39.5076 90.1201 38.5857 92.0027C37.5874 94.0447 39.9877 95.9655 41.7236 94.4269C44.8837 91.6269 48.0693 87.062 49.2457 82.9718C50.0373 80.2163 46.4829 79.197 44.9696 81.1656L44.9664 81.1688Z" fill="#C2A3FF"/>
</g>
<defs>
<clipPath id="clip0_2103_55228">
<rect width="137" height="190" fill="white" transform="translate(31 5)"/>
</clipPath>
</defs>
</svg>
