<svg width="201" height="200" viewBox="0 0 201 200" fill="none" xmlns="http://www.w3.org/2000/svg">
<g clip-path="url(#clip0_2118_87998)">
<path d="M40.8937 59.2163C35.7747 61.0298 28.8892 71.0204 27.6858 71.4644C26.4824 71.9085 22.1258 69.2547 21.6158 67.4305C21.1031 65.6089 34.5819 55.8338 38.6357 55.7035C39.6637 56.5305 40.8963 59.2136 40.8963 59.2136L40.8937 59.2163Z" fill="#170C35"/>
<path d="M54.9936 105.364C54.1196 103.904 52.2282 103.43 50.7698 104.308C47.4626 106.294 42.2267 105.507 38.319 102.436C36.5206 101.021 32.5439 97.059 34.4752 90.8445C36.9483 82.8856 37.554 75.3628 36.2736 68.4835C36.2258 68.2229 36.1434 67.9809 36.0372 67.7495C36.9988 66.3003 37.4477 64.2926 37.3734 62.7423C37.2379 60.0007 35.7715 57.5728 34.2972 55.3471C33.2532 53.7702 30.9872 54.6664 30.8358 56.0943C30.8199 56.0837 30.8066 56.0731 30.7907 56.0624C30.2833 55.7407 29.4093 55.6822 28.9072 56.0624C28.7957 56.1475 28.6841 56.2326 28.5725 56.3204C28.3839 56.4719 28.2883 56.8974 28.2564 57.3814C27.4382 56.8256 26.1897 56.9745 25.9161 58.0994C25.7354 58.8466 25.7859 59.6018 25.9586 60.3464C25.3423 60.2586 24.8057 60.4394 24.455 60.9819C23.334 62.7157 24.973 65.21 25.9958 66.638C26.6227 67.5129 27.3027 68.3797 28.0598 69.1456C28.801 69.8955 29.4438 70.3156 30.3444 70.3529C31.2609 76.0408 30.6764 82.3138 28.5938 89.0123C26.466 95.8624 28.6761 102.691 34.5124 107.281C38.0826 110.089 42.394 111.552 46.4611 111.552C49.1547 111.552 51.7421 110.911 53.9337 109.594C55.3921 108.719 55.8649 106.826 54.9909 105.366L54.9936 105.364Z" fill="#26AB93"/>
<path d="M44.7438 111.461C45.3202 111.517 45.894 111.549 46.4651 111.549C49.1588 111.549 51.7462 110.908 53.9377 109.592C55.3961 108.717 55.869 106.824 54.995 105.364C54.121 103.904 52.2296 103.43 50.7712 104.308C49.0924 105.316 46.9141 105.608 44.6641 105.249C44.68 107.119 44.7092 109.273 44.7464 111.461H44.7438Z" fill="#0E7D69"/>
<path d="M192.422 71.39C192.093 71.8447 191.742 72.2595 191.376 72.6504C192.619 70.8475 193.796 68.8398 193.987 66.6593C194.109 65.2738 192.383 64.9255 191.511 65.6328C190.887 66.1407 190.342 66.7603 189.838 67.4251C190.024 66.6141 190.069 65.7817 189.859 64.9175C189.569 63.7262 187.965 63.6305 187.357 64.5904C186.259 66.3136 185.513 68.3292 184.501 70.1242C184.331 70.4273 184.158 70.7305 183.985 71.0336C184.047 69.9141 184.158 68.7919 184.033 67.6831C183.858 66.1487 182.038 65.5424 181.119 66.8933C179.143 69.7918 179.531 74.1156 180.381 77.4609C180.37 77.538 180.367 77.6151 180.362 77.6896C180.269 77.8145 180.184 77.9448 180.11 78.0858C178.792 80.6093 177.732 83.4254 176.709 86.1511C172.897 96.2958 169.603 105.058 154.14 103.3C152.448 103.109 150.926 104.324 150.735 106.015C150.543 107.706 151.757 109.233 153.447 109.424C155.043 109.605 156.542 109.69 157.952 109.69C174.441 109.69 178.864 97.9233 182.474 88.321C183.335 86.0287 184.158 83.8456 185.096 81.8857C185.388 81.923 185.71 81.8911 186.063 81.7687C190.236 80.3088 194.019 76.8705 195.408 72.6478C196.027 70.7677 193.442 69.9859 192.422 71.3873V71.39Z" fill="#26AB93"/>
<path d="M166.878 101.431C163.852 103.17 159.82 103.946 154.14 103.303C152.448 103.111 150.926 104.327 150.735 106.018C150.543 107.709 151.757 109.235 153.447 109.427C155.043 109.608 156.542 109.693 157.952 109.693C162.556 109.693 166.216 108.775 169.184 107.244L166.875 101.431H166.878Z" fill="#0E7D69"/>
<path d="M83.1355 188.096C82.6467 188.096 82.15 187.979 81.6851 187.732C80.1868 186.929 79.621 185.062 80.4233 183.562C86.7536 171.718 87.9649 141.475 87.9782 141.172C88.042 139.473 89.4685 138.141 91.1713 138.21C92.8714 138.274 94.1943 139.704 94.1305 141.406C94.0827 142.707 92.8501 173.375 85.853 186.471C85.2978 187.508 84.2353 188.099 83.1355 188.099V188.096Z" fill="#26AB93"/>
<path d="M155.088 182.147C154.488 182.147 153.88 181.972 153.346 181.605C136.727 170.165 119.989 140.183 119.285 138.912C118.461 137.423 118.998 135.548 120.483 134.724C121.97 133.897 123.843 134.434 124.667 135.923C124.831 136.221 141.408 165.913 156.834 176.529C158.234 177.494 158.59 179.411 157.625 180.812C157.028 181.682 156.066 182.147 155.086 182.147H155.088Z" fill="#26AB93"/>
<path d="M79.8228 170.878C81.4644 169.644 91.8937 172.92 91.9229 174.704C91.9521 176.489 88.2012 189.407 86.8119 189.96C85.4226 190.513 71.8853 184.934 72.4883 183.333C73.0887 181.733 78.2023 181.988 79.1985 180.911C80.1947 179.834 78.7761 171.665 79.8254 170.878H79.8228Z" fill="#0E7D69"/>
<path d="M152.724 167.187C150.708 166.804 142.789 174.348 143.552 175.962C144.314 177.576 153.37 187.516 154.86 187.399C156.35 187.282 166.041 176.3 164.798 175.127C163.552 173.955 159.076 176.444 157.708 175.917C156.34 175.391 154.013 167.432 152.724 167.187Z" fill="#0E7D69"/>
<path d="M124.667 135.92C123.844 134.434 121.968 133.894 120.483 134.721C118.996 135.548 118.462 137.423 119.285 138.909C119.564 139.412 122.348 144.4 126.641 150.958L131.537 147.153C127.393 140.797 124.736 136.037 124.67 135.92H124.667Z" fill="#0E7D69"/>
<path d="M91.167 138.207C89.4642 138.141 88.0377 139.47 87.9739 141.169C87.9713 141.268 87.8385 144.539 87.4453 149.312L93.3931 152.112C93.9377 146.182 94.1103 141.871 94.1263 141.401C94.19 139.699 92.8645 138.268 91.167 138.204V138.207Z" fill="#0E7D69"/>
<path d="M105.793 146.429C137.245 146.429 162.742 120.906 162.742 89.4219C162.742 57.9376 137.245 32.4144 105.793 32.4144C74.3407 32.4144 48.8438 57.9376 48.8438 89.4219C48.8438 120.906 74.3407 146.429 105.793 146.429Z" fill="#26AB93"/>
<path d="M103.954 106.874C125.651 106.874 143.24 93.2434 143.24 76.4291C143.24 59.6148 125.651 45.9841 103.954 45.9841C82.257 45.9841 64.668 59.6148 64.668 76.4291C64.668 93.2434 82.257 106.874 103.954 106.874Z" fill="#0E7D69"/>
<path d="M105.712 110.102C127.409 110.102 144.998 96.4716 144.998 79.6573C144.998 62.8431 127.409 49.2124 105.712 49.2124C84.0148 49.2124 66.4258 62.8431 66.4258 79.6573C66.4258 96.4716 84.0148 110.102 105.712 110.102Z" fill="#FFECE0"/>
<path d="M44.0696 30.9997C41.6523 38.9347 48.0543 48.8827 49.8023 51.978C51.5475 55.0759 41.9524 63.1705 39.2455 59.8651C36.5386 56.5598 33.497 48.7524 24.125 47.4281C28.0911 37.9136 44.0723 30.9971 44.0723 30.9971L44.0696 30.9997Z" fill="#FD5E5E"/>
<path d="M39.674 39.4399C38.7548 40.3254 37.7826 41.195 36.7545 42.0326C34.5656 43.8196 32.2996 45.3433 30.039 46.5878C21.1266 51.5046 12.2886 52.0817 8.46597 47.3882C3.67638 41.5061 8.57488 29.569 19.4105 20.7299C30.2436 11.8935 42.9069 9.49224 47.6964 15.3743C52.0318 20.698 48.4296 30.9811 39.674 39.4399Z" fill="#FFECE0"/>
<path d="M91.6393 67.5501C91.1425 67.0927 90.5316 66.8055 89.8409 66.8055C89.1901 66.8055 88.5047 67.0901 88.0425 67.5501C87.6015 67.9915 87.2694 68.7148 87.2987 69.3504C87.3279 70.0072 87.5431 70.6906 88.0425 71.1506C88.5392 71.608 89.1502 71.8952 89.8409 71.8952C90.4917 71.8952 91.1771 71.6107 91.6393 71.1506C92.1015 70.6906 92.4123 69.9859 92.3831 69.3504C92.3539 68.6909 92.1387 68.0102 91.6393 67.5501Z" fill="#170C35"/>
<path d="M123.303 67.5501C122.807 67.0927 122.196 66.8055 121.505 66.8055C120.854 66.8055 120.169 67.0901 119.707 67.5501C119.266 67.9915 118.934 68.7148 118.963 69.3504C118.992 70.0072 119.207 70.6906 119.707 71.1506C120.203 71.608 120.814 71.8952 121.505 71.8952C122.156 71.8952 122.841 71.6107 123.303 71.1506C123.744 70.7092 124.076 69.9859 124.047 69.3504C124.018 68.6909 123.803 68.0102 123.303 67.5501Z" fill="#170C35"/>
<path d="M116.45 84.2577C116.45 92.9 111.647 99.907 105.723 99.907C99.799 99.907 94.9961 92.9 94.9961 84.2577C94.9961 75.6154 99.799 68.6111 105.723 68.6111C111.647 68.6111 116.45 75.618 116.45 84.2577Z" fill="#FD5E5E"/>
<path d="M105.721 95.0859C102.332 95.0859 99.7734 90.4323 99.7734 84.2603C99.7734 78.0884 102.329 73.4348 105.721 73.4348C109.114 73.4348 111.669 78.0884 111.669 84.2603C111.669 90.4323 109.111 95.0859 105.721 95.0859ZM105.721 75.6765C103.971 75.6765 102.015 79.3488 102.015 84.2603C102.015 89.1718 103.971 92.8442 105.721 92.8442C107.472 92.8442 109.43 89.1718 109.43 84.2603C109.43 79.3488 107.472 75.6765 105.721 75.6765Z" fill="#170C35"/>
<path d="M81.675 80.3754C81.675 86.0527 77.0793 90.6531 71.4078 90.6531C65.7363 90.6531 61.1406 86.0527 61.1406 80.3754C61.1406 74.698 65.7363 70.0977 71.4078 70.0977C77.0793 70.0977 81.675 74.698 81.675 80.3754Z" fill="#FD8FB3"/>
<path d="M129.766 80.3754C129.766 86.0527 134.361 90.6531 140.033 90.6531C145.704 90.6531 150.3 86.0527 150.3 80.3754C150.3 74.698 145.704 70.0977 140.033 70.0977C134.361 70.0977 129.766 74.698 129.766 80.3754Z" fill="#FD8FB3"/>
<path d="M144.357 115.992C140.802 115.458 138.04 117.718 135.192 119.492C132.464 121.191 129.943 123.209 127.284 125.012C124.659 126.794 121.918 128.352 119.043 129.687C116.071 131.067 112.788 131.703 110.107 133.671C107.642 135.484 108.452 138.689 111.119 139.694C114.756 141.063 118.879 139.84 122.391 138.587C125.74 137.396 128.944 135.636 131.946 133.737C134.998 131.807 137.981 129.626 140.531 127.057C142.952 124.621 146.075 121.688 146.001 117.989C145.983 117.117 145.265 116.123 144.359 115.987L144.357 115.992Z" fill="#3EC7AE"/>
<path d="M154.034 109.049C153.981 108.964 153.925 108.879 153.872 108.791C153.287 107.869 152.336 107.273 151.226 107.273C150.116 107.273 149.165 107.869 148.58 108.791C148.527 108.876 148.471 108.962 148.418 109.049C147.802 110.023 147.847 111.36 148.418 112.336C148.997 113.325 150.081 113.947 151.226 113.947C152.371 113.947 153.455 113.325 154.034 112.336C154.605 111.36 154.65 110.023 154.034 109.049Z" fill="#3EC7AE"/>
<path d="M74.6615 44.9763C72.9879 45.3141 71.4127 46.7846 70.1296 47.8509C68.8147 48.9465 67.8265 50.2761 66.8967 51.7067C65.4596 53.9218 68.5118 55.77 70.297 54.3313C71.3436 53.4884 72.4593 52.7119 73.5405 51.9088C74.7093 51.0393 76.2394 50.441 77.2117 49.364C79.0154 47.3696 77.2356 44.4578 74.6589 44.9763H74.6615Z" fill="#3EC7AE"/>
<path d="M39.6714 39.44C38.7522 40.3255 37.78 41.195 36.7519 42.0327C34.563 43.8196 32.2971 45.3433 30.0364 46.5878C28.0361 44.0191 25.1911 39.9452 25.2389 37.5998C25.3133 33.9913 29.5423 31.1806 32.22 31.3561C34.223 31.4864 37.9341 36.7834 39.6714 39.44Z" fill="#F0AC82"/>
<path d="M16.5666 51.7173C12.7306 51.7173 9.56415 50.5127 7.59572 48.0955C5.00834 44.9178 4.8091 40.1738 7.04052 34.7411C9.17631 29.5345 13.3177 24.2507 18.6997 19.8604C30.1862 10.4921 43.3037 8.20784 48.5635 14.667C53.2495 20.4241 49.8359 31.1832 40.4481 40.2483C39.4838 41.179 38.477 42.0725 37.4569 42.9022C35.2573 44.6971 32.9409 46.2687 30.574 47.5717C25.5719 50.3319 20.6841 51.72 16.5666 51.72V51.7173ZM39.6777 13.3055C34.0805 13.3055 26.6664 16.2545 20.1156 21.5995C15.0178 25.7584 11.1102 30.7284 9.11255 35.5947C7.20788 40.2323 7.28757 44.1679 9.33038 46.6808C12.6563 50.7653 20.947 50.3239 29.4928 45.6065C31.7429 44.37 33.9451 42.8756 36.041 41.1657C37.0133 40.3733 37.9722 39.5223 38.8914 38.6342C47.2831 30.5317 50.694 20.8363 46.8235 16.0843C45.2908 14.2016 42.7592 13.3055 39.675 13.3055H39.6777Z" fill="#170C35"/>
<path d="M33.3316 33.385C34.0993 34.3769 33.2944 36.2888 31.5358 37.653C29.7746 39.0171 27.7265 39.3176 26.9588 38.3257C26.1911 37.3312 26.996 35.4219 28.7545 34.0578C30.5131 32.6936 32.5639 32.3931 33.3316 33.385Z" fill="#170C35"/>
</g>
<defs>
<clipPath id="clip0_2118_87998">
<rect width="190" height="179" fill="white" transform="translate(5.5 11)"/>
</clipPath>
</defs>
</svg>
