<svg width="201" height="200" viewBox="0 0 201 200" fill="none" xmlns="http://www.w3.org/2000/svg">
<g clip-path="url(#clip0_2118_87413)">
<path d="M39.9974 185.346C39.4593 185.346 38.9116 185.229 38.393 184.982C36.5197 184.092 35.7159 181.846 36.6039 179.968C39.4464 173.947 55.2207 146.877 75.0593 134.165C76.8094 133.044 79.13 133.557 80.2482 135.309C81.3664 137.06 80.8543 139.39 79.1074 140.511C62.082 151.42 46.9754 175.614 43.3972 183.192C42.7555 184.55 41.4072 185.346 40.0006 185.346H39.9974Z" fill="#FEDA56"/>
<path d="M35.6943 169.816C38.0926 169.709 50.7393 177.086 49.8091 179.058C48.8789 181.031 42.5588 194.143 40.7406 193.997C38.9224 193.851 21.0705 182.054 22.247 180.524C23.4236 178.997 28.9788 181.697 31.2864 180.118C33.594 178.538 34.5631 169.865 35.6943 169.816Z" fill="#F7AC32"/>
<path d="M68.407 149.168C71.8166 145.863 75.4142 142.874 79.1025 140.511C80.8494 139.39 81.3615 137.064 80.2434 135.309C79.1252 133.557 76.8046 133.044 75.0544 134.165C70.559 137.044 66.2743 140.664 62.3008 144.606L68.4037 149.168H68.407Z" fill="#F7AC32"/>
<path d="M161.418 185.346C161.956 185.346 162.504 185.229 163.022 184.982C164.896 184.092 165.696 181.846 164.811 179.968C161.969 173.947 146.195 146.877 126.356 134.165C124.606 133.044 122.285 133.557 121.17 135.309C120.052 137.06 120.564 139.39 122.311 140.511C139.337 151.42 154.443 175.614 158.021 183.192C158.663 184.55 160.011 185.346 161.418 185.346Z" fill="#FEDA56"/>
<path d="M165.722 169.816C163.324 169.709 150.677 177.086 151.607 179.058C152.538 181.031 158.858 194.143 160.676 193.997C162.494 193.851 180.346 182.054 179.169 180.524C177.993 178.997 172.438 181.697 170.13 180.118C167.822 178.538 166.853 169.865 165.722 169.816Z" fill="#F7AC32"/>
<path d="M133.007 149.168C129.597 145.863 126 142.874 122.311 140.511C120.564 139.39 120.052 137.064 121.17 135.309C122.289 133.557 124.609 133.044 126.356 134.165C130.851 137.044 135.136 140.664 139.11 144.606L133.007 149.168Z" fill="#F7AC32"/>
<path d="M180.362 92.8848L106.157 167.285C103.308 170.141 98.6899 170.141 95.841 167.285L21.6367 92.8848C18.7878 90.0284 18.7878 85.3977 21.6367 82.5413L95.841 8.14133C98.6899 5.28492 103.308 5.28492 106.157 8.14133L180.362 82.5413C183.211 85.3977 183.211 90.0284 180.362 92.8848Z" fill="#FEDA56"/>
<path d="M99.7348 107.502C121.861 107.502 139.798 93.6933 139.798 76.6597C139.798 59.6261 121.861 45.8176 99.7348 45.8176C77.6086 45.8176 59.6719 59.6261 59.6719 76.6597C59.6719 93.6933 77.6086 107.502 99.7348 107.502Z" fill="#F7AC32"/>
<path d="M100.809 103.196C122.935 103.196 140.872 89.3874 140.872 72.3538C140.872 55.3202 122.935 41.5117 100.809 41.5117C78.6829 41.5117 60.7461 55.3202 60.7461 72.3538C60.7461 89.3874 78.6829 103.196 100.809 103.196Z" fill="#FFECE0"/>
<path d="M111.791 95.1468C107.992 95.1208 104.599 96.8626 102.382 99.5987C101.76 100.366 100.574 100.372 99.9513 99.6052C97.7474 96.8853 94.3831 95.1468 90.6138 95.1468C83.2727 95.1533 78.0254 101.399 78.6801 108.727C79.6654 119.785 90.9994 129.349 97.1899 133.791C99.5462 135.484 102.726 135.468 105.056 133.736C111.201 129.173 122.574 119.386 123.637 108.776C124.353 101.636 118.947 95.1955 111.791 95.1468Z" fill="#FD5E5E"/>
<path d="M90.9703 115.447C91.9167 114.989 92.1728 113.364 91.3268 112.682C90.0369 111.645 88.465 111.375 86.8477 111.395C87.2398 111.343 87.6385 111.307 88.0372 111.291C89.5118 111.226 90.348 111.408 91.463 110.355C91.8843 109.959 92.0626 109.088 91.6898 108.594C89.6771 105.926 84.7021 107.365 82.025 108.408C81.999 108.418 81.9699 108.431 81.9472 108.441C82.3167 107.869 82.5857 107.261 82.6051 106.569C82.6375 105.507 81.6166 104.948 80.6929 105.107C78.9881 105.403 77.8699 107.619 77.0402 108.997C76.4633 109.952 75.8961 110.969 75.5234 112.038C75.4748 112.045 75.4261 112.051 75.3775 112.061C68.9181 113.39 63.1068 118.512 57.4836 123.461C56.4788 124.345 55.526 125.176 54.612 125.947C47.0149 132.391 42.5617 134.763 38.076 131.117C35.9888 129.424 34.9905 127.578 34.9419 125.313V125.131C34.9419 120.848 38.2348 115.931 41.181 112.483L35.8429 107.131C32.174 111.301 27.28 118.239 27.4291 125.459C27.5263 129.918 29.5715 133.898 33.3408 136.973C36.3615 139.426 39.366 140.42 42.3121 140.42C48.5998 140.42 54.6217 135.884 59.9435 131.296C60.7927 130.571 61.6224 129.833 62.4392 129.118C67.3202 124.819 72.3763 120.37 76.8814 119.447C76.9235 119.438 76.9624 119.425 77.0045 119.415C80.8776 120.14 84.9905 119.103 88.4293 121.703C89.5799 122.574 91.0416 121.576 91.45 120.471C91.4759 120.396 91.5051 120.325 91.531 120.25C91.8973 119.252 91.2588 118.297 90.5101 117.735C89.5767 117.033 88.3288 116.448 86.9514 116.016C88.3288 116.071 89.6771 116.071 90.9671 115.447H90.9703Z" fill="#F7AC32"/>
<path d="M111.04 115.424C110.093 114.966 109.837 113.341 110.683 112.659C111.973 111.622 113.545 111.352 115.162 111.372C114.77 111.32 114.372 111.284 113.973 111.268C112.498 111.203 111.662 111.385 110.547 110.332C110.126 109.936 109.948 109.065 110.32 108.571C112.333 105.903 117.308 107.342 119.985 108.386C120.011 108.395 120.04 108.408 120.063 108.418C119.693 107.846 119.424 107.238 119.405 106.546C119.373 105.484 120.394 104.925 121.317 105.084C123.022 105.38 124.14 107.596 124.97 108.974C125.547 109.929 126.114 110.946 126.487 112.015C126.535 112.022 126.584 112.028 126.633 112.038C133.092 113.367 138.903 118.489 144.527 123.438C145.531 124.322 146.484 125.154 147.398 125.924C154.995 132.368 159.448 134.74 163.934 131.094C166.021 129.401 167.02 127.555 167.068 125.29V125.108C167.068 120.825 163.775 115.908 160.829 112.461L166.167 107.108C169.836 111.278 174.73 118.219 174.581 125.436C174.484 129.895 172.439 133.875 168.669 136.95C165.649 139.403 162.644 140.397 159.698 140.397C153.41 140.397 147.388 135.861 142.067 131.273C141.217 130.548 140.388 129.81 139.571 129.095C134.687 124.796 129.634 120.347 125.126 119.424C125.083 119.415 125.044 119.402 125.002 119.392C121.129 120.117 117.016 119.08 113.578 121.68C112.427 122.551 110.965 121.553 110.557 120.448C110.531 120.373 110.502 120.302 110.476 120.227C110.11 119.229 110.748 118.274 111.497 117.712C112.43 117.01 113.678 116.425 115.056 115.993C113.678 116.048 112.33 116.048 111.04 115.424Z" fill="#F7AC32"/>
<path d="M166.19 81.6314C164.884 78.6288 163.124 75.7269 160.952 73.2702C158.91 70.963 156.972 68.0156 154.328 66.3972C152.934 65.5458 150.921 66.9692 151.472 68.5972C152.279 70.976 154.007 72.7145 155.222 74.8755C156.457 77.0787 157.582 79.5712 158.414 81.9597C159.737 85.7585 161.156 91.9035 158.664 95.3936C157.4 97.1679 158.181 99.8943 159.802 101.106C161.682 102.513 163.843 102.192 165.6 100.759C168.044 98.7667 168.374 94.6007 168.384 91.6695C168.397 88.1697 167.58 84.8161 166.19 81.6249V81.6314Z" fill="#FEEA77"/>
<path d="M149.313 59.0499C149.278 58.9817 149.239 58.9135 149.203 58.8452C148.27 57.1489 145.641 57.1489 144.711 58.8452C144.675 58.9135 144.636 58.9817 144.598 59.0499C144.121 59.9143 144.095 60.9542 144.598 61.8154C145.084 62.6473 145.994 63.1705 146.957 63.1705C147.92 63.1705 148.83 62.6473 149.317 61.8154C149.819 60.9542 149.793 59.9143 149.317 59.0499H149.313Z" fill="#FEEA77"/>
<path d="M103.368 19.2064C93.5634 19.0179 86.8641 24.5162 80.5569 31.3794C79.4712 32.559 80.9329 34.7753 82.3622 33.7256C87.8267 29.7091 95.3071 23.4634 102.593 24.9582C106.784 25.8161 107.607 19.2909 103.368 19.2064Z" fill="#FEEA77"/>
<path d="M96.6432 102.247C96.2024 100.798 94.7763 99.6701 93.4734 98.9747C92.0732 98.2273 90.7574 97.9511 89.1984 98.2793C87.8728 98.5588 87.3413 100.502 88.3784 101.399C89.166 102.081 89.9892 102.614 90.8449 103.199C91.519 103.661 92.2029 104.603 93.0909 104.986C94.0049 105.383 94.9448 105.464 95.781 104.798C96.52 104.207 96.9348 103.193 96.6496 102.247H96.6432Z" fill="#FD8279"/>
<path d="M117.665 100.288C116.773 99.4525 115.752 98.6694 114.582 98.2827C113.529 97.9317 112.203 97.6977 111.234 98.3119C110.168 98.7994 109.743 100.249 110.638 101.146C111.082 101.792 111.847 102.211 112.323 102.536C112.466 102.634 112.984 103.001 113.322 103.245C113.322 103.245 113.435 103.333 113.497 103.388C113.688 103.56 113.866 103.732 114.044 103.917C114.981 104.883 116.738 104.928 117.665 103.917C118.579 102.92 118.708 101.266 117.665 100.288Z" fill="#FD8279"/>
<path d="M110.851 72.0842C110.851 77.5241 106.452 81.9338 101.027 81.9338C95.6013 81.9338 91.2031 77.5241 91.2031 72.0842C91.2031 66.6443 95.6013 62.2346 101.027 62.2346C106.452 62.2346 110.851 66.6443 110.851 72.0842Z" fill="#FD5E5E"/>
<path d="M101.03 75.3176C99.2502 75.3176 97.8047 73.8682 97.8047 72.0842C97.8047 70.3002 99.2502 68.8508 101.03 68.8508C102.809 68.8508 104.254 70.3002 104.254 72.0842C104.254 73.8682 102.809 75.3176 101.03 75.3176ZM101.03 70.8786C100.368 70.8786 99.8271 71.418 99.8271 72.0842C99.8271 72.7504 100.365 73.2898 101.03 73.2898C101.694 73.2898 102.232 72.7504 102.232 72.0842C102.232 71.418 101.694 70.8786 101.03 70.8786Z" fill="#170C35"/>
<path d="M83.5599 71.938C79.1197 71.938 76.9708 68.6104 76.9449 68.5682C76.6467 68.0937 76.7893 67.4665 77.2625 67.1708C77.7357 66.8751 78.358 67.0148 78.6562 67.486C78.7761 67.668 81.4727 71.704 87.4978 68.9451C88.0034 68.7111 88.6063 68.9354 88.8396 69.4456C89.0698 69.9557 88.8461 70.5569 88.3405 70.7909C86.5255 71.6228 84.9341 71.9413 83.5632 71.9413L83.5599 71.938Z" fill="#170C35"/>
<path d="M118.494 71.9379C117.123 71.9379 115.532 71.6195 113.717 70.7876C113.208 70.5536 112.984 69.9524 113.217 69.4422C113.451 68.932 114.05 68.7078 114.559 68.9418C120.656 71.7299 123.291 67.6614 123.401 67.4859C123.699 67.0115 124.321 66.8685 124.795 67.1675C125.268 67.4664 125.41 68.0904 125.112 68.5648C125.086 68.6071 122.937 71.9347 118.497 71.9347L118.494 71.9379Z" fill="#170C35"/>
<path d="M79.365 77.1706C79.4272 74.4219 77.2551 72.1429 74.5136 72.0806C71.772 72.0182 69.4991 74.196 69.4369 76.9447C69.3747 79.6935 71.5467 81.9724 74.2883 82.0348C77.0298 82.0972 79.3027 79.9194 79.365 77.1706Z" fill="#FD8FB3"/>
<path d="M127.889 82.0379C130.628 81.9084 132.744 79.577 132.614 76.8305C132.485 74.0841 130.16 71.9626 127.421 72.0921C124.682 72.2217 122.566 74.5531 122.695 77.2995C122.824 80.046 125.149 82.1674 127.889 82.0379Z" fill="#FD8FB3"/>
</g>
<defs>
<clipPath id="clip0_2118_87413">
<rect width="163" height="188" fill="white" transform="translate(19.5 6)"/>
</clipPath>
</defs>
</svg>
