<svg width="18" height="18" viewBox="0 0 18 18" fill="none" xmlns="http://www.w3.org/2000/svg">
<rect width="18" height="18" rx="9" fill="white"/>
<path fill-rule="evenodd" clip-rule="evenodd" d="M5.103 0H12.906C15.957 0 18 2.142 18 5.328V12.6819C18 15.858 15.957 18 12.906 18H5.103C2.052 18 0 15.858 0 12.6819V5.328C0 2.142 2.052 0 5.103 0ZM8.48827 11.6908L12.7633 7.41581C13.0693 7.10981 13.0693 6.61481 12.7633 6.29981C12.4573 5.99381 11.9533 5.99381 11.6473 6.29981L7.93027 10.0168L6.35527 8.44181C6.04927 8.13581 5.54527 8.13581 5.23927 8.44181C4.93327 8.74781 4.93327 9.24281 5.23927 9.55781L7.38127 11.6908C7.53427 11.8438 7.73227 11.9158 7.93027 11.9158C8.13727 11.9158 8.33527 11.8438 8.48827 11.6908Z" fill="#18AE78"/>
</svg>
