<svg width="201" height="200" viewBox="0 0 201 200" fill="none" xmlns="http://www.w3.org/2000/svg">
<g clip-path="url(#clip0_2118_87608)">
<path d="M21.3203 162.227C21.3203 162.227 33.2274 161.098 44.3328 163.203L32.0043 167.684C32.0043 167.684 23.3596 164.071 23.2088 163.969C23.0579 163.869 21.3203 162.226 21.3203 162.226V162.227Z" fill="#1E1E1E"/>
<path d="M43.299 137.199L43.7855 221.479L17.5312 220.426L23.7265 137.601L40.5644 137.255L43.299 137.199Z" fill="#894429"/>
<path d="M45.9928 154.863C47.6499 154.745 48.9464 153.375 48.9711 151.703L49.0641 145.546C49.7501 145.179 50.3575 144.77 50.8792 144.324C51.0166 144.217 51.1354 144.107 51.2439 143.991C51.5362 143.711 51.7852 143.435 52.0001 143.152C55.996 137.893 55.6024 124.473 54.9516 116.507C55.6985 114.013 56.2677 111.227 56.4619 109.091C56.7594 105.817 55.6148 103.888 54.6024 102.847C53.5693 101.784 51.6241 100.564 48.2222 100.789C47.7966 100.819 47.3875 100.893 46.9949 101.01C46.5951 100.219 46.0734 99.5335 45.4329 98.9582C44.4019 98.0335 42.5517 96.9751 39.5951 97.1855C39.0723 97.2228 38.5444 97.2964 37.9773 97.4094C37.186 97.568 36.47 97.8624 35.8275 98.2937C34.3884 96.407 32.2128 95.4564 29.5382 95.6471C29.2706 95.6668 29.001 95.6969 28.7283 95.7394C28.3233 79.7281 26.3522 77.5532 24.0247 76.6679C22.9194 76.247 21.8408 76.0708 20.8202 76.1433C18.848 76.2843 14.2829 77.5978 14.4606 86.7411C14.4854 88.0256 14.2953 91.7917 14.0763 96.154C13.721 103.209 13.2406 112.742 13.1579 121.044C9.95131 124.463 8.13725 127.39 7.61968 129.967C6.80253 134.045 10.2561 140.432 15.346 144.312C15.536 144.487 15.8325 144.738 16.2385 145.021L15.8656 150.751C15.7644 152.301 16.7819 153.702 18.2819 154.082C25.7944 155.98 45.1251 154.913 45.9453 154.866C45.9608 154.866 45.9763 154.865 45.9928 154.864V154.863Z" fill="#8471D8"/>
<path d="M47.6923 154.828C49.3493 154.71 50.6458 153.339 50.6706 151.667L50.7636 145.51C51.4495 145.143 52.057 144.735 52.5787 144.288C52.7161 144.181 52.8349 144.072 52.9434 143.955C53.2357 143.676 53.4847 143.4 53.6996 143.117C57.6955 137.858 57.3019 124.437 56.651 116.471C57.3979 113.977 57.9671 111.192 58.1614 109.055C58.4589 105.781 57.3143 103.852 56.3018 102.811C55.2688 101.749 53.3235 100.529 49.9216 100.754C49.496 100.784 49.0869 100.857 48.6944 100.974C48.2946 100.183 47.7729 99.4981 47.1324 98.9228C46.1014 97.9981 44.2512 96.9397 41.2945 97.1501C40.7728 97.1874 40.2439 97.26 39.6768 97.374C38.8854 97.5326 38.1685 97.827 37.527 98.2583C36.0879 96.3716 33.9123 95.421 31.2377 95.6117C30.9701 95.6314 30.7005 95.6615 30.4277 95.704C30.0228 79.6927 28.0517 77.5178 25.7242 76.6325C24.6188 76.2116 23.5403 76.0354 22.5196 76.1079C20.5475 76.2489 15.9824 77.5624 16.1601 86.7057C16.1849 87.9902 15.9948 91.7564 15.7758 96.1186C15.4204 103.173 14.94 112.706 14.8574 121.009C11.6508 124.428 9.83671 127.354 9.31915 129.931C8.50096 134.01 11.9555 140.397 17.0454 144.277C17.2355 144.452 17.532 144.703 17.938 144.986L17.5651 150.716C17.4638 152.265 18.4814 153.667 19.9814 154.046C27.4938 155.944 46.8245 154.878 47.6448 154.831C47.6603 154.831 47.6768 154.83 47.6923 154.828Z" fill="#AD97F2"/>
<path d="M27.151 112.095C27.151 112.095 28.2295 81.0261 24.591 79.6421C20.9526 78.2582 19.2666 81.3278 19.3699 86.6438C19.4732 91.9608 16.5724 128.842 19.0755 137.156C20.4898 141.853 23.2264 144.043 28.5518 144.59C33.8762 145.137 47.9073 145.439 51.1542 141.167C55.4518 135.511 53.3082 115.05 53.3082 115.05L27.152 112.096L27.151 112.095Z" fill="#AD97F2"/>
<path d="M18.6129 137.295C16.741 131.086 17.8423 109.284 18.4983 96.2587C18.7307 91.6642 18.9136 88.0317 18.8857 86.6509C18.8134 82.9842 19.5768 80.4796 21.0944 79.4067C22.0758 78.7111 23.2886 78.6251 24.7586 79.19C28.4332 80.5875 27.8444 105.53 27.645 111.665L53.3569 114.569L53.7433 114.612L53.7815 114.997C53.8704 115.842 55.8952 135.717 51.5325 141.458C48.0759 146.007 33.7339 145.606 28.5004 145.069C27.2938 144.945 26.208 144.735 25.2359 144.431C21.8082 143.357 19.7607 141.104 18.6129 137.296V137.295ZM26.6512 112.525L26.6688 112.078C27.1853 97.1844 26.5717 80.914 24.4177 80.094C23.2814 79.6617 22.3557 79.697 21.6491 80.1977C20.4239 81.0633 19.7834 83.3491 19.8485 86.6354C19.8753 88.0483 19.6915 91.6953 19.4601 96.3105C18.8051 109.272 17.7121 130.967 19.5324 137.017C20.8939 141.533 23.5066 143.59 28.5985 144.109C34.5645 144.724 47.8331 144.739 50.7691 140.874C54.5842 135.854 53.1276 118.318 52.8642 115.486L26.6522 112.526L26.6512 112.525Z" fill="white"/>
<path d="M50.1336 103.965C51.8299 103.853 55.3981 104.02 54.9673 108.764C54.5365 113.507 51.7772 123.664 48.2834 123.049C44.7896 122.434 44.8691 119.101 45.4022 114.447C45.9353 109.792 47.2379 104.156 50.1336 103.965Z" fill="#AD97F2"/>
<path d="M44.9271 114.393C45.4808 109.534 46.83 103.701 50.1038 103.483C52.0036 103.361 53.4292 103.777 54.3538 104.722C55.2433 105.637 55.611 107.012 55.4478 108.807C55.1152 112.483 53.1813 120.671 50.2215 122.944C49.5635 123.448 48.8848 123.644 48.2029 123.523C47.9488 123.48 47.7122 123.422 47.4901 123.353C44.2938 122.351 44.4188 118.837 44.9271 114.393ZM50.1658 104.448C48.1575 104.58 46.5965 108.244 45.8816 114.503C45.2907 119.673 45.5077 122.033 48.3682 122.574C48.7804 122.646 49.1947 122.517 49.6358 122.178C52.236 120.182 54.1493 112.474 54.4902 108.72C54.6265 107.218 54.3476 106.1 53.6627 105.397C53.3373 105.062 52.9137 104.812 52.3992 104.65C51.7856 104.457 51.0397 104.39 50.1658 104.449V104.448Z" fill="white"/>
<path d="M40.3062 100.531C42.1988 100.151 46.2412 99.8049 46.4602 105.21C46.6792 110.614 45.08 122.46 41.0562 122.29C37.0324 122.12 36.6264 118.357 36.5355 113.038C36.4446 107.719 37.0738 101.18 40.3062 100.532V100.531Z" fill="#AD97F2"/>
<path d="M36.0557 113.045C35.9596 107.52 36.6042 100.781 40.2117 100.058C42.313 99.6349 43.9669 99.8806 45.126 100.802C46.2479 101.689 46.8595 103.165 46.939 105.189C47.1095 109.368 46.1529 118.852 43.1745 121.837C42.5227 122.49 41.8026 122.804 41.0361 122.772C40.4937 122.75 40.0113 122.667 39.5826 122.534C36.473 121.559 36.1352 117.786 36.0567 113.045H36.0557ZM40.4008 101.003C38.128 101.46 36.8935 105.842 37.0175 113.029C37.1156 118.866 37.7509 121.662 41.0795 121.808C41.5722 121.829 42.0361 121.614 42.4937 121.154C45.1374 118.506 46.1539 109.517 45.9803 105.231C45.9101 103.5 45.4235 102.266 44.532 101.562C44.2324 101.328 43.8863 101.147 43.4948 101.025C42.6652 100.765 41.6311 100.758 40.4008 101.003Z" fill="white"/>
<path d="M29.4676 99.2371C31.3044 98.6431 35.2806 97.8366 36.1143 103.181C36.947 108.525 36.7083 120.475 32.6918 120.769C31.7083 120.84 30.9159 120.673 30.2692 120.302C28.9314 119.535 28.4407 118.086 27.9314 116.503C27.2114 114.261 27.1545 112.421 27.1463 112.095C26.98 105.11 26.6173 100.16 29.4676 99.2371Z" fill="#AD97F2"/>
<path d="M30.0335 120.72C28.5014 119.845 27.9797 118.22 27.4766 116.648C26.802 114.547 26.6874 112.773 26.6677 112.105L26.6295 110.58C26.4622 104.287 26.3434 99.7439 29.3237 98.7767C31.362 98.1195 33.0314 98.1744 34.2897 98.9561C35.5066 99.7066 36.2804 101.102 36.5934 103.105C37.236 107.236 37.3661 116.767 34.7463 120.074C34.1719 120.798 33.4953 121.192 32.7308 121.248C32.0221 121.301 31.3785 121.235 30.8072 121.056C30.5324 120.97 30.2762 120.857 30.0335 120.719V120.72ZM29.6171 99.6952C27.3237 100.442 27.4353 104.683 27.5913 110.554L27.6285 112.081C27.6461 112.704 27.7556 114.369 28.3909 116.353C28.9425 118.067 29.3868 119.239 30.5097 119.881C31.0986 120.218 31.801 120.348 32.6595 120.285C33.1513 120.25 33.5882 119.984 33.9922 119.474C36.3166 116.54 36.3021 107.495 35.6409 103.254C35.3754 101.543 34.7515 100.374 33.7856 99.7761C33.5696 99.6434 33.3351 99.5387 33.0841 99.4599C32.1605 99.1707 30.9983 99.2495 29.6161 99.6952H29.6171Z" fill="white"/>
<path d="M23.1646 131.647C23.1646 131.647 26.4518 127.589 27.614 124.103C28.7772 120.618 26.9611 119.218 26.9611 119.218C26.9611 119.218 24.0138 116.967 21.3929 119.205C18.772 121.443 13.2399 126.681 12.461 130.566C11.6821 134.451 18.7462 145.757 28.5468 144.588L23.1646 131.646V131.647Z" fill="#AD97F2"/>
<path d="M23.3615 144.577C24.9276 145.068 26.6838 145.296 28.6053 145.067L28.4896 144.108C22.9689 144.774 18.877 141.308 16.9296 139.189C13.9978 135.999 12.5939 132.349 12.9327 130.66C13.5732 127.463 17.8832 122.837 21.7034 119.571C23.9865 117.62 26.5588 119.522 26.6725 119.601C26.7272 119.646 28.1859 120.866 27.158 123.948C26.0361 127.31 22.8243 131.301 22.7913 131.341L23.5392 131.95C23.6745 131.783 26.8925 127.784 28.0692 124.253C29.3264 120.486 27.3409 118.9 27.2551 118.834C26.1301 117.975 23.3884 116.865 21.0815 118.836C19.1662 120.471 12.8583 126.141 11.9895 130.471C11.5412 132.701 13.3625 136.731 16.222 139.844C17.6249 141.369 20.0795 143.548 23.3605 144.576L23.3615 144.577Z" fill="white"/>
<path d="M47.5935 142.857L47.4612 151.619C47.4612 151.619 27.8857 152.726 20.7617 150.925L21.2721 143.074L47.5924 142.856L47.5935 142.857Z" fill="#AD97F2"/>
<path d="M20.2578 151.293L20.6452 151.392C27.7599 153.189 46.6887 152.145 47.4914 152.099L47.9377 152.075L48.0741 142.863L47.1133 142.848L46.9904 151.16C44.0906 151.305 27.9149 152.039 21.2712 150.549L21.7527 143.105L20.7929 143.044L20.2578 151.294V151.293Z" fill="white"/>
<path d="M50.6209 141.737C50.6209 141.737 48.5981 143.393 44.3398 143.477L50.6209 141.737Z" fill="#EB4547"/>
<path d="M44.3496 143.959C48.7267 143.873 50.8383 142.182 50.925 142.11L50.3166 141.362C50.298 141.376 48.3455 142.915 44.332 142.995L44.3496 143.959Z" fill="white"/>
<path d="M19.1484 141.842C19.1484 141.842 21.104 143.856 25.0369 143.888L19.1484 141.842Z" fill="#EB4547"/>
<path d="M21.8793 143.893C22.7461 144.165 23.7956 144.36 25.0302 144.371L25.0364 143.405C21.3793 143.378 19.5064 141.524 19.4867 141.505L18.8008 142.181C18.8597 142.241 19.8803 143.268 21.8783 143.894L21.8793 143.893Z" fill="white"/>
<path d="M21.3235 162.227C21.3235 162.227 32.9795 164.736 44.336 163.203L44.0602 171.032C44.0602 171.032 34.2574 174.14 20.7656 170.084L21.3235 162.227Z" fill="#373837"/>
<path d="M27.7355 162.037L20.6524 160.965C20.2101 160.898 19.7975 161.203 19.7307 161.647L18.4191 170.37C18.3524 170.814 18.6569 171.228 19.0992 171.295L26.1823 172.368C26.6246 172.435 27.0372 172.129 27.104 171.685L28.4155 162.962C28.4823 162.518 28.1778 162.104 27.7355 162.037Z" fill="#2D2D2D"/>
<path d="M25.4092 172.251L18.3255 171.178C17.8834 171.111 17.5796 170.697 17.6458 170.253L18.9577 161.529C19.0249 161.085 19.4371 160.78 19.8792 160.847L26.963 161.92C27.4051 161.987 27.7088 162.401 27.6427 162.844L26.3307 171.569C26.2636 172.013 25.8514 172.317 25.4092 172.251Z" fill="#1E1E1E"/>
<path d="M24.9267 171.258L19.0765 170.373C18.7118 170.318 18.4598 169.976 18.5155 169.61L19.5992 162.405C19.654 162.039 19.9949 161.786 20.3596 161.842L26.2098 162.727C26.5745 162.782 26.8265 163.124 26.7708 163.49L25.6871 170.695C25.6323 171.061 25.2914 171.314 24.9267 171.258Z" fill="#6CC0EF"/>
<g opacity="0.5">
<path d="M24.9267 171.258L19.0765 170.373C18.7118 170.318 18.4598 169.976 18.5155 169.61L19.5992 162.405C19.654 162.039 19.9949 161.786 20.3596 161.842L26.2098 162.727C26.5745 162.782 26.8265 163.124 26.7708 163.49L25.6871 170.695C25.6323 171.061 25.2914 171.314 24.9267 171.258Z" fill="#6CC0EF"/>
<mask id="mask0_2118_87608" style="mask-type:luminance" maskUnits="userSpaceOnUse" x="18" y="161" width="9" height="11">
<path d="M24.9267 171.258L19.0765 170.373C18.7118 170.318 18.4598 169.976 18.5155 169.61L19.5992 162.405C19.654 162.039 19.9949 161.786 20.3596 161.842L26.2098 162.727C26.5745 162.782 26.8265 163.124 26.7708 163.49L25.6871 170.695C25.6323 171.061 25.2914 171.314 24.9267 171.258Z" fill="white"/>
</mask>
<g mask="url(#mask0_2118_87608)">
<g style="mix-blend-mode:screen">
<path d="M25.9429 161.306L15.4883 172.443L21.0565 174.838L31.0545 162.994L25.9429 161.306Z" fill="white"/>
</g>
<g style="mix-blend-mode:screen">
<path d="M23.1321 160.824L16.3594 167.618L16.7685 168.427L24.7437 160.819L23.1321 160.824Z" fill="white"/>
</g>
</g>
</g>
<path d="M30.855 168.533C31.3209 168.423 31.6095 167.954 31.4995 167.487C31.3895 167.019 30.9227 166.73 30.4568 166.84C29.991 166.951 29.7024 167.419 29.8124 167.887C29.9223 168.354 30.3892 168.644 30.855 168.533Z" fill="#2D2D2D"/>
<path d="M31.2235 167.685C31.2235 167.374 30.9724 167.122 30.6625 167.122C30.3526 167.122 30.1016 167.374 30.1016 167.685C30.1016 167.996 30.3526 168.248 30.6625 168.248C30.9724 168.248 31.2235 167.996 31.2235 167.685Z" fill="#894429"/>
<path d="M36.2574 168.84C36.7233 168.73 37.0118 168.261 36.9018 167.794C36.7919 167.326 36.3251 167.037 35.8592 167.147C35.3933 167.257 35.1048 167.726 35.2147 168.193C35.3247 168.661 35.7915 168.95 36.2574 168.84Z" fill="#2D2D2D"/>
<path d="M36.061 168.554C36.3708 168.554 36.6219 168.302 36.6219 167.991C36.6219 167.68 36.3708 167.428 36.061 167.428C35.7511 167.428 35.5 167.68 35.5 167.991C35.5 168.302 35.7511 168.554 36.061 168.554Z" fill="#894429"/>
<path d="M41.5386 168.298C42.0173 168.298 42.4054 167.909 42.4054 167.429C42.4054 166.948 42.0173 166.559 41.5386 166.559C41.0599 166.559 40.6719 166.948 40.6719 167.429C40.6719 167.909 41.0599 168.298 41.5386 168.298Z" fill="#2D2D2D"/>
<path d="M42.0985 167.429C42.0985 167.118 41.8474 166.866 41.5375 166.866C41.2276 166.866 40.9766 167.118 40.9766 167.429C40.9766 167.74 41.2276 167.992 41.5375 167.992C41.8474 167.992 42.0985 167.74 42.0985 167.429Z" fill="#894429"/>
<path d="M28.3586 137.287H26.2656L26.7543 135.324H28.8473L29.3163 133.361H27.2233L27.7119 131.398H29.8049L30.3132 129.298H32.2688L31.7605 131.398H33.7161L34.2243 129.298H36.1799L35.6717 131.398H37.7843L37.2956 133.361H35.183L34.714 135.324H36.8266L36.337 137.287H34.2243L33.7161 139.407H31.7605L32.2688 137.287H30.3132L29.8049 139.407H27.8493L28.3576 137.287H28.3586ZM32.7595 135.324L33.2285 133.361H31.2729L30.8039 135.324H32.7595Z" fill="white"/>
<path d="M41.9335 127.532H39.4883V125.765H44.3581V139.407H41.9325V127.532H41.9335Z" fill="white"/>
<path d="M150.523 158.261C150.523 158.261 164.552 157.82 175.948 160.104C175.948 160.104 159.45 168.345 150.523 158.261Z" fill="#DBBB95"/>
<path d="M148.598 163.372C148.598 163.372 148.577 161.838 157.354 161.137C166.131 160.436 177.892 162.797 177.998 165.138C178.103 167.479 164.189 169.268 163.394 169.284C162.6 169.3 148.598 163.372 148.598 163.372Z" fill="#BC282F"/>
<path d="M154.339 134.192L145.066 224.793L173.415 226.404L175.35 136.67L157.274 134.538L154.339 134.192Z" fill="#894429"/>
<path d="M149.612 152.909C147.842 152.608 146.59 150.998 146.737 149.198L147.276 142.566C146.575 142.1 145.965 141.597 145.45 141.062C145.314 140.932 145.197 140.803 145.092 140.666C144.806 140.334 144.567 140.012 144.366 139.685C140.614 133.611 142.431 119.217 143.958 110.717C143.413 107.956 143.09 104.9 143.103 102.582C143.123 99.0294 144.555 97.0743 145.751 96.0604C146.973 95.0248 149.192 93.9156 152.827 94.5137C153.281 94.5915 153.714 94.7128 154.124 94.8797C154.636 94.07 155.269 93.3879 156.018 92.8364C157.223 91.949 159.322 91.0046 162.481 91.5406C163.038 91.6349 163.599 91.7697 164.197 91.9511C165.032 92.2051 165.772 92.5959 166.418 93.1267C168.161 91.2482 170.599 90.4531 173.458 90.9372C173.743 90.986 174.03 91.0471 174.319 91.1207C176.418 73.9412 178.763 71.8077 181.359 71.0986C182.591 70.7617 183.77 70.685 184.86 70.8695C186.966 71.2272 191.74 73.1181 190.599 82.9332C190.439 84.3119 190.252 88.3829 190.035 93.0977C189.685 100.722 189.213 111.027 188.439 119.966C191.533 123.978 193.181 127.316 193.469 130.142C193.926 134.614 189.548 141.123 183.67 144.764C183.447 144.933 183.102 145.171 182.637 145.433L182.442 151.634C182.391 153.312 181.151 154.712 179.497 154.964C171.22 156.22 150.538 153.052 149.661 152.916C149.645 152.914 149.627 152.911 149.611 152.908L149.612 152.909Z" fill="#E5AA17"/>
<path d="M147.787 152.694C146.018 152.394 144.766 150.784 144.912 148.983L145.452 142.352C144.751 141.885 144.141 141.382 143.626 140.847C143.49 140.718 143.373 140.588 143.268 140.451C142.982 140.12 142.743 139.797 142.542 139.471C138.789 133.397 140.607 119.002 142.133 110.502C141.589 107.742 141.266 104.685 141.279 102.367C141.299 98.8148 142.731 96.8597 143.927 95.8458C145.149 94.8102 147.368 93.701 151.002 94.2991C151.457 94.3769 151.89 94.4982 152.3 94.6651C152.812 93.8554 153.445 93.1733 154.193 92.6218C155.399 91.7344 157.498 90.79 160.656 91.326C161.214 91.4203 161.775 91.5551 162.373 91.7365C163.208 91.9894 163.948 92.3813 164.593 92.9121C166.337 91.0336 168.775 90.2385 171.634 90.7226C171.919 90.7714 172.206 90.8325 172.496 90.9061C174.594 73.7266 176.939 71.5931 179.536 70.884C180.768 70.5471 181.947 70.4704 183.037 70.6549C185.143 71.0126 189.917 72.9035 188.776 82.7186C188.616 84.0973 188.429 88.1683 188.212 92.883C187.862 100.508 187.39 110.812 186.616 119.751C189.71 123.763 191.358 127.101 191.646 129.927C192.103 134.399 187.725 140.909 181.847 144.549C181.623 144.718 181.278 144.957 180.813 145.219L180.619 151.42C180.568 153.099 179.328 154.498 177.674 154.75C169.397 156.006 148.715 152.838 147.838 152.703C147.822 152.701 147.804 152.697 147.787 152.694Z" fill="#FFC522"/>
<path d="M174.32 108.878C174.32 108.878 176.386 75.3478 180.443 74.2396C184.501 73.1314 185.996 76.6094 185.333 82.3163C184.67 88.0241 183.961 127.998 180.405 136.678C178.396 141.582 175.225 143.65 169.441 143.683C163.657 143.715 148.534 142.572 145.486 137.638C141.45 131.105 145.88 109.321 145.88 109.321L174.32 108.878Z" fill="#FFC522"/>
<path d="M173.02 143.858C171.943 144.084 170.753 144.195 169.442 144.203C163.758 144.234 148.289 143.165 145.044 137.911C140.946 131.281 145.188 110.114 145.371 109.216L145.453 108.805L145.873 108.8L173.83 108.363C174.252 101.744 176.209 74.8554 180.306 73.7358C181.946 73.2828 183.241 73.5015 184.225 74.3526C185.745 75.665 186.306 78.4391 185.848 82.3753C185.674 83.8578 185.494 87.7836 185.267 92.7503C184.62 106.829 183.541 130.394 180.884 136.877C179.253 140.852 176.817 143.063 173.019 143.859L173.02 143.858ZM146.309 109.835C145.732 112.853 142.344 131.563 145.927 137.361C148.683 141.826 162.957 143.196 169.437 143.158C174.968 143.132 177.992 141.194 179.925 136.479C182.511 130.161 183.587 106.712 184.229 92.7026C184.458 87.7142 184.64 83.7728 184.815 82.2561C185.227 78.7284 184.775 76.203 183.547 75.1436C182.838 74.5319 181.846 74.3972 180.579 74.7424C178.177 75.3996 175.829 92.8363 174.837 108.91L174.809 109.392L146.309 109.835Z" fill="white"/>
<path d="M150.44 97.7317C148.628 97.4331 144.771 97.2403 144.743 102.387C144.714 107.535 146.627 118.748 150.449 118.451C154.271 118.155 154.532 114.562 154.442 109.501C154.352 104.439 153.536 98.2407 150.441 97.7317H150.44Z" fill="#FFC522"/>
<path d="M151.272 118.861C151.026 118.913 150.765 118.95 150.487 118.97C149.742 119.029 149.032 118.748 148.377 118.137C145.43 115.382 144.199 106.373 144.223 102.385C144.233 100.436 144.772 98.9963 145.823 98.1048C146.915 97.1863 148.493 96.8867 150.523 97.2164C154.022 97.7928 154.867 104.209 154.958 109.493C155.044 114.325 154.813 118.119 151.272 118.862V118.861ZM147.933 98.2302C147.362 98.3495 146.881 98.5744 146.496 98.901C145.687 99.5862 145.271 100.76 145.261 102.389C145.237 106.462 146.496 114.953 149.086 117.372C149.525 117.783 149.958 117.965 150.408 117.931C153.541 117.648 154.02 115.132 153.92 109.509C153.801 102.703 152.502 98.5983 150.355 98.2468C149.421 98.0924 148.612 98.0872 147.933 98.2302Z" fill="white"/>
<path d="M161.367 95.0643C159.371 94.4579 155.059 93.6638 154.261 99.4546C153.465 105.244 153.955 118.153 158.301 118.39C162.647 118.628 163.473 114.623 164.123 108.911C164.773 103.2 164.775 96.0999 161.366 95.0643H161.367Z" fill="#FFC522"/>
<path d="M159.861 118.807C159.386 118.907 158.858 118.945 158.272 118.912C157.444 118.867 156.702 118.453 156.068 117.682C153.175 114.161 153.13 103.86 153.748 99.383C154.045 97.2133 154.856 95.6894 156.154 94.8539C157.496 93.9841 159.301 93.8918 161.517 94.5667C165.323 95.7226 165.315 103.036 164.639 108.97C164.062 114.061 163.307 118.083 159.861 118.807ZM157.886 95.2633C157.452 95.3546 157.061 95.5121 156.715 95.733C155.683 96.3964 155.031 97.6726 154.776 99.5271C154.144 104.12 154.304 113.894 156.873 117.019C157.318 117.562 157.795 117.841 158.327 117.871C161.922 118.062 162.895 115.121 163.607 108.852C164.486 101.136 163.613 96.2938 161.215 95.564C159.918 95.17 158.805 95.0705 157.886 95.2633Z" fill="white"/>
<path d="M173.16 94.806C171.246 93.9746 167.052 92.6912 165.601 98.3524C164.151 104.014 163.166 116.892 167.456 117.627C168.507 117.807 169.376 117.71 170.11 117.379C171.629 116.694 172.307 115.187 173.019 113.536C174.027 111.202 174.279 109.228 174.321 108.878C175.225 101.382 176.129 96.0956 173.159 94.806H173.16Z" fill="#FFC522"/>
<path d="M169.455 118.135C168.822 118.268 168.122 118.271 167.366 118.14C166.55 118 165.863 117.506 165.321 116.666C162.847 112.835 163.976 102.598 165.095 98.2209C165.64 96.0999 166.617 94.6786 168.004 93.9996C169.437 93.2905 171.239 93.4056 173.363 94.3261C176.469 95.6769 175.869 100.551 175.036 107.303L174.836 108.939C174.746 109.655 174.439 111.552 173.495 113.741C172.79 115.379 172.06 117.073 170.322 117.853C170.047 117.977 169.759 118.071 169.455 118.134V118.135ZM169.247 94.6682C168.968 94.7263 168.706 94.8154 168.46 94.9357C167.359 95.4779 166.567 96.67 166.104 98.4831C164.952 102.975 163.997 112.703 166.193 116.101C166.575 116.691 167.017 117.024 167.542 117.113C168.458 117.271 169.227 117.204 169.896 116.904C171.171 116.33 171.771 115.115 172.542 113.33C173.431 111.263 173.722 109.483 173.805 108.815L174.004 107.177C174.782 100.877 175.342 96.3269 172.952 95.284C171.512 94.661 170.27 94.4536 169.246 94.6693L169.247 94.6682Z" fill="white"/>
<path d="M176.575 130.324C176.575 130.324 173.461 125.616 172.572 121.745C171.683 117.874 173.78 116.558 173.78 116.558C173.78 116.558 177.184 114.446 179.771 117.128C182.358 119.809 187.764 126.02 188.199 130.282C188.634 134.542 179.861 145.964 169.441 143.683L176.574 130.325L176.575 130.324Z" fill="#FFC522"/>
<path d="M175.019 144.211C173.284 144.575 171.37 144.636 169.328 144.19L169.552 143.171C175.421 144.464 180.183 141.164 182.498 139.089C185.983 135.965 187.872 132.185 187.682 130.334C187.324 126.829 183.169 121.401 179.399 117.489C177.146 115.153 174.181 116.93 174.052 117.003C173.988 117.046 172.293 118.206 173.078 121.628C173.936 125.361 176.976 129.989 177.008 130.036L176.14 130.611C176.012 130.418 172.966 125.78 172.067 121.859C171.106 117.677 173.407 116.178 173.505 116.116C174.804 115.308 177.868 114.403 180.145 116.764C182.036 118.722 188.232 125.481 188.717 130.228C188.968 132.673 186.591 136.818 183.191 139.867C181.523 141.361 178.657 143.447 175.021 144.21L175.019 144.211Z" fill="white"/>
<path d="M149.135 139.827L148.367 149.266C148.367 149.266 169.307 152.503 177.158 151.311L177.423 142.814L149.136 139.827H149.135Z" fill="#FFC522"/>
<path d="M177.662 151.76L177.235 151.826C169.397 153.016 149.145 149.913 148.287 149.779L147.809 149.707L148.619 139.784L149.654 139.868L148.922 148.821C152.027 149.281 169.349 151.761 176.65 150.851L176.904 142.795L177.943 142.83L177.662 151.76Z" fill="white"/>
<path d="M145.996 138.306C145.996 138.306 147.999 140.299 152.572 140.835L145.996 138.306Z" fill="#EB4547"/>
<path d="M152.51 141.352C147.811 140.802 145.715 138.763 145.629 138.677L146.36 137.934C146.379 137.952 148.319 139.811 152.628 140.316L152.509 141.351L152.51 141.352Z" fill="white"/>
<path d="M179.838 141.71C179.838 141.71 177.525 143.671 173.293 143.295L179.838 141.71Z" fill="#EB4547"/>
<path d="M176.685 143.631C175.724 143.832 174.576 143.933 173.246 143.815L173.339 142.775C177.275 143.127 179.483 141.33 179.505 141.311L180.173 142.109C180.103 142.167 178.899 143.166 176.685 143.631Z" fill="white"/>
<path d="M150.525 158.261C150.525 158.261 160.674 163.505 175.95 160.104L178.404 219.415L146.262 218.599L150.524 158.261H150.525Z" fill="#FFE9CC"/>
<path d="M148.596 163.372C148.596 163.372 160.318 168.585 177.996 165.139L180.657 224.445L143.484 223.727L148.596 163.373V163.372Z" fill="#EB4547"/>
<path d="M149.257 167.625C148.619 167.414 148.285 167.276 148.285 167.276L148.54 166.649C148.547 166.652 148.866 166.782 149.47 166.982L149.257 167.625Z" fill="#BC282F"/>
<path d="M165.64 170.024C165.103 170.024 164.577 170.017 164.061 170.004L164.079 169.326C164.589 169.339 165.11 169.346 165.641 169.346L166.203 169.343L166.209 170.021L165.641 170.024H165.64ZM168.353 169.965L168.325 169.287C169.018 169.257 169.724 169.215 170.443 169.159L170.496 169.834C169.769 169.891 169.054 169.933 168.353 169.964V169.965ZM161.916 169.91C161.177 169.866 160.463 169.808 159.775 169.74L159.841 169.065C160.521 169.132 161.226 169.189 161.957 169.233L161.915 169.91H161.916ZM172.633 169.631L172.558 168.958C173.249 168.88 173.952 168.79 174.664 168.685L174.762 169.357C174.042 169.461 173.331 169.553 172.633 169.631ZM157.643 169.491C156.895 169.39 156.186 169.279 155.52 169.162L155.635 168.494C156.295 168.61 156.994 168.72 157.733 168.82L157.643 169.491ZM153.411 168.746C152.7 168.592 151.997 168.421 151.32 168.239L151.495 167.584C152.161 167.762 152.854 167.931 153.556 168.084L153.412 168.746H153.411Z" fill="#BC282F"/>
<path d="M176.889 169.009L176.77 168.342C177.098 168.283 177.428 168.221 177.76 168.156L177.889 168.821C177.555 168.887 177.22 168.949 176.889 169.009Z" fill="#BC282F"/>
<path d="M152.756 133.098L150.668 132.946L151.297 131.024L153.384 131.176L153.993 129.252L151.907 129.101L152.536 127.179L154.624 127.33L155.282 125.273L157.232 125.415L156.574 127.472L158.524 127.615L159.184 125.557L161.134 125.699L160.476 127.757L162.583 127.91L161.954 129.832L159.848 129.679L159.238 131.603L161.345 131.756L160.716 133.678L158.608 133.525L157.948 135.602L155.997 135.46L156.657 133.383L154.706 133.24L154.046 135.318L152.096 135.176L152.756 133.098ZM157.287 131.46L157.896 129.536L155.945 129.394L155.335 131.317L157.287 131.46Z" fill="white"/>
<path d="M166.998 124.353L164.559 124.176L164.686 122.415L169.543 122.768L168.561 136.373L166.141 136.198L166.997 124.354L166.998 124.353Z" fill="white"/>
<path d="M82.3516 105.945L93.6862 236.73L134.254 231.304L112.765 103.74L86.5998 105.637L82.3516 105.945Z" fill="#FEC598"/>
<path d="M80.7095 133.729C78.123 133.784 75.9163 131.846 75.6363 129.257L74.6089 119.722C73.4921 119.253 72.4914 118.706 71.6189 118.089C71.391 117.942 71.19 117.79 71.0054 117.626C70.511 117.234 70.0851 116.841 69.7114 116.435C62.759 108.856 61.4456 87.9844 61.3116 75.5359C59.7958 71.7749 58.5122 67.5372 57.9062 64.2529C56.974 59.2173 58.4735 56.0614 59.8941 54.2997C61.3444 52.5022 64.187 50.328 69.494 50.1876C70.1581 50.1741 70.8043 50.2279 71.4297 50.3535C71.936 49.0684 72.6478 47.9298 73.5591 46.9451C75.0258 45.3612 77.7433 43.453 82.3579 43.3529C83.1739 43.335 84.0033 43.3724 84.8997 43.4665C86.149 43.598 87.303 43.9506 88.3603 44.5274C90.3213 41.394 93.5585 39.6054 97.7353 39.5142C98.1523 39.5053 98.5751 39.5142 99.0055 39.5396C97.3363 14.6486 100.081 10.9907 103.565 9.28129C105.218 8.46693 106.865 8.03808 108.458 8.00222C111.536 7.93498 118.805 9.31416 119.842 23.5199C119.988 25.5162 120.822 31.3288 121.788 38.0633C123.351 48.9533 125.464 63.6686 126.782 76.534C132.246 81.3724 135.48 85.6489 136.652 89.5727C138.504 95.7798 134.064 106.186 126.726 112.938C126.456 113.237 126.032 113.67 125.444 114.166L126.843 122.999C127.223 125.388 125.846 127.707 123.573 128.513C112.194 132.541 82.0601 133.68 80.7825 133.726C80.7586 133.728 80.7333 133.728 80.708 133.729H80.7095Z" fill="#1F8C4B"/>
<path d="M78.0689 133.92C75.4824 133.975 73.2756 132.037 72.9957 129.448L71.9682 119.913C70.8514 119.444 69.8508 118.897 68.9782 118.28C68.7504 118.133 68.5494 117.981 68.3647 117.817C67.8704 117.425 67.4445 117.032 67.0707 116.626C60.1184 109.047 58.805 88.1755 58.671 75.727C57.1552 71.966 55.8716 67.7283 55.2655 64.444C54.3334 59.4084 55.8329 56.2525 57.2534 54.4908C58.7038 52.6933 61.5449 50.5191 66.8533 50.3787C67.5175 50.3652 68.1637 50.419 68.7891 50.5446C69.2954 49.2595 70.0072 48.1209 70.9185 47.1362C72.3852 45.5523 75.1027 43.6442 79.7173 43.544C80.5333 43.5261 81.3627 43.5635 82.2591 43.6576C83.5084 43.7891 84.6624 44.1417 85.7196 44.7185C87.6807 41.5851 90.9179 39.7965 95.0947 39.7053C95.5116 39.6964 95.9345 39.7053 96.3649 39.7307C94.6956 14.8382 97.44 11.1818 100.924 9.47239C102.579 8.66102 104.226 8.23068 105.819 8.19631C108.897 8.12907 116.166 9.50825 117.203 23.714C117.349 25.7103 118.182 31.5229 119.149 38.2574C120.712 49.1474 122.825 63.8627 124.143 76.7281C129.606 81.5665 132.841 85.843 134.013 89.7669C135.865 95.9739 131.425 106.38 124.087 113.132C123.817 113.431 123.393 113.864 122.804 114.361L124.204 123.193C124.584 125.582 123.207 127.901 120.934 128.707C109.555 132.737 79.4209 133.874 78.1433 133.92C78.1195 133.922 78.0942 133.923 78.0689 133.923V133.92Z" fill="#3FB26D"/>
<path d="M103.805 64.6756C103.805 64.6756 97.6742 16.6448 103.12 13.9731C108.565 11.2999 111.621 15.8185 112.222 24.0772C112.824 32.3373 122.614 89.1214 119.924 102.375C118.403 109.864 114.474 113.655 106.293 115.274C98.1134 116.892 76.3956 119.386 70.7461 113.229C63.2696 105.078 63.6597 73.0359 63.6597 73.0359L103.803 64.6756H103.805Z" fill="#3FB26D"/>
<path d="M111.408 114.55C109.945 115.163 108.29 115.644 106.436 116.012C98.397 117.602 76.2101 120.294 70.1958 113.739C62.6061 105.465 62.895 74.3478 62.9114 73.0254L62.9158 72.4217L63.5085 72.2992L102.97 64.0809C101.782 54.5954 97.2906 15.9977 102.79 13.2976C104.989 12.2098 106.882 12.168 108.503 13.1049C111.011 14.5483 112.553 18.3228 112.967 24.0203C113.122 26.166 113.928 31.7739 114.948 38.8656C117.834 58.9721 122.669 92.6268 120.657 102.526C119.422 108.597 116.571 112.388 111.408 114.549V114.55ZM64.4079 73.647C64.4049 78.0759 64.661 105.485 71.2977 112.718C76.4051 118.29 96.9824 116.349 106.147 114.534C113.971 112.993 117.728 109.427 119.192 102.226C121.147 92.5805 116.339 59.0886 113.465 39.0822C112.443 31.9577 111.636 26.3289 111.474 24.1324C111.103 19.0266 109.782 15.5749 107.757 14.4079C106.588 13.734 105.148 13.8132 103.448 14.6469C100.226 16.2308 101.609 41.5552 104.545 64.5784L104.636 65.2688L64.4079 73.6455V73.647Z" fill="white"/>
<path d="M66.9871 55.3878C64.3411 55.458 58.8301 56.2335 60.1777 63.5284C61.5268 70.8233 67.2626 86.1766 72.5934 84.7182C77.9242 83.2598 77.3226 78.1017 75.8291 70.9607C74.3341 63.8198 71.5064 55.2652 66.9871 55.3878Z" fill="#3FB26D"/>
<path d="M73.8718 85.0752C73.5382 85.2157 73.1794 85.3397 72.7922 85.4428C71.7529 85.7297 70.6718 85.525 69.5789 84.8376C64.662 81.7386 60.4882 69.32 59.4444 63.6673C58.9336 60.9059 59.3059 58.7213 60.5552 57.1718C61.8537 55.5745 64.0053 54.7212 66.9686 54.6361C72.0775 54.5001 75.0064 63.3535 76.561 70.8097C77.9875 77.6279 78.6844 83.061 73.8718 85.0767V85.0752ZM63.575 56.7773C62.7992 57.1016 62.1783 57.5513 61.7211 58.1176C60.7607 59.3071 60.4882 61.0822 60.9156 63.3923C61.9817 69.1661 66.0558 80.842 70.374 83.5631C71.1066 84.0248 71.7678 84.1652 72.3976 83.9949C76.7561 82.7427 76.7546 79.0504 75.0973 71.1175C73.09 61.5141 70.1432 56.0571 67.0102 56.1423C65.6463 56.1766 64.4997 56.3903 63.575 56.7773Z" fill="white"/>
<path d="M81.7346 48.641C78.7446 48.3257 72.425 48.3735 72.8613 56.7876C73.2976 65.2016 77.4759 83.3417 83.6927 82.496C89.9095 81.6517 89.9988 75.7555 89.3764 67.4923C88.754 59.2307 86.8405 49.1789 81.7346 48.6395V48.641Z" fill="#3FB26D"/>
<path d="M86.0157 82.662C85.3694 82.9325 84.6323 83.1297 83.7955 83.2418C82.6117 83.4032 81.4487 83.0206 80.3439 82.1017C75.296 77.9029 72.4519 63.3325 72.1169 56.8266C71.9501 53.6753 72.6872 51.2964 74.2998 49.7603C75.9646 48.1645 78.4945 47.5429 81.815 47.8955C87.5151 48.4962 89.4792 58.8528 90.124 67.4372C90.6824 74.8008 90.6987 80.7016 86.0157 82.662ZM76.8625 49.8679C76.2728 50.1145 75.7621 50.4447 75.3317 50.8511C74.0496 52.0704 73.4719 54.0548 73.6119 56.7504C73.9573 63.4237 76.8223 77.2185 81.3028 80.9421C82.0801 81.5906 82.8306 81.8551 83.59 81.752C88.7317 81.0452 89.3154 76.6163 88.6304 67.5493C87.7921 56.3858 85.2488 49.7678 81.6572 49.3883C79.714 49.1836 78.1118 49.345 76.8625 49.8679Z" fill="white"/>
<path d="M98.3598 45.0698C95.4249 44.4138 89.1425 43.737 88.6169 52.145C88.0913 60.5531 90.1759 79.0548 96.4493 78.9278C97.9845 78.8964 99.1892 78.5229 100.139 77.8549C102.105 76.4728 102.657 74.1537 103.22 71.6239C104.015 68.0438 103.839 65.1823 103.805 64.6742C103.061 53.8171 102.915 46.0874 98.3613 45.0683L98.3598 45.0698Z" fill="#3FB26D"/>
<path d="M99.4164 79.1041C98.5557 79.4642 97.567 79.66 96.4606 79.6809C95.2679 79.7048 94.1616 79.1908 93.1669 78.1508C88.6297 73.4006 87.4638 58.5987 87.8673 52.1002C88.0654 48.9489 89.066 46.6716 90.8454 45.3328C92.6844 43.9387 95.2664 43.6129 98.5215 44.3376C103.282 45.406 103.75 52.4693 104.393 62.2551L104.552 64.6249C104.618 65.6634 104.695 68.4322 103.951 71.7868C103.395 74.2971 102.819 76.8941 100.569 78.4705C100.213 78.7201 99.8304 78.9323 99.4179 79.1041H99.4164ZM92.7857 45.938C92.4074 46.0963 92.059 46.2936 91.7433 46.5297C90.3317 47.5966 89.5306 49.5002 89.3653 52.1913C88.9484 58.8646 90.223 72.894 94.2479 77.1093C94.9478 77.8415 95.664 78.1926 96.4309 78.1747C97.771 78.1478 98.8416 77.8459 99.7068 77.2378C101.357 76.0783 101.878 74.197 102.487 71.4596C103.188 68.2903 103.118 65.6918 103.056 64.7235L102.895 62.3507C102.295 53.2209 101.86 46.6268 98.1954 45.8005C95.9886 45.3089 94.1735 45.3552 92.7842 45.9365L92.7857 45.938Z" fill="white"/>
<path d="M112.783 94.4243C112.783 94.4243 107.104 88.6042 104.8 83.3669C102.497 78.1296 105.112 75.6955 105.112 75.6955C105.112 75.6955 109.36 71.7791 113.747 74.8721C118.133 77.9652 127.462 85.2885 129.23 91.2027C130.996 97.1169 121.661 115.672 106.294 115.273L112.785 94.4243H112.783Z" fill="#3FB26D"/>
<path d="M114.332 114.507C111.973 115.495 109.281 116.1 106.269 116.024L106.311 114.52C114.968 114.756 120.818 108.788 123.534 105.222C127.625 99.8499 129.278 93.9865 128.509 91.4179C127.057 86.5526 119.709 79.9989 113.315 75.4863C109.494 72.7907 105.777 76.1124 105.614 76.2513C105.535 76.329 103.447 78.4314 105.484 83.0636C107.706 88.1156 113.26 93.8415 113.318 93.8998L112.244 94.9517C112.011 94.7112 106.446 88.9748 104.114 83.6687C101.624 78.0086 104.476 75.2621 104.6 75.1471C106.221 73.6514 110.315 71.5355 114.176 74.2595C117.382 76.5188 127.978 84.4024 129.946 90.9905C130.962 94.3854 128.715 100.899 124.726 106.139C122.769 108.708 119.274 112.442 114.332 114.51V114.507Z" fill="white"/>
<path d="M76.5 115.339L77.9608 128.91C77.9608 128.91 108.48 127.8 119.272 123.978L117.354 111.876L76.5 115.339Z" fill="#3FB26D"/>
<path d="M120.108 124.477L119.521 124.684C108.745 128.501 79.2377 129.614 77.9854 129.659L77.29 129.686L75.7578 115.417L77.2454 115.256L78.6272 128.13C83.145 127.937 108.338 126.739 118.43 123.465L116.614 111.991L118.095 111.758L120.108 124.475V124.477Z" fill="white"/>
<path d="M71.6445 114.039C71.6445 114.039 75.0187 116.315 81.6361 115.831L71.6445 114.039Z" fill="#EB4547"/>
<path d="M81.6901 116.579C74.8896 117.078 71.371 114.761 71.2266 114.662L72.0619 113.413C72.0932 113.434 75.3408 115.536 81.5785 115.081L81.6901 116.579Z" fill="white"/>
<path d="M120.48 109.656C120.48 109.656 117.735 113.062 111.641 113.68L120.48 109.656Z" fill="#EB4547"/>
<path d="M116.538 113.232C115.232 113.779 113.634 114.233 111.719 114.429L111.57 112.93C117.238 112.36 119.878 109.216 119.905 109.181L121.064 110.13C120.981 110.232 119.547 111.973 116.538 113.232Z" fill="white"/>
<path d="M85.98 222.632C85.98 222.632 87.4318 211.368 84.8186 194.347C82.2053 177.326 80.3901 145.725 85.2176 139.019C85.2176 139.019 101.572 142.331 118.164 135.792C118.164 135.792 125.176 138.805 128.515 155.881C131.853 172.957 132.724 207.627 139.838 220.301C146.951 232.975 94.5451 242.444 93.674 242.444C92.8029 242.444 82.7875 230.061 82.3512 229.187C81.9149 228.313 85.98 222.632 85.98 222.632Z" fill="#FFCF48"/>
<path d="M85.2176 139.02L84.9883 136.381C84.9883 136.381 91.6771 137.559 101.621 136.794C111.565 136.029 117.688 132.97 117.688 132.97L118.164 135.794C118.164 135.794 102.529 142.886 85.2176 139.02Z" fill="#D89D19"/>
<mask id="mask1_2118_87608" style="mask-type:luminance" maskUnits="userSpaceOnUse" x="82" y="135" width="59" height="108">
<path d="M85.98 222.632C85.98 222.632 87.4318 211.368 84.8186 194.347C82.2053 177.326 80.3901 145.725 85.2176 139.019C85.2176 139.019 101.572 142.331 118.164 135.792C118.164 135.792 125.176 138.805 128.515 155.881C131.853 172.957 132.724 207.627 139.838 220.301C146.951 232.975 94.5451 242.444 93.674 242.444C92.8029 242.444 82.7875 230.061 82.3512 229.187C81.9149 228.313 85.98 222.632 85.98 222.632Z" fill="white"/>
</mask>
<g mask="url(#mask1_2118_87608)">
<path d="M78.6792 179.278L76.1836 177.752L84.3198 164.346C84.5565 163.956 84.9601 163.7 85.4112 163.651C85.8654 163.599 86.3121 163.767 86.6248 164.099L97.1748 175.231L105.665 163.02C105.904 162.678 106.276 162.454 106.69 162.403C107.107 162.357 107.518 162.484 107.83 162.76L118.287 172.028L125.298 160.656C125.538 160.266 125.946 160.012 126.4 159.969C126.856 159.924 127.303 160.098 127.612 160.432L137.165 170.781L135.021 172.775L126.773 163.838L119.86 175.05C119.634 175.418 119.257 175.666 118.832 175.73C118.403 175.795 117.974 175.665 117.651 175.378L107.125 166.048L98.5477 178.383C98.2975 178.743 97.8969 178.973 97.4607 179.006C97.0169 179.036 96.594 178.873 96.2917 178.553L85.8237 167.506L78.6807 179.278H78.6792Z" fill="#D89D19"/>
<path d="M98.1366 197.92C97.7241 197.92 97.331 197.745 97.054 197.439L86.8614 186.135L79.4296 197.726L76.9727 196.14L85.4364 182.94C85.6821 182.556 86.0916 182.309 86.5458 182.272C86.997 182.238 87.4437 182.411 87.7489 182.749L98.0204 194.141L106.81 182.145C107.057 181.809 107.436 181.594 107.85 181.555C108.264 181.512 108.676 181.655 108.981 181.939L119.205 191.465L126.494 180.27C126.744 179.886 127.157 179.642 127.612 179.609C128.062 179.569 128.512 179.759 128.813 180.102L138.107 190.686L135.915 192.623L127.891 183.484L120.703 194.52C120.468 194.882 120.085 195.121 119.658 195.175C119.232 195.221 118.802 195.088 118.487 194.794L108.194 185.205L99.3144 197.324C99.0553 197.678 98.6503 197.897 98.211 197.92C98.1857 197.92 98.1619 197.921 98.1366 197.921V197.92Z" fill="#D89D19"/>
</g>
<path d="M71.5156 93.5891L73.1849 93.217L74.9896 101.386L78.8864 100.519L79.1947 101.915L73.6286 103.154L71.5156 93.5876V93.5891Z" fill="white"/>
<path d="M78.3359 92.0709L84.9458 90.6006L85.2541 91.9962L80.3134 93.096L80.7452 95.0504L85.9643 93.8894L86.2726 95.2865L81.0535 96.4475L81.8099 99.8694L86.7506 98.7696L87.0588 100.165L80.4489 101.636L78.3359 92.0694V92.0709Z" fill="white"/>
<path d="M88.8725 91.1926L86.7848 91.6573L86.4766 90.2602L92.3211 88.9602L92.6293 90.3558L90.5417 90.8205L92.3479 98.9895L90.6772 99.3616L88.8725 91.1911V91.1926Z" fill="white"/>
<path d="M94.3028 89.0035C94.2656 88.8362 94.2045 88.6883 94.1167 88.5613L93.4347 88.7137L93.1562 87.457L94.5485 87.1477L94.827 88.4044L94.8136 88.4073C94.8672 88.6494 94.8716 88.9139 94.8285 89.2023C94.7853 89.4907 94.7078 89.7372 94.5977 89.9419C94.4875 90.1481 94.3579 90.2662 94.209 90.2991C94.3475 89.7806 94.3788 89.3487 94.3028 89.0035Z" fill="white"/>
<path d="M100.89 95.7708C101.039 95.7379 101.164 95.6318 101.265 95.4525C101.367 95.2747 101.399 95.1059 101.365 94.946C101.322 94.7502 101.097 94.4708 100.691 94.1077C100.284 93.7446 99.5871 93.1977 98.5984 92.47C97.5858 91.7184 96.8637 91.1521 96.4333 90.7696C96.003 90.3871 95.7662 90.0972 95.723 89.9014C95.6545 89.5936 95.6605 89.2903 95.7409 88.9884C95.8198 88.6881 95.9553 88.4311 96.1474 88.2174C96.338 88.0037 96.5644 87.8693 96.8234 87.811L100.999 86.8831L101.307 88.2787L97.5903 89.105C97.4042 89.1468 97.3238 89.2186 97.3461 89.3202C97.3684 89.4233 97.4637 89.5458 97.632 89.6892C97.8003 89.8327 98.0668 90.0254 98.4316 90.266C99.8879 91.2208 100.991 92.0487 101.739 92.7465C102.486 93.4443 102.917 94.0494 103.03 94.562C103.164 95.1671 103.061 95.7155 102.722 96.2056C102.382 96.6957 101.883 97.0155 101.224 97.1619L97.1317 98.0719L96.8234 96.6763L100.887 95.7723L100.89 95.7708Z" fill="white"/>
<path d="M85.072 112.651C84.2024 112.37 83.4579 111.9 82.84 111.236C82.222 110.573 81.814 109.799 81.6189 108.914C81.4239 108.03 81.4685 107.164 81.7544 106.32C82.0403 105.476 82.5183 104.748 83.1929 104.14C83.8659 103.53 84.6521 103.127 85.553 102.927C86.2395 102.774 86.9929 102.804 87.8134 103.018C88.6339 103.23 89.2905 103.566 89.7804 104.024L88.8349 105.098C88.5013 104.783 88.0412 104.547 87.453 104.394C86.8649 104.242 86.3333 104.218 85.8612 104.324C85.1837 104.475 84.6238 104.75 84.1831 105.152C83.7408 105.552 83.443 106.044 83.2897 106.625C83.1363 107.206 83.1363 107.846 83.2897 108.544C83.446 109.25 83.726 109.844 84.128 110.32C84.53 110.797 85.017 111.129 85.5888 111.315C86.1605 111.501 86.7711 111.52 87.4203 111.377L89.9115 110.822L89.5109 109.007L87.8402 109.377L87.5007 107.841L90.8406 107.099L91.8889 111.846L87.7285 112.771C86.8276 112.971 85.9431 112.931 85.0735 112.651H85.072Z" fill="white"/>
<path d="M95.4862 110.32C94.6285 110.029 93.887 109.551 93.2646 108.889C92.6406 108.227 92.2326 107.457 92.0391 106.582C91.85 105.725 91.8976 104.872 92.182 104.023C92.4664 103.175 92.9355 102.444 93.5892 101.834C94.2429 101.226 95.0053 100.824 95.8778 100.63C96.7504 100.436 97.6185 100.476 98.4822 100.753C99.3473 101.029 100.087 101.489 100.707 102.133C101.326 102.776 101.73 103.526 101.92 104.384C102.111 105.249 102.062 106.117 101.773 106.987C101.484 107.856 101.008 108.608 100.344 109.238C99.6809 109.87 98.917 110.281 98.0534 110.473C97.2001 110.662 96.3439 110.612 95.4862 110.319V110.32ZM99.3563 108.243C99.7911 107.829 100.087 107.318 100.245 106.713C100.403 106.106 100.405 105.455 100.251 104.756C100.101 104.076 99.8313 103.503 99.4411 103.039C99.051 102.573 98.5745 102.253 98.0087 102.075C97.4443 101.899 96.8368 101.882 96.1876 102.026C95.5383 102.169 95.0023 102.441 94.5779 102.839C94.155 103.236 93.8661 103.728 93.7143 104.313C93.5609 104.899 93.5609 105.537 93.7143 106.224C93.8676 106.924 94.1401 107.514 94.5303 108C94.9204 108.484 95.3924 108.821 95.9508 109.01C96.5077 109.198 97.1078 109.222 97.7466 109.08C98.3869 108.937 98.9244 108.659 99.3578 108.245L99.3563 108.243Z" fill="white"/>
</g>
<defs>
<clipPath id="clip0_2118_87608">
<rect width="186" height="197" fill="white" transform="translate(7.5 3)"/>
</clipPath>
</defs>
</svg>
