<svg width="32" height="32" viewBox="0 0 32 32" fill="none" xmlns="http://www.w3.org/2000/svg">
<rect width="32" height="32" rx="16" fill="#FF0000"/>
<path fill-rule="evenodd" clip-rule="evenodd" d="M20.3394 16C20.3394 15.7361 20.2251 15.5475 19.9966 15.4344L14.436 11.9656C14.2075 11.8148 13.979 11.8148 13.7124 11.9656C13.4839 12.0787 13.3696 12.2672 13.3696 12.5689V19.4312C13.3696 19.7328 13.4839 19.9213 13.7124 20.0344C13.8267 20.1098 13.9409 20.1475 14.0552 20.1475C14.2075 20.1475 14.3218 20.1098 14.436 20.0344L19.9966 16.5656C20.2251 16.4525 20.3394 16.2639 20.3394 16ZM25.8999 16C25.8999 16.6787 25.8999 17.2443 25.8999 17.6213C25.8999 17.9984 25.8618 18.4885 25.7856 19.0918C25.7476 19.6951 25.6714 20.223 25.5571 20.6754C25.4429 21.2033 25.1763 21.6557 24.7954 21.9951C24.4146 22.3721 23.9575 22.5607 23.4624 22.6361C21.8247 22.7869 19.4253 22.9 16.1499 22.9C12.8745 22.9 10.4751 22.7869 8.8374 22.6361C8.34229 22.5607 7.88525 22.3721 7.50439 21.9951C7.12354 21.6557 6.85693 21.2033 6.74268 20.6754C6.62842 20.223 6.55225 19.6951 6.51416 19.0918C6.43799 18.4885 6.3999 17.9984 6.3999 17.6213C6.3999 17.2443 6.3999 16.6787 6.3999 16C6.3999 15.3213 6.3999 14.7557 6.3999 14.3787C6.3999 14.0016 6.43799 13.5115 6.51416 12.9082C6.55225 12.3049 6.62842 11.7771 6.74268 11.3246C6.85693 10.7967 7.12354 10.3443 7.50439 10.0049C7.88525 9.62787 8.34229 9.43935 8.8374 9.36394C10.4751 9.21312 12.8745 9.10001 16.1499 9.10001C19.4253 9.10001 21.8247 9.21312 23.4624 9.36394C23.9575 9.43935 24.4146 9.62787 24.7954 10.0049C25.1763 10.3443 25.4429 10.7967 25.5571 11.3246C25.6714 11.7771 25.7476 12.3049 25.7856 12.9082C25.8618 13.5115 25.8999 14.0016 25.8999 14.3787C25.8999 14.7557 25.8999 15.3213 25.8999 16Z" fill="white"/>
</svg>
