<svg width="92" height="92" viewBox="0 0 92 92" fill="none" xmlns="http://www.w3.org/2000/svg">
<path opacity="0.5" d="M21.4079 81.351C39.0846 81.351 51.2235 90.5076 59.7412 90.5076C68.2589 90.5076 86.1478 85.6111 86.1478 46.4268C86.1478 7.24248 62.0821 1.48993 52.7134 1.48993C8.84219 1.48993 -9.8977 81.351 21.4079 81.351V81.351Z" fill="#F5F3F7"/>
<path d="M66.2051 5.41736L68.0121 3.61031L71.6262 7.22441L69.8192 9.03146L66.2051 5.41736Z" fill="#ABA7AF"/>
<path d="M10.5337 31.4031L8.25148 30.2532L10.5514 25.6888L12.8336 26.8387L10.5337 31.4031Z" fill="#ABA7AF"/>
<path d="M76.5942 15.8114L78.4013 14.0044L82.0154 17.6185L80.2083 19.4255L76.5942 15.8114Z" fill="#ABA7AF"/>
<path d="M17.1497 18.2806L14.8675 17.1306L17.1673 12.5662L19.4496 13.7162L17.1497 18.2806Z" fill="#ABA7AF"/>
<path d="M76.1348 7.21564L79.7489 3.60154L81.5559 5.40859L77.9418 9.02269L76.1348 7.21564Z" fill="#ABA7AF"/>
<path d="M9.13062 21.4102L4.5662 19.1103L5.71615 16.8281L10.2806 19.128L9.13062 21.4102Z" fill="#ABA7AF"/>
<path opacity="0.5" d="M69.6389 72.1945H22.3611C19.5372 72.1945 17.25 69.9072 17.25 67.0834V28.75H74.75V67.0834C74.75 69.9072 72.4628 72.1945 69.6389 72.1945Z" fill="#F5F3F7"/>
<path d="M74.75 28.7501H17.25V24.9168C17.25 22.0929 19.5372 19.8057 22.3611 19.8057H69.6389C72.4628 19.8057 74.75 22.0929 74.75 24.9168V28.7501Z" fill="#D51A52"/>
<path d="M28.1111 19.8057H22.3611C19.5372 19.8057 17.25 22.0929 17.25 24.9168V28.7501H23V24.9168C23 22.0929 25.2872 19.8057 28.1111 19.8057Z" fill="#C61349"/>
<path d="M33.2222 48.5552C30.4034 48.5552 28.1111 46.2629 28.1111 43.4441C28.1111 40.6253 30.4034 38.333 33.2222 38.333C36.041 38.333 38.3333 40.6253 38.3333 43.4441C38.3333 46.2629 36.041 48.5552 33.2222 48.5552ZM33.2222 42.1663C32.5169 42.1663 31.9444 42.7413 31.9444 43.4441C31.9444 44.1469 32.5169 44.7219 33.2222 44.7219C33.9275 44.7219 34.5 44.1469 34.5 43.4441C34.5 42.7413 33.9275 42.1663 33.2222 42.1663Z" fill="#1A141F"/>
<path d="M33.2221 45.2223C34.204 45.2223 34.9999 44.4263 34.9999 43.4445C34.9999 42.4626 34.204 41.6667 33.2221 41.6667C32.2403 41.6667 31.4443 42.4626 31.4443 43.4445C31.4443 44.4263 32.2403 45.2223 33.2221 45.2223Z" fill="#D51A52"/>
<path d="M58.7779 48.5552C55.9591 48.5552 53.6667 46.2629 53.6667 43.4441C53.6667 40.6253 55.9591 38.333 58.7779 38.333C61.5966 38.333 63.889 40.6253 63.889 43.4441C63.889 46.2629 61.5966 48.5552 58.7779 48.5552ZM58.7779 42.1663C58.0725 42.1663 57.5001 42.7413 57.5001 43.4441C57.5001 44.1469 58.0725 44.7219 58.7779 44.7219C59.4832 44.7219 60.0556 44.1469 60.0556 43.4441C60.0556 42.7413 59.4832 42.1663 58.7779 42.1663Z" fill="#1A141F"/>
<path d="M58.7778 45.2223C59.7596 45.2223 60.5555 44.4263 60.5555 43.4445C60.5555 42.4626 59.7596 41.6667 58.7778 41.6667C57.7959 41.6667 57 42.4626 57 43.4445C57 44.4263 57.7959 45.2223 58.7778 45.2223Z" fill="#D51A52"/>
<path d="M59.552 66.6004L58.1975 65.2459C51.4713 58.5223 40.5284 58.5223 33.8022 65.2459L32.4478 66.6004L29.7363 63.8889L31.0908 62.5345C39.312 54.3133 52.6852 54.3133 60.9064 62.5345L62.2609 63.8889L59.552 66.6004Z" fill="#1A141F"/>
<path d="M69.6388 74.1109H22.361C18.4843 74.1109 15.3333 70.9599 15.3333 67.0832V24.9165C15.3333 21.0397 18.4843 17.8887 22.361 17.8887H69.6388C73.5156 17.8887 76.6666 21.0397 76.6666 24.9165V67.0832C76.6666 70.9599 73.5156 74.1109 69.6388 74.1109ZM22.361 21.7221C20.6003 21.7221 19.1666 23.1557 19.1666 24.9165V67.0832C19.1666 68.8439 20.6003 70.2776 22.361 70.2776H69.6388C71.3996 70.2776 72.8332 68.8439 72.8332 67.0832V24.9165C72.8332 23.1557 71.3996 21.7221 69.6388 21.7221H22.361Z" fill="#1A141F"/>
<path d="M17.25 26.833H74.75V30.6663H17.25V26.833Z" fill="#1A141F"/>
<path d="M5.11108 70.2775H86.8889V74.1108H5.11108V70.2775Z" fill="#1A141F"/>
</svg>
