<?xml version="1.0" standalone="no"?>
<!DOCTYPE svg PUBLIC "-//W3C//DTD SVG 20010904//EN"
 "http://www.w3.org/TR/2001/REC-SVG-20010904/DTD/svg10.dtd">
<svg version="1.0" xmlns="http://www.w3.org/2000/svg"
 width="180.000000pt" height="180.000000pt" viewBox="0 0 180.000000 180.000000"
 preserveAspectRatio="xMidYMid meet">
<metadata>
Created by potrace 1.14, written by Peter Selinger 2001-2017
</metadata>
<g transform="translate(0.000000,180.000000) scale(0.100000,-0.100000)"
fill="#000000" stroke="none">
<path d="M1275 1793 c-45 -10 -126 -57 -163 -94 -71 -72 -105 -173 -97 -280 5
-53 11 -76 46 -154 9 -22 26 -62 37 -90 11 -27 59 -144 107 -260 152 -365 182
-439 205 -495 12 -30 29 -70 37 -88 8 -18 20 -47 28 -65 13 -32 13 -32 19 -7
4 21 20 117 42 255 2 17 9 55 14 85 5 30 12 69 14 85 3 17 7 44 10 60 30 184
89 543 97 590 30 172 6 269 -90 364 -63 64 -126 91 -214 95 -40 2 -81 1 -92
-1z"/>
<path d="M690 1382 c-70 -9 -158 -58 -204 -113 -40 -48 -76 -135 -82 -198 -12
-142 58 -270 188 -346 10 -5 50 -33 90 -60 40 -28 123 -84 183 -125 61 -41
115 -79 120 -83 6 -4 78 -54 160 -110 83 -56 194 -132 247 -169 l97 -67 -14
39 c-7 21 -27 69 -43 107 -16 37 -56 131 -87 208 -32 77 -73 176 -91 220 -18
44 -72 174 -120 290 -47 116 -97 229 -110 252 -64 109 -203 174 -334 155z"/>
<path d="M321 659 c-75 -36 -131 -91 -167 -164 -26 -53 -29 -71 -29 -150 0
-76 5 -99 26 -145 33 -70 92 -131 160 -167 l54 -28 610 -3 c366 -2 606 1 600
6 -6 5 -228 156 -495 334 -365 244 -497 328 -534 337 -77 19 -159 12 -225 -20z"/>
</g>
</svg>
